<svg width="518" height="203" xmlns="http://www.w3.org/2000/svg" xmlns:xlink="http://www.w3.org/1999/xlink" xml:space="preserve" overflow="hidden"><defs><filter id="fx0" x="-10%" y="-10%" width="120%" height="120%" filterUnits="userSpaceOnUse" primitiveUnits="userSpaceOnUse"><feComponentTransfer color-interpolation-filters="sRGB"><feFuncR type="discrete" tableValues="0 0"/><feFuncG type="discrete" tableValues="0 0"/><feFuncB type="discrete" tableValues="0 0"/><feFuncA type="linear" slope="0.4" intercept="0"/></feComponentTransfer><feGaussianBlur stdDeviation="6.11111 6.11111"/></filter><filter id="fx1" x="-10%" y="-10%" width="120%" height="120%" filterUnits="userSpaceOnUse" primitiveUnits="userSpaceOnUse"><feComponentTransfer color-interpolation-filters="sRGB"><feFuncR type="discrete" tableValues="0 0"/><feFuncG type="discrete" tableValues="0 0"/><feFuncB type="discrete" tableValues="0 0"/><feFuncA type="linear" slope="0.4" intercept="0"/></feComponentTransfer><feGaussianBlur stdDeviation="6.11111 6.11111"/></filter><clipPath id="clip2"><rect x="492" y="1565" width="518" height="203"/></clipPath><clipPath id="clip3"><rect x="35" y="25" width="172" height="89"/></clipPath><clipPath id="clip4"><rect x="555" y="1604" width="93" height="96"/></clipPath><clipPath id="clip5"><rect x="555" y="1604" width="93" height="96"/></clipPath><clipPath id="clip6"><rect x="555" y="1604" width="93" height="96"/></clipPath></defs><g clip-path="url(#clip2)" transform="translate(-492 -1565)"><g filter="url(#fx0)" transform="translate(491 1564)"><g><path d="M22.5001 62.3493C22.5001 40.2031 40.4531 22.2501 62.5992 22.2501L457.401 22.2501C479.547 22.2501 497.5 40.2031 497.5 62.3493L497.5 142.151C497.5 164.297 479.547 182.25 457.401 182.25L62.5992 182.25C40.4531 182.25 22.5001 164.297 22.5001 142.151Z" stroke="#4663AC" stroke-width="5" stroke-miterlimit="8" fill="#4663AC" fill-rule="evenodd"/><path d="M22.5001 62.3493C22.5001 40.2031 40.4531 22.2501 62.5992 22.2501L457.401 22.2501C479.547 22.2501 497.5 40.2031 497.5 62.3493L497.5 142.151C497.5 164.297 479.547 182.25 457.401 182.25L62.5992 182.25C40.4531 182.25 22.5001 164.297 22.5001 142.151Z" stroke="#4663AC" stroke-width="5" stroke-miterlimit="8" fill="#4663AC" fill-rule="evenodd"/></g></g><g clip-path="url(#clip3)" filter="url(#fx1)" transform="translate(652 1596)"><g><path d="M4.94141-39.2627 17.1606-39.2627C22.7287-39.2627 26.7704-38.4705 29.2859-36.886 31.8013-35.3015 33.0591-32.7816 33.0591-29.3262 33.0591-26.9808 32.5085-25.0561 31.4075-23.5522 30.3064-22.0483 28.8428-21.1442 27.0166-20.8398L27.0166-20.5713C29.5052-20.0163 31.3-18.9779 32.4011-17.4561 33.5022-15.9342 34.0527-13.9111 34.0527-11.3867 34.0527-7.80599 32.7592-5.01302 30.1721-3.00781 27.585-1.0026 24.0714 0 19.6313 0L4.94141 0ZM13.2666-23.7134 18.1006-23.7134C20.3564-23.7134 21.9902-24.0625 23.0017-24.7607 24.0133-25.459 24.519-26.6138 24.519-28.2251 24.519-29.729 23.9685-30.8077 22.8674-31.4612 21.7664-32.1147 20.0252-32.4414 17.644-32.4414L13.2666-32.4414ZM13.2666-17.1069 13.2666-6.875 18.6914-6.875C20.9831-6.875 22.675-7.31364 23.7671-8.19092 24.8592-9.0682 25.4053-10.411 25.4053-12.2192 25.4053-15.4777 23.0778-17.1069 18.4228-17.1069ZM60.6038 0 59.0194-4.08203 58.8045-4.08203C57.4259-2.34538 56.0071-1.14136 54.5479-0.469971 53.0888 0.201416 51.1865 0.537109 48.8411 0.537109 45.9587 0.537109 43.6894-0.286458 42.0333-1.93359 40.3772-3.58073 39.5492-5.92611 39.5492-8.96973 39.5492-12.1566 40.6637-14.5064 42.8927-16.0193 45.1217-17.5321 48.4831-18.3691 52.9769-18.5303L58.1868-18.6914 58.1868-20.0073C58.1868-23.0509 56.6292-24.5728 53.514-24.5728 51.1149-24.5728 48.2951-23.8477 45.0545-22.3975L42.3421-27.9297C45.7975-29.738 49.6289-30.6421 53.8363-30.6421 57.8646-30.6421 60.953-29.7648 63.1014-28.0103 65.2498-26.2557 66.3241-23.5881 66.3241-20.0073L66.3241 0ZM58.1868-13.9111 55.0179-13.8037C52.6367-13.7321 50.8643-13.3024 49.7005-12.5146 48.5368-11.7269 47.9549-10.5273 47.9549-8.91601 47.9549-6.60644 49.2798-5.45166 51.9295-5.45166 53.8273-5.45166 55.3446-5.99772 56.4815-7.08984 57.6184-8.18196 58.1868-9.63216 58.1868-11.4404ZM86.958 0.537109C77.6123 0.537109 72.9395-4.59229 72.9395-14.8511 72.9395-19.9536 74.2106-23.8521 76.7529-26.5466 79.2952-29.2411 82.9386-30.5884 87.6831-30.5884 91.1564-30.5884 94.2716-29.908 97.0288-28.5474L94.6118-22.2095C93.3228-22.7287 92.1232-23.1539 91.0132-23.4851 89.9032-23.8163 88.7931-23.9819 87.6831-23.9819 83.422-23.9819 81.2915-20.9562 81.2915-14.9048 81.2915-9.03239 83.422-6.09619 87.6831-6.09619 89.2586-6.09619 90.7178-6.30656 92.0605-6.72729 93.4033-7.14803 94.7461-7.80599 96.0889-8.70117L96.0889-1.69189C94.764-0.850423 93.4257-0.268555 92.074 0.0537109 90.7222 0.375977 89.0169 0.537109 86.958 0.537109ZM110.707-16.3281 114.279-20.8936 122.685-30.0244 131.923-30.0244 119.999-16.9995 132.648 0 123.195 0 114.548-12.1655 111.029-9.3457 111.029 0 102.839 0 102.839-41.7871 111.029-41.7871 111.029-23.1494 110.6-16.3281Z" fill="#FFFFFF" transform="matrix(1 0 0 1 53.2555 89)"/></g></g><path d="M513.5 1612.6C513.5 1590.45 531.453 1572.5 553.599 1572.5L948.401 1572.5C970.547 1572.5 988.5 1590.45 988.5 1612.6L988.5 1692.4C988.5 1714.55 970.547 1732.5 948.401 1732.5L553.599 1732.5C531.453 1732.5 513.5 1714.55 513.5 1692.4Z" stroke="#4663AC" stroke-width="4.58333" stroke-miterlimit="8" fill="#4663AC" fill-rule="evenodd"/><path d="M513.5 1612.6C513.5 1590.45 531.453 1572.5 553.599 1572.5L948.401 1572.5C970.547 1572.5 988.5 1590.45 988.5 1612.6L988.5 1692.4C988.5 1714.55 970.547 1732.5 948.401 1732.5L553.599 1732.5C531.453 1732.5 513.5 1714.55 513.5 1692.4Z" stroke="#4663AC" stroke-width="4.58333" stroke-miterlimit="8" fill="#4663AC" fill-rule="evenodd"/><text fill="#FFFFFF" font-family="Noto Sans,Noto Sans_MSFontService,sans-serif" font-weight="700" font-size="55" transform="matrix(1 0 0 1 705.255 1671)">Back</text><g clip-path="url(#clip4)"><g clip-path="url(#clip5)"><g clip-path="url(#clip6)"><path d="M-86.822-527.706C-85.1158-528.981-85.3161-531.638-86.822-533.144L-105.001-551.321C-106.507-552.828-108.933-552.828-110.439-551.321L-139.923-521.891-169.367-492.498C-170.886-483.072-172.445-473.607-173.964-464.181L-145.754-468.885C-130.502-484.136-123.296-491.315-116.021-498.562-108.747-505.808-101.593-512.938-86.822-527.706Z" stroke="#FFFFFF" stroke-width="4.65" stroke-linecap="round" stroke-linejoin="round" stroke-miterlimit="6.2" fill="none" transform="matrix(1 0 0 1.01076 1033.32 999.732)"/><path d="M-300.456 436.847C-299.04 436.847-297.891 437.996-297.891 439.413L-297.891 468.26C-297.891 469.676-299.04 470.825-300.456 470.825L-300.912 470.825C-302.329 470.825-303.478 469.676-303.478 468.26L-303.478 439.413C-303.478 437.996-302.329 436.847-300.912 436.847Z" stroke="#FFFFFF" stroke-width="4.67481" stroke-linecap="round" stroke-linejoin="round" stroke-miterlimit="6.2" transform="matrix(-0.70335 0.710924 -0.70335 -0.710924 1033.32 999.732)"/><path d="M-157.106-464.594-173.324-480.812-173.964-464.181Z" stroke="#FFFFFF" stroke-width="4.65" transform="matrix(1 0 0 1.01076 1033.32 999.732)"/><path d="M-232.957 437.061C-231.54 437.061-230.391 438.21-230.391 439.627L-230.391 468.474C-230.391 469.89-231.54 471.039-232.957 471.039L-233.413 471.039C-234.83 471.039-235.978 469.89-235.978 468.474L-235.978 439.627C-235.978 438.21-234.83 437.061-233.413 437.061Z" stroke="#FFFFFF" stroke-width="4.67481" stroke-linecap="round" stroke-linejoin="round" stroke-miterlimit="6.2" transform="matrix(-0.70335 0.710924 -0.70335 -0.710924 1033.32 999.732)"/><path d="M-174.352-861.823C-174.352-860.341-175.552-859.14-177.031-859.14-178.51-859.14-179.709-860.341-179.709-861.823-179.709-863.304-178.51-864.505-177.031-864.505-175.552-864.505-174.352-863.304-174.352-861.823Z" stroke="#FFFFFF" stroke-width="4.65" stroke-linecap="round" stroke-linejoin="round" transform="matrix(1 0 0 1.01076 666.197 1333.31)"/><path d="M-177.031-852.875-177.031-833.864" stroke="#FFFFFF" stroke-width="4.65" stroke-linecap="round" stroke-linejoin="round" fill="none" transform="matrix(1 0 0 1.01076 666.197 1333.31)"/><path d="M-219.294-875.371C-220.353-875.371-221.206-874.512-221.206-873.452L-221.206-821.446C-221.206-820.382-220.353-819.523-219.294-819.523L-207.624-819.523-207.624-801.305-171.785-819.523-155.899-819.523-134.768-819.523C-133.709-819.523-132.856-820.382-132.856-821.446L-132.856-873.452C-132.856-874.512-133.709-875.371-134.768-875.371Z" stroke="#FFFFFF" stroke-width="4.65" stroke-linecap="round" stroke-linejoin="round" stroke-miterlimit="6.2" fill="none" transform="matrix(1 0 0 1.01076 666.197 1333.31)"/><path d="M-928.933-152.805-908.286-152.805-873.322-207.439-861.316-207.439-840.668-207.439" stroke="#FFFFFF" stroke-width="4.65" stroke-linecap="round" stroke-linejoin="round" fill="none" transform="matrix(1 0 0 1.01076 957.011 1279.73)"/><path d="M-840.668-207.439-860.583-217.479" stroke="#FFFFFF" stroke-width="4.65" stroke-linecap="round" stroke-linejoin="round" fill="none" transform="matrix(1 0 0 1.01076 957.011 1279.73)"/><path d="M-840.668-207.439-860.583-197.4" stroke="#FFFFFF" stroke-width="4.65" stroke-linecap="round" stroke-linejoin="round" fill="none" transform="matrix(1 0 0 1.01076 957.011 1279.73)"/><path d="M-840.668-152.805-860.583-162.845" stroke="#FFFFFF" stroke-width="4.65" stroke-linecap="round" stroke-linejoin="round" fill="none" transform="matrix(1 0 0 1.01076 957.011 1279.73)"/><path d="M-840.668-152.805-860.583-142.766" stroke="#FFFFFF" stroke-width="4.65" stroke-linecap="round" stroke-linejoin="round" fill="none" transform="matrix(1 0 0 1.01076 957.011 1279.73)"/><path d="M-928.959-207.435-908.311-207.435-873.347-152.801-861.341-152.801-840.688-152.801" stroke="#FFFFFF" stroke-width="4.65" stroke-linecap="round" stroke-linejoin="round" fill="none" transform="matrix(1 0 0 1.01076 957.011 1279.73)"/><path d="M-435.414-207.979-382.853-207.979C-381.16-207.979-379.796-206.62-379.796-204.933L-379.796-132.578C-379.796-130.891-381.16-129.533-382.853-129.533L-435.414-129.533C-437.107-129.533-438.471-130.891-438.471-132.578L-438.471-204.933C-438.471-206.62-437.107-207.979-435.414-207.979Z" stroke="#FFFFFF" stroke-width="4.65" stroke-linecap="round" stroke-linejoin="round" stroke-miterlimit="6.2" fill="none" transform="matrix(1 0 0 1.01076 478.331 1065.87)"/><path d="M-438.247-215.218-379.84-215.218" stroke="#FFFFFF" stroke-width="4.65" stroke-linecap="round" stroke-linejoin="round" fill="none" transform="matrix(1 0 0 1.01076 478.331 1065.87)"/><path d="M-425.729-197.848-425.729-139.664" stroke="#FFFFFF" stroke-width="4.65" stroke-linecap="round" stroke-linejoin="round" fill="none" transform="matrix(1 0 0 1.01076 478.331 1065.87)"/><path d="M-409.133-197.848-409.133-139.664" stroke="#FFFFFF" stroke-width="4.65" stroke-linecap="round" stroke-linejoin="round" fill="none" transform="matrix(1 0 0 1.01076 478.331 1065.87)"/><path d="M-392.538-197.848-392.538-139.664" stroke="#FFFFFF" stroke-width="4.65" stroke-linecap="round" stroke-linejoin="round" fill="none" transform="matrix(1 0 0 1.01076 478.331 1065.87)"/><path d="M-417.62-217.883-400.467-217.883" stroke="#FFFFFF" stroke-width="4.65" stroke-linecap="round" stroke-linejoin="round" fill="none" transform="matrix(1 0 0 1.01076 478.331 1065.87)"/><path d="M-255.133-334.554-255.133-309.129C-255.133-308.494-255.556-307.983-256.082-307.983L-342.537-307.983C-343.063-307.983-343.486-308.494-343.486-309.129L-343.486-334.554" stroke="#FFFFFF" stroke-width="4.65" stroke-linecap="round" stroke-linejoin="round" stroke-miterlimit="6.2" fill="none" transform="matrix(1 0 0 1.01076 -247.438 1246.61)"/><path d="M-78.2335-23.6699-78.2335-99.4096" stroke="#FFFFFF" stroke-width="4.65" stroke-linecap="round" stroke-linejoin="round" fill="none" transform="matrix(1 0 0 -1.01076 -468.514 821.401)"/><path d="M-78.2335-99.4096-100.067-77.1026" stroke="#FFFFFF" stroke-width="4.65" stroke-linecap="round" stroke-linejoin="round" fill="none" transform="matrix(1 0 0 -1.01076 -468.514 821.401)"/><path d="M-78.2335-99.4096-56.4-77.1026" stroke="#FFFFFF" stroke-width="4.65" stroke-linecap="round" stroke-linejoin="round" fill="none" transform="matrix(1 0 0 -1.01076 -468.514 821.401)"/><path d="M-95.4753-311.779-95.4753-400.045" stroke="#FFFFFF" stroke-width="4.65" stroke-linecap="round" stroke-linejoin="round" fill="none" transform="matrix(1 0 0 1.01076 -252.55 1250.04)"/><path d="M-77.8287-311.729-113.122-311.729" stroke="#FFFFFF" stroke-width="4.65" stroke-linecap="round" stroke-linejoin="round" fill="none" transform="matrix(1 0 0 1.01076 -252.55 1250.04)"/><path d="M-77.8287-400.095-113.122-400.095" stroke="#FFFFFF" stroke-width="4.65" stroke-linecap="round" stroke-linejoin="round" fill="none" transform="matrix(1 0 0 1.01076 -252.55 1250.04)"/><path d="M-504.618-841.642-416.329-841.642" stroke="#FFFFFF" stroke-width="4.65" stroke-linecap="round" stroke-linejoin="round" fill="none" transform="matrix(1 0 0 1.01076 753.13 1336.65)"/><path d="M-504.618-871.358-416.329-871.358" stroke="#FFFFFF" stroke-width="4.65" stroke-linecap="round" stroke-linejoin="round" fill="none" transform="matrix(1 0 0 1.01076 753.13 1336.65)"/><path d="M-504.618-811.921-416.329-811.921" stroke="#FFFFFF" stroke-width="4.65" stroke-linecap="round" stroke-linejoin="round" fill="none" transform="matrix(1 0 0 1.01076 753.13 1336.65)"/><path d="M-89.4574-78.2867-89.4574-18.4797-157.9-18.4797-157.9-103.456-157.9-103.456-115.822-103.456" stroke="#FFFFFF" stroke-width="6.52036" stroke-linecap="round" stroke-linejoin="round" stroke-miterlimit="6.2" fill="none" transform="matrix(1 0 0 1.04921 1012.04 765.859)"/><path d="M-90.3685-77.4171-115.822-77.4171C-116.327-77.4171-116.733-77.805-116.733-78.2867L-116.733-102.586C-116.733-103.068-116.327-103.456-115.822-103.456L-89.4574-78.2867C-89.4574-77.805-89.8637-77.4171-90.3685-77.4171Z" stroke="#FFFFFF" stroke-width="6.52036" stroke-linecap="round" stroke-linejoin="round" fill="none" transform="matrix(1 0 0 1.04921 1012.04 765.859)"/><path d="M615.106-84.2995 615.106-21.6634 546.68-21.6634 546.68-110.659 546.68-110.659 588.751-110.659" stroke="#FFFFFF" stroke-width="5.35336" stroke-linecap="round" stroke-linejoin="round" stroke-miterlimit="6.2" fill="none" transform="matrix(1 0 0 1.00348 -288.239 956.692)"/><path d="M614.199-83.3885 588.751-83.3885C588.242-83.3885 587.838-83.7949 587.838-84.2995L587.838-109.748C587.838-110.252 588.242-110.659 588.751-110.659L615.106-84.2995C615.106-83.7949 614.701-83.3885 614.199-83.3885Z" stroke="#FFFFFF" stroke-width="5.35336" stroke-linecap="round" stroke-linejoin="round" fill="none" transform="matrix(1 0 0 1.00348 -288.239 956.692)"/><path d="M-143.564-46.3938-103.996-46.3938" stroke="#FFFFFF" stroke-width="6.52571" stroke-linecap="round" stroke-linejoin="round" fill="none" transform="matrix(1 0 0 1.00494 417.028 950.608)"/><path d="M-143.564-61.0178-103.996-61.0178" stroke="#FFFFFF" stroke-width="6.52571" stroke-linecap="round" stroke-linejoin="round" fill="none" transform="matrix(1 0 0 1.00494 417.028 950.608)"/><path d="M-143.564-31.7699-103.996-31.7699" stroke="#FFFFFF" stroke-width="6.52571" stroke-linecap="round" stroke-linejoin="round" fill="none" transform="matrix(1 0 0 1.00494 417.028 950.608)"/><path d="M-742.811-677.187C-720.727-677.187-698.638-677.187-676.549-677.187-669.188-669.826-661.827-662.464-654.465-655.103-654.465-633.014-654.465-610.925-654.465-588.841-683.916-588.841-713.361-588.841-742.811-588.841-742.811-618.291-742.811-647.737-742.811-677.187Z" stroke="#FFFFFF" stroke-width="4.65" stroke-linejoin="round" fill="none" transform="matrix(1 0 0 1.01076 981.201 1341.71)"/><path d="M-716.886-677.187-680.392-677.187-680.392-653.373-716.886-653.373Z" stroke="#FFFFFF" stroke-width="4.65" stroke-linejoin="round" fill="none" transform="matrix(1 0 0 1.01076 981.201 1341.71)"/><path d="M-691.639-669.288-691.639-661.505" stroke="#FFFFFF" stroke-width="4.65" stroke-linecap="round" stroke-linejoin="round" fill="none" transform="matrix(1 0 0 1.01076 981.201 1341.71)"/><path d="M-1975.26 38.8693-1918.21 38.8693-1918.21 74.4924-1975.26 74.4924Z" stroke="#FFFFFF" stroke-width="5.35786" stroke-linejoin="round" fill="none" transform="matrix(1 0 0 1.01076 2229.3 671.243)"/><path d="M-1927.95 50.2295-1965.53 50.2295" stroke="#FFFFFF" stroke-width="5.35786" stroke-linecap="round" stroke-linejoin="round" fill="none" transform="matrix(1 0 0 1.01076 2229.3 671.243)"/><path d="M-1927.95 63.132-1965.53 63.132" stroke="#FFFFFF" stroke-width="5.35786" stroke-linecap="round" stroke-linejoin="round" fill="none" transform="matrix(1 0 0 1.01076 2229.3 671.243)"/><path d="M-136.05-207.553-136.05-196.258M-188.501-196.258-188.501-227.752-188.501-227.752-156.255-227.752" stroke="#FFFFFF" stroke-width="4.65" stroke-linejoin="round" stroke-miterlimit="6.2" fill="none" transform="matrix(1 0 0 1.01076 1293.41 671.507)"/><path d="M-136.748-206.855-156.255-206.855C-156.641-206.855-156.952-207.166-156.952-207.553L-156.952-227.054C-156.952-227.441-156.641-227.752-156.255-227.752L-136.05-207.553C-136.05-207.166-136.361-206.855-136.748-206.855Z" stroke="#FFFFFF" stroke-width="4.65" stroke-linecap="round" stroke-linejoin="round" fill="none" transform="matrix(1 0 0 1.01076 1293.41 671.507)"/><path d="M-132.529-187.559-126.125-187.559" stroke="#FFFFFF" stroke-width="4.65" stroke-linecap="round" stroke-linejoin="round" fill="none" transform="matrix(1 0 0 1.01076 1293.41 671.507)"/><path d="M-188.212-163.318-206.451-163.318-206.451-195.708-206.451-195.708-118.101-195.708-118.101-163.318-134.918-163.318" stroke="#FFFFFF" stroke-width="4.65" stroke-linejoin="round" fill="none" transform="matrix(1 0 0 1.01076 1293.41 671.507)"/><path d="M-91.2579-34.577-60.9584-34.577" stroke="#FFFFFF" stroke-width="4.65" stroke-linecap="round" stroke-linejoin="round" fill="none" transform="matrix(1 0 0 1.01076 1207.24 545.268)"/><path d="M-91.2579-25.1105-60.9584-25.1105" stroke="#FFFFFF" stroke-width="4.65" stroke-linecap="round" stroke-linejoin="round" fill="none" transform="matrix(1 0 0 1.01076 1207.24 545.268)"/><path d="M-102.755-45.1808-49.461-45.1808-49.461-14.5066-102.755-14.5066Z" stroke="#FFFFFF" stroke-width="4.65" stroke-linejoin="round" fill="none" transform="matrix(1 0 0 1.01076 1207.24 545.268)"/><path d="M-742.761 72.1912-654.455-16.1119" stroke="#FFFFFF" stroke-width="4.65" stroke-linecap="round" stroke-linejoin="round" fill="none" transform="matrix(1 0 0 1.01076 350.586 1247.18)"/><path d="M-742.761-16.1119-654.455 72.1912" stroke="#FFFFFF" stroke-width="4.65" stroke-linecap="round" stroke-linejoin="round" fill="none" transform="matrix(1 0 0 1.01076 350.586 1247.18)"/><path d="M-145.031-1152.56C-145.031-1136.83-157.998-1124.08-173.993-1124.08-189.988-1124.08-202.955-1136.83-202.955-1152.56-202.955-1168.3-189.988-1181.05-173.993-1181.05-157.998-1181.05-145.031-1168.3-145.031-1152.56Z" stroke="#FFFFFF" stroke-width="4.6748" stroke-linecap="round" stroke-linejoin="round" fill="none" transform="matrix(0.703289 -0.710987 0.703289 0.710987 797.18 1165.93)"/><path d="M-873.186-628.585-912.91-668.314" stroke="#FFFFFF" stroke-width="4.65" stroke-linecap="round" stroke-linejoin="round" fill="none" transform="matrix(1 0 0 1.01076 797.18 1165.93)"/><path d="M-464.97-601.063-482.619-601.063-482.619-610.262-482.619-610.262-464.97-610.262Z" stroke="#FFFFFF" stroke-width="4.65" stroke-linecap="round" stroke-linejoin="round" stroke-miterlimit="6.2" fill="none" transform="matrix(1 0 0 1.01076 1172.8 1274.06)"/><path d="M-40.2379-11.1004-111.979-11.1004-111.979-90.2531-111.979-90.2531-40.2379-90.2531Z" stroke="#FFFFFF" stroke-width="4.65" stroke-linecap="round" stroke-linejoin="round" stroke-miterlimit="6.2" fill="none" transform="matrix(1 0 0 1.01076 775.111 757.761)"/><path d="M-53.5037-83.9252-98.7126-83.9252-98.7126-87.3844-98.7126-87.3844-53.5037-87.3844Z" stroke="#FFFFFF" stroke-width="4.65" stroke-linecap="round" stroke-linejoin="round" stroke-miterlimit="6.2" fill="none" transform="matrix(1 0 0 1.01076 775.111 757.761)"/><path d="M-2216.03-124.336-2176.04-124.336" stroke="#FFFFFF" stroke-width="5.41687" stroke-linecap="round" stroke-linejoin="round" fill="none" transform="matrix(1 0 0 1.00886 2895.21 827.149)"/><path d="M-2216.03-138.74-2176.04-138.74" stroke="#FFFFFF" stroke-width="5.41687" stroke-linecap="round" stroke-linejoin="round" fill="none" transform="matrix(1 0 0 1.00886 2895.21 827.149)"/><path d="M-2216.03-109.932-2176.04-109.932" stroke="#FFFFFF" stroke-width="5.41687" stroke-linecap="round" stroke-linejoin="round" fill="none" transform="matrix(1 0 0 1.00886 2895.21 827.149)"/><path d="M-2216.37-95.5275-2176.37-95.5275" stroke="#FFFFFF" stroke-width="5.41687" stroke-linecap="round" stroke-linejoin="round" fill="none" transform="matrix(1 0 0 1.00886 2895.21 827.149)"/><path d="M366.603-130.236C366.603-123.613 361.199-118.244 354.532-118.244 347.866-118.244 342.462-123.613 342.462-130.236 342.462-136.86 347.866-142.229 354.532-142.229 361.199-142.229 366.603-136.86 366.603-130.236Z" stroke="#FFFFFF" stroke-width="4.66203" stroke-linecap="round" stroke-linejoin="round" fill="none" transform="matrix(0.506195 -0.86867 0.868048 0.496545 -218.661 1247.09)"/><path d="M93.0274-352.989 76.5357-362.322" stroke="#FFFFFF" stroke-width="4.65" stroke-linecap="round" stroke-linejoin="round" fill="none" transform="matrix(1 0 0 1.01076 -218.661 1247.09)"/><path d="M-249.487 229.031C-249.487 235.655-254.891 241.024-261.557 241.024-268.224 241.024-273.628 235.655-273.628 229.031-273.628 222.408-268.224 217.038-261.557 217.038-254.891 217.038-249.487 222.408-249.487 229.031Z" stroke="#FFFFFF" stroke-width="4.66203" stroke-linecap="round" stroke-linejoin="round" fill="none" transform="matrix(0.506195 0.86867 0.868048 -0.496545 -218.661 1247.09)"/><path d="M93.0274-352.989 76.5357-343.656" stroke="#FFFFFF" stroke-width="4.65" stroke-linecap="round" stroke-linejoin="round" fill="none" transform="matrix(1 0 0 1.01076 -218.661 1247.09)"/><path d="M93.0309-352.987 142.645-367.939" stroke="#FFFFFF" stroke-width="4.65" stroke-linecap="round" stroke-linejoin="round" fill="none" transform="matrix(1 0 0 1.01076 -218.661 1247.09)"/><path d="M93.0309-352.987 142.645-338.035" stroke="#FFFFFF" stroke-width="4.65" stroke-linecap="round" stroke-linejoin="round" fill="none" transform="matrix(1 0 0 1.01076 -218.661 1247.09)"/><path d="M-1106.24 432.785-1106.24 418.08" stroke="#FFFFFF" stroke-width="1.87339" stroke-linecap="round" stroke-linejoin="round" fill="none" transform="matrix(1 0 0 1.00979 527.174 808.734)"/><path d="M-1106.24 506.451-1106.24 456.491" stroke="#FFFFFF" stroke-width="1.87339" stroke-linecap="round" stroke-linejoin="round" fill="none" transform="matrix(1 0 0 1.00979 527.174 808.734)"/><path d="M-1281.09 370.008C-1281.09 376.554-1286.39 381.861-1292.94 381.861-1299.48 381.861-1304.79 376.554-1304.79 370.008-1304.79 363.462-1299.48 358.155-1292.94 358.155-1286.39 358.155-1281.09 363.462-1281.09 370.008Z" stroke="#FFFFFF" stroke-width="7.08055" stroke-linecap="round" stroke-linejoin="bevel" fill="none" transform="matrix(1 0 0 1.00979 713.869 884.095)"/><path d="M-1075.18 466.353-1075.18 418.08" stroke="#FFFFFF" stroke-width="1.87339" stroke-linecap="round" stroke-linejoin="round" fill="none" transform="matrix(1 0 0 1.00979 528.432 808.734)"/><path d="M-1075.18 506.451-1075.18 490.059" stroke="#FFFFFF" stroke-width="1.87339" stroke-linecap="round" stroke-linejoin="round" fill="none" transform="matrix(1 0 0 1.00979 528.432 808.734)"/><path d="M-1250.03 403.575C-1250.03 410.121-1255.33 415.427-1261.88 415.427-1268.43 415.427-1273.73 410.121-1273.73 403.575-1273.73 397.029-1268.43 391.722-1261.88 391.722-1255.33 391.722-1250.03 397.029-1250.03 403.575Z" stroke="#FFFFFF" stroke-width="7.08055" stroke-linecap="round" stroke-linejoin="bevel" fill="none" transform="matrix(1 0 0 1.00979 715.128 884.095)"/><path d="M-1020.41 442.376-1020.41 417.263" stroke="#FFFFFF" stroke-width="1.87339" stroke-linecap="round" stroke-linejoin="round" fill="none" transform="matrix(1 0 0 1.00979 505.987 809.56)"/><path d="M-1020.41 505.634-1020.41 466.082" stroke="#FFFFFF" stroke-width="1.87339" stroke-linecap="round" stroke-linejoin="round" fill="none" transform="matrix(1 0 0 1.00979 505.987 809.56)"/><path d="M-1195.26 379.599C-1195.26 386.145-1200.57 391.452-1207.11 391.452-1213.66 391.452-1218.96 386.145-1218.96 379.599-1218.96 373.053-1213.66 367.747-1207.11 367.747-1200.57 367.747-1195.26 373.053-1195.26 379.599Z" stroke="#FFFFFF" stroke-width="7.08055" stroke-linecap="round" stroke-linejoin="bevel" fill="none" transform="matrix(1 0 0 1.00979 692.683 884.921)"/><path d="M-1135.89-929.28-1077.63-929.28-1077.63-840.927-1135.89-840.927Z" stroke="#FFFFFF" stroke-width="4.65" stroke-linecap="round" stroke-linejoin="round" stroke-miterlimit="6.2" fill="none" transform="matrix(1 0 0 1.01076 563.008 1596.51)"/><path d="M-1110.78-885.102-1044.48-885.102" stroke="#FFFFFF" stroke-width="4.65" stroke-linecap="round" stroke-linejoin="round" fill="none" transform="matrix(1 0 0 1.01076 563.008 1596.51)"/><path d="M-1044.48-885.102-1064.01-865.996" stroke="#FFFFFF" stroke-width="4.65" stroke-linecap="round" stroke-linejoin="round" fill="none" transform="matrix(1 0 0 1.01076 563.008 1596.51)"/><path d="M-1044.48-885.102-1064.01-904.208" stroke="#FFFFFF" stroke-width="4.65" stroke-linecap="round" stroke-linejoin="round" fill="none" transform="matrix(1 0 0 1.01076 563.008 1596.51)"/><path d="M-951.635-940.919-893.372-940.919-893.372-852.567-951.635-852.567Z" stroke="#FFFFFF" stroke-width="4.65" stroke-linecap="round" stroke-linejoin="round" stroke-miterlimit="6.2" fill="none" transform="matrix(1 0 0 1.01076 569.385 1608.28)"/><path d="M-860.221-896.747-926.523-896.747" stroke="#FFFFFF" stroke-width="4.65" stroke-linecap="round" stroke-linejoin="round" fill="none" transform="matrix(1 0 0 1.01076 569.385 1608.28)"/><path d="M-926.523-896.747-906.995-877.64" stroke="#FFFFFF" stroke-width="4.65" stroke-linecap="round" stroke-linejoin="round" fill="none" transform="matrix(1 0 0 1.01076 569.385 1608.28)"/><path d="M-926.523-896.747-906.995-915.853" stroke="#FFFFFF" stroke-width="4.65" stroke-linecap="round" stroke-linejoin="round" fill="none" transform="matrix(1 0 0 1.01076 569.385 1608.28)"/><path d="M-413.232-334.727-413.232-309.301C-413.232-308.667-413.655-308.156-414.181-308.156L-500.635-308.156C-501.161-308.156-501.584-308.667-501.584-309.301L-501.584-334.727" stroke="#FFFFFF" stroke-width="4.65" stroke-linecap="round" stroke-linejoin="round" stroke-miterlimit="6.2" fill="none" transform="matrix(1 0 0 1.01076 -273.063 1246.78)"/><path d="M-78.2335-23.6699-78.2335-99.4096" stroke="#FFFFFF" stroke-width="4.65" stroke-linecap="round" stroke-linejoin="round" fill="none" transform="matrix(1 0 0 1.01076 -652.237 945.804)"/><path d="M-78.2335-99.4096-100.067-77.1026" stroke="#FFFFFF" stroke-width="4.65" stroke-linecap="round" stroke-linejoin="round" fill="none" transform="matrix(1 0 0 1.01076 -652.237 945.804)"/><path d="M-78.2335-99.4096-56.4-77.1026" stroke="#FFFFFF" stroke-width="4.65" stroke-linecap="round" stroke-linejoin="round" fill="none" transform="matrix(1 0 0 1.01076 -652.237 945.804)"/><path d="M146.724-604.513 234.991-604.513" stroke="#FFFFFF" stroke-width="4.65" stroke-linecap="round" stroke-linejoin="round" fill="none" transform="matrix(1 0 0 1.01076 677.608 1707.87)"/><path d="M-120.242-55.2752-31.9748-55.2752" stroke="#FFFFFF" stroke-width="4.65" stroke-linecap="round" stroke-linejoin="round" fill="none" transform="matrix(1 0 0 1.01076 754.134 1142.79)"/><path d="M-76.1079-99.4086-76.1079-11.1421" stroke="#FFFFFF" stroke-width="4.65" stroke-linecap="round" stroke-linejoin="round" fill="none" transform="matrix(1 0 0 1.01076 754.134 1142.79)"/><path d="M-395.386-1313.63C-395.386-1297.9-408.353-1285.14-424.348-1285.14-440.343-1285.14-453.31-1297.9-453.31-1313.63-453.31-1329.37-440.343-1342.12-424.348-1342.12-408.353-1342.12-395.386-1329.37-395.386-1313.63Z" stroke="#FFFFFF" stroke-width="4.6748" stroke-linecap="round" stroke-linejoin="round" fill="none" transform="matrix(0.703289 -0.710987 0.703289 0.710987 476.214 1102.44)"/><path d="M-1162.53-565.778-1202.26-605.507" stroke="#FFFFFF" stroke-width="4.65" stroke-linecap="round" stroke-linejoin="round" fill="none" transform="matrix(1 0 0 1.01076 476.214 1102.44)"/><path d="M-1241.41-625.537-1203.2-625.537" stroke="#FFFFFF" stroke-width="4.65" stroke-linecap="round" stroke-linejoin="round" fill="none" transform="matrix(1 0 0 1.01076 476.214 1102.44)"/><path d="M-1222.3-644.644-1222.3-606.431" stroke="#FFFFFF" stroke-width="4.65" stroke-linecap="round" stroke-linejoin="round" fill="none" transform="matrix(1 0 0 1.01076 476.214 1102.44)"/><path d="M-256.853-1239.96C-256.853-1224.23-269.819-1211.47-285.815-1211.47-301.81-1211.47-314.777-1224.23-314.777-1239.96-314.777-1255.7-301.81-1268.45-285.815-1268.45-269.819-1268.45-256.853-1255.7-256.853-1239.96Z" stroke="#FFFFFF" stroke-width="4.6748" stroke-linecap="round" stroke-linejoin="round" fill="none" transform="matrix(0.703289 -0.710987 0.703289 0.710987 709.424 1148.57)"/><path d="M-1013.3-611.407-1053.02-651.136" stroke="#FFFFFF" stroke-width="4.65" stroke-linecap="round" stroke-linejoin="round" fill="none" transform="matrix(1 0 0 1.01076 709.424 1148.57)"/><path d="M-1092.17-671.166-1053.96-671.166" stroke="#FFFFFF" stroke-width="4.65" stroke-linecap="round" stroke-linejoin="round" fill="none" transform="matrix(1 0 0 1.01076 709.424 1148.57)"/><path d="M-272.963-1455.86C-272.963-1440.12-285.929-1427.37-301.925-1427.37-317.92-1427.37-330.887-1440.12-330.887-1455.86-330.887-1471.59-317.92-1484.35-301.925-1484.35-285.929-1484.35-272.963-1471.59-272.963-1455.86Z" stroke="#FFFFFF" stroke-width="4.6748" stroke-linecap="round" stroke-linejoin="round" fill="none" transform="matrix(0.703289 -0.710987 0.703289 0.710987 673.868 1290.61)"/><path d="M-1176.47-751.94-1216.19-791.669" stroke="#FFFFFF" stroke-width="4.65" stroke-linecap="round" stroke-linejoin="round" fill="none" transform="matrix(1 0 0 1.01076 673.868 1290.61)"/><path d="M114.846-249.45 192.148-249.45 192.148-172.148 114.846-172.148Z" stroke="#FFFFFF" stroke-width="4.65" stroke-linecap="round" stroke-linejoin="round" stroke-miterlimit="6.2" fill="none" transform="matrix(1 0 0 1.01076 -889.491 1494.17)"/><path d="M125.893-249.45 125.893-260.498 125.893-260.498 203.196-260.498 203.196-183.195 192.148-183.195" stroke="#FFFFFF" stroke-width="4.65" stroke-linecap="round" stroke-linejoin="round" stroke-miterlimit="6.2" fill="none" transform="matrix(1 0 0 1.01076 -889.491 1494.17)"/><path d="M197.211-6.16599 161.454-6.16599C130.806-6.16599 130.806-52.9689 164.065-52.9689L209.5-52.9689 227.109-52.9689" stroke="#FFFFFF" stroke-width="4.65" stroke-linecap="round" stroke-linejoin="round" fill="none" transform="matrix(1 0 0 1.01076 520.749 929.854)"/><path d="M227.109-52.9689 207.581-33.8621" stroke="#FFFFFF" stroke-width="4.65" stroke-linecap="round" stroke-linejoin="round" fill="none" transform="matrix(1 0 0 1.01076 520.749 929.854)"/><path d="M227.109-52.9689 207.581-72.0757" stroke="#FFFFFF" stroke-width="4.65" stroke-linecap="round" stroke-linejoin="round" fill="none" transform="matrix(1 0 0 1.01076 520.749 929.854)"/><path d="M-231.188-158.125-195.431-158.125C-164.783-158.125-164.783-204.928-198.043-204.928L-243.478-204.928-261.087-204.928" stroke="#FFFFFF" stroke-width="4.65" stroke-linecap="round" stroke-linejoin="round" fill="none" transform="matrix(1 0 0 1.01076 818.441 1845.15)"/><path d="M-261.087-204.928-241.559-185.821" stroke="#FFFFFF" stroke-width="4.65" stroke-linecap="round" stroke-linejoin="round" fill="none" transform="matrix(1 0 0 1.01076 818.441 1845.15)"/><path d="M-261.087-204.928-241.559-224.035" stroke="#FFFFFF" stroke-width="4.65" stroke-linecap="round" stroke-linejoin="round" fill="none" transform="matrix(1 0 0 1.01076 818.441 1845.15)"/><path d="M92.4068-55.69 44.6014-11.5382" stroke="#FFFFFF" stroke-width="4.65" stroke-linecap="round" stroke-linejoin="round" fill="none" transform="matrix(1 0 0 1.01076 -230.582 1161.35)"/><path d="M92.4068-55.69 44.6014-99.8424" stroke="#FFFFFF" stroke-width="4.65" stroke-linecap="round" stroke-linejoin="round" fill="none" transform="matrix(1 0 0 1.01076 -230.582 1161.35)"/><path d="M-90.0462-184.396-42.2412-140.244" stroke="#FFFFFF" stroke-width="4.65" stroke-linecap="round" stroke-linejoin="round" fill="none" transform="matrix(1 0 0 1.01076 -664.328 1283.23)"/><path d="M-90.0462-184.396-42.2412-228.548" stroke="#FFFFFF" stroke-width="4.65" stroke-linecap="round" stroke-linejoin="round" fill="none" transform="matrix(1 0 0 1.01076 -664.328 1283.23)"/><path d="M-81.6426 49.8055-61.6064 69.4097" stroke="#FFFFFF" stroke-width="4.77099" stroke-linecap="round" stroke-linejoin="round" fill="none" transform="matrix(1 0 0 1.01038 525.498 1022.52)"/><path d="M-81.6426 49.8055-61.6064 30.2014" stroke="#FFFFFF" stroke-width="4.77099" stroke-linecap="round" stroke-linejoin="round" fill="none" transform="matrix(1 0 0 1.01038 525.498 1022.52)"/><path d="M-316.247-55.4289C-316.247-41.5294-307.871-28.9985-295.025-23.6794-282.179-18.3602-267.392-21.3004-257.56-31.1289-247.728-40.9574-244.787-55.7387-250.108-68.5799-255.429-81.4215-267.748-89.7932-281.653-89.7932L-316.221-89.7916" stroke="#FFFFFF" stroke-width="4.65" fill="none" transform="matrix(1 0 0 1.01076 760.078 1163.61)"/><path d="M-760.723-433.823-849.074-433.823-803.861-471.918ZM-814.361-383.572-837.725-383.572-837.725-433.823-772.859-433.823-772.859-383.572-796.229-383.572M-814.361-383.632-814.361-407.764-814.361-407.764-796.229-407.764-796.229-383.632" stroke="#FFFFFF" stroke-width="4.65" stroke-linecap="round" stroke-linejoin="round" fill="none" transform="matrix(1 0 0 1.01076 677.608 1707.87)"/><path d="M-81.6426 49.8055-61.6064 69.4097" stroke="#FFFFFF" stroke-width="4.77099" stroke-linecap="round" stroke-linejoin="round" fill="none" transform="matrix(-1 0 0 1.01038 211.972 1005.34)"/><path d="M-81.6426 49.8055-61.6064 30.2014" stroke="#FFFFFF" stroke-width="4.77099" stroke-linecap="round" stroke-linejoin="round" fill="none" transform="matrix(-1 0 0 1.01038 211.972 1005.34)"/><path d="M-371.847-55.4289C-371.847-41.5294-380.222-28.9985-393.068-23.6794-405.915-18.3602-420.701-21.3004-430.533-31.1289-440.366-40.9574-443.307-55.7387-437.986-68.5799-432.665-81.4215-420.345-89.7932-406.441-89.7932L-371.873-89.7916" stroke="#FFFFFF" stroke-width="4.65" fill="none" transform="matrix(1 0 0 1.01076 665.484 1146.42)"/><path d="M-304.367-557.908C-304.367-533.38-324.251-513.497-348.778-513.497-373.305-513.497-393.189-533.38-393.189-557.908-393.189-582.435-373.305-602.318-348.778-602.318-324.251-602.318-304.367-582.435-304.367-557.908Z" stroke="#FFFFFF" stroke-width="4.67481" stroke-linecap="round" stroke-linejoin="round" fill="none" transform="matrix(0.703354 0.71092 -0.703354 0.71092 556.62 1130.54)"/><path d="M-318.723-557.908C-318.723-541.309-332.179-527.853-348.778-527.853-365.377-527.853-378.833-541.309-378.833-557.908-378.833-574.507-365.377-587.963-348.778-587.963-332.179-587.963-318.723-574.507-318.723-557.908Z" stroke="#FFFFFF" stroke-width="4.67481" stroke-linecap="round" stroke-linejoin="round" fill="none" transform="matrix(0.703354 0.71092 -0.703354 0.71092 556.62 1130.54)"/><path d="M168.231-616.584 178.299-606.516" stroke="#FFFFFF" stroke-width="4.65" stroke-linecap="round" stroke-linejoin="round" fill="none" transform="matrix(1 0 0 1.01076 556.62 1130.54)"/><path d="M115.885-668.927 125.953-658.859" stroke="#FFFFFF" stroke-width="4.65" stroke-linecap="round" stroke-linejoin="round" fill="none" transform="matrix(1 0 0 1.01076 556.62 1130.54)"/><path d="M125.953-616.584 115.885-606.516" stroke="#FFFFFF" stroke-width="4.65" stroke-linecap="round" stroke-linejoin="round" fill="none" transform="matrix(1 0 0 1.01076 556.62 1130.54)"/><path d="M178.299-668.927 168.231-658.859" stroke="#FFFFFF" stroke-width="4.65" stroke-linecap="round" stroke-linejoin="round" fill="none" transform="matrix(1 0 0 1.01076 556.62 1130.54)"/><path d="M242.832 348.259C242.832 357.032 235.818 364.144 227.166 364.144 218.514 364.144 211.5 357.032 211.5 348.259 211.5 339.486 218.514 332.374 227.166 332.374 235.818 332.374 242.832 339.486 242.832 348.259Z" stroke="#FFFFFF" stroke-width="4.65" stroke-linecap="round" stroke-linejoin="round" fill="none" transform="matrix(-9.61388e-05 -1.01076 1 9.1455e-05 531.252 1119.88)"/><path d="M420.671-227.137 364.137-227.139" stroke="#FFFFFF" stroke-width="4.65" stroke-linecap="round" stroke-linejoin="round" fill="none" transform="matrix(1 0 0 1.01076 531.252 1119.88)"/><path d="M392.22-214.041 392.224-227.126" stroke="#FFFFFF" stroke-width="4.65" stroke-linecap="round" stroke-linejoin="round" fill="none" transform="matrix(1 0 0 1.01076 531.252 1119.88)"/><path d="M401.223-216.308 401.226-227.14" stroke="#FFFFFF" stroke-width="4.65" stroke-linecap="round" stroke-linejoin="round" fill="none" transform="matrix(1 0 0 1.01076 531.252 1119.88)"/><path d="M410.224-214.052 410.227-227.137" stroke="#FFFFFF" stroke-width="4.65" stroke-linecap="round" stroke-linejoin="round" fill="none" transform="matrix(1 0 0 1.01076 531.252 1119.88)"/><path d="M-35.269-57.3779-23.257-27.4653 8.90342-25.2847-15.8331-4.61708-7.96894 26.6431-35.269 9.5039-62.569 26.6431-54.7047-4.61708-79.4414-25.2847-47.2811-27.4653Z" stroke="#FFFFFF" stroke-width="2.90285" stroke-linecap="round" stroke-linejoin="round" fill="none" transform="matrix(1 0 0 1.00976 1127.19 1112.37)"/><path d="M273.002 311.93C273.002 318.553 267.598 323.923 260.931 323.923 254.265 323.923 248.86 318.553 248.86 311.93 248.86 305.306 254.265 299.937 260.931 299.937 267.598 299.937 273.002 305.306 273.002 311.93Z" stroke="#FFFFFF" stroke-width="4.66203" stroke-linecap="round" stroke-linejoin="round" fill="none" transform="matrix(0.506195 -0.86867 0.868048 0.496545 676.901 929.459)"/><path d="M216.678 344.774C216.678 351.398 211.274 356.767 204.608 356.767 197.941 356.767 192.537 351.398 192.537 344.774 192.537 338.151 197.941 332.781 204.608 332.781 211.274 332.781 216.678 338.151 216.678 344.774Z" stroke="#FFFFFF" stroke-width="4.66203" stroke-linecap="round" stroke-linejoin="round" fill="none" transform="matrix(0.506195 -0.86867 0.868048 0.496545 676.901 929.459)"/><path d="M276.543 383.814C276.543 390.438 271.139 395.807 264.472 395.807 257.806 395.807 252.401 390.438 252.401 383.814 252.401 377.191 257.806 371.821 264.472 371.821 271.139 371.821 276.543 377.191 276.543 383.814Z" stroke="#FFFFFF" stroke-width="4.66203" stroke-linecap="round" stroke-linejoin="round" fill="none" transform="matrix(0.506195 -0.86867 0.868048 0.496545 676.901 929.459)"/><path d="M415.689-64.5583 454.169-45.2136" stroke="#FFFFFF" stroke-width="4.65" stroke-linecap="round" stroke-linejoin="round" fill="none" transform="matrix(1 0 0 1.01076 676.901 929.459)"/><path d="M413.673-11.9106 456.223-33.3015" stroke="#FFFFFF" stroke-width="4.65" stroke-linecap="round" stroke-linejoin="round" fill="none" transform="matrix(1 0 0 1.01076 676.901 929.459)"/><path d="M9.15853-184.396 56.9639-228.548" stroke="#FFFFFF" stroke-width="4.65" stroke-linecap="round" stroke-linejoin="round" fill="none" transform="matrix(6.12323e-17 1.01076 -1 6.1891e-17 -731.142 1063.44)"/><path d="M9.15853-184.396 56.9639-140.244" stroke="#FFFFFF" stroke-width="4.65" stroke-linecap="round" stroke-linejoin="round" fill="none" transform="matrix(6.12323e-17 1.01076 -1 6.1891e-17 -731.142 1063.44)"/><path d="M9.15853-184.396 56.9639-228.548" stroke="#FFFFFF" stroke-width="4.65" stroke-linecap="round" stroke-linejoin="round" fill="none" transform="matrix(0 -1.01076 -1 0 -547.892 1129.36)"/><path d="M9.15853-184.396 56.9639-140.244" stroke="#FFFFFF" stroke-width="4.65" stroke-linecap="round" stroke-linejoin="round" fill="none" transform="matrix(0 -1.01076 -1 0 -547.892 1129.36)"/><path d="M-90.0462-184.396-42.2412-215.772" stroke="#FFFFFF" stroke-width="4.65" stroke-linecap="round" stroke-linejoin="round" fill="none" transform="matrix(1 0 0 1.01076 160.647 1461.9)"/><path d="M-90.0462-184.396-42.2412-153.02" stroke="#FFFFFF" stroke-width="4.65" stroke-linecap="round" stroke-linejoin="round" fill="none" transform="matrix(1 0 0 1.01076 160.647 1461.9)"/><path d="M904.068-296.861 904.068-208.557" stroke="#FFFFFF" stroke-width="4.65" stroke-linecap="round" fill="none" transform="matrix(1 0 0 1.01076 -838.144 1530.95)"/><path d="M-90.0462-184.396-42.2412-215.772" stroke="#FFFFFF" stroke-width="4.65" stroke-linecap="round" stroke-linejoin="round" fill="none" transform="matrix(-1 0 0 1.01076 207.437 1461.9)"/><path d="M-90.0462-184.396-42.2412-153.02" stroke="#FFFFFF" stroke-width="4.65" stroke-linecap="round" stroke-linejoin="round" fill="none" transform="matrix(-1 0 0 1.01076 207.437 1461.9)"/><path d="M-175.154-195.637-175.154-107.332" stroke="#FFFFFF" stroke-width="4.65" stroke-linecap="round" fill="none" transform="matrix(1 0 0 1.01076 477.313 1428.64)"/><path d="M-900.113-111.705C-900.113-100.21-909.399-90.8919-920.854-90.8919-932.309-90.8919-941.595-100.21-941.595-111.705-941.595-123.2-932.309-132.518-920.854-132.518-909.399-132.518-900.113-123.2-900.113-111.705Z" stroke="#FFFFFF" stroke-width="4.65" stroke-linecap="round" stroke-linejoin="round" fill="none" transform="matrix(1 0 0 1.01076 1392.03 1364.82)"/><path d="M-964.897-44.2026-876.812-44.2026M-964.897-44.2026C-964.982-45.326-965.027-46.4523-965.027-47.5791-965.027-71.5003-945.253-90.8918-920.854-90.8918-896.455-90.8918-876.681-71.5003-876.681-47.5792L-876.681-47.5791C-876.681-46.4521-876.721-45.3255-876.812-44.2018" stroke="#FFFFFF" stroke-width="4.65" stroke-linecap="round" stroke-linejoin="round" fill="none" transform="matrix(1 0 0 1.01076 1392.03 1364.82)"/><path d="M34.1174-441.711C31.4164-451.866 22.1349-458.944 11.5195-458.944 10.6717-458.944 9.82456-458.899 8.98183-458.807M-11.0405-441.728C-11.3034-441.738-11.5664-441.743-11.8294-441.743-23.3289-441.743-32.651-432.521-32.651-421.146-32.651-416.202-31.5651-410.421-27.5926-407.69-6.17804-392.966 29.2326-392.963 50.645-407.69 54.6169-410.421 55.6991-416.202 55.6991-421.146 55.6991-432.521 46.3768-441.743 34.8774-441.743 34.6144-441.743 34.3513-441.738 34.0885-441.728M-11.0695-441.711C-8.36847-451.866 0.913071-458.944 11.5285-458.944 12.3762-458.944 13.2234-458.899 14.0661-458.807" stroke="#FFFFFF" stroke-width="4.65" stroke-linecap="round" stroke-linejoin="round" fill="none" transform="matrix(1 0 0 1.01076 677.608 1707.87)"/><path d="M-215.882-1039.45-127.532-1039.45-127.532-951.099-215.882-951.099Z" stroke="#FFFFFF" stroke-width="4.65" stroke-linecap="round" stroke-linejoin="round" fill="none" transform="matrix(1 0 0 1.01076 677.608 1707.87)"/><path d="M-259.451-100.447-246.431-100.447-246.431-87.427-259.451-87.427Z" stroke="#FFFFFF" stroke-width="4.65" stroke-linecap="round" stroke-linejoin="round" fill="none" transform="matrix(1 0 0 1.01076 731.872 782.333)"/><path d="M-232.481-100.447-219.461-100.447-219.461-87.427-232.481-87.427Z" stroke="#FFFFFF" stroke-width="4.65" stroke-linecap="round" stroke-linejoin="round" fill="none" transform="matrix(1 0 0 1.01076 731.872 782.333)"/><path d="M-205.511-100.447-192.491-100.447-192.491-87.427-205.511-87.427Z" stroke="#FFFFFF" stroke-width="4.65" stroke-linecap="round" stroke-linejoin="round" fill="none" transform="matrix(1 0 0 1.01076 731.872 782.333)"/><path d="M-259.451-71.7499-246.431-71.7499-246.431-58.7299-259.451-58.7299Z" stroke="#FFFFFF" stroke-width="4.65" stroke-linecap="round" stroke-linejoin="round" fill="none" transform="matrix(1 0 0 1.01076 731.872 782.333)"/><path d="M-232.481-71.7499-219.461-71.7499-219.461-58.7299-232.481-58.7299Z" stroke="#FFFFFF" stroke-width="4.65" stroke-linecap="round" stroke-linejoin="round" fill="none" transform="matrix(1 0 0 1.01076 731.872 782.333)"/><path d="M-205.511-71.7499-192.491-71.7499-192.491-58.7299-205.511-58.7299Z" stroke="#FFFFFF" stroke-width="4.65" stroke-linecap="round" stroke-linejoin="round" fill="none" transform="matrix(1 0 0 1.01076 731.872 782.333)"/><path d="M-215.882-1030.26-127.532-1030.26-127.532-960.29-215.882-960.29Z" stroke="#FFFFFF" stroke-width="4.65" stroke-linecap="round" stroke-linejoin="round" fill="none" transform="matrix(1 0 0 1.01076 677.608 1707.87)"/><path d="M-818.76-553.029-760.497-553.029-760.497-464.676-818.76-464.676Z" stroke="#FFFFFF" stroke-width="4.65" stroke-linecap="round" stroke-linejoin="round" stroke-miterlimit="6.2" fill="none" transform="matrix(1 0 0 1.01076 644.784 1216.21)"/><path d="M-851.911-508.851-785.609-508.851" stroke="#FFFFFF" stroke-width="4.65" stroke-linecap="round" stroke-linejoin="round" fill="none" transform="matrix(1 0 0 1.01076 644.784 1216.21)"/><path d="M-785.609-508.851-805.137-489.743" stroke="#FFFFFF" stroke-width="4.65" stroke-linecap="round" stroke-linejoin="round" fill="none" transform="matrix(1 0 0 1.01076 644.784 1216.21)"/><path d="M-785.609-508.851-805.137-527.957" stroke="#FFFFFF" stroke-width="4.65" stroke-linecap="round" stroke-linejoin="round" fill="none" transform="matrix(1 0 0 1.01076 644.784 1216.21)"/><path d="M-1248.64-1352.68-1190.38-1352.68-1190.38-1264.32-1248.64-1264.32Z" stroke="#FFFFFF" stroke-width="4.65" stroke-linecap="round" stroke-linejoin="round" stroke-miterlimit="6.2" fill="none" transform="matrix(1 0 0 1.01076 1278.21 2024.47)"/><path d="M-1215.49-1308.5-1281.8-1308.5" stroke="#FFFFFF" stroke-width="4.65" stroke-linecap="round" stroke-linejoin="round" fill="none" transform="matrix(1 0 0 1.01076 1278.21 2024.47)"/><path d="M-1281.8-1308.5-1262.27-1289.4" stroke="#FFFFFF" stroke-width="4.65" stroke-linecap="round" stroke-linejoin="round" fill="none" transform="matrix(1 0 0 1.01076 1278.21 2024.47)"/><path d="M-1281.8-1308.5-1262.27-1327.61" stroke="#FFFFFF" stroke-width="4.65" stroke-linecap="round" stroke-linejoin="round" fill="none" transform="matrix(1 0 0 1.01076 1278.21 2024.47)"/><path d="M256.287-210.523 306.029-210.523" stroke="#FFFFFF" stroke-width="4.65" stroke-linecap="round" stroke-linejoin="round" fill="none" transform="matrix(1 0 0 1.01076 611.712 1488.31)"/><path d="M256.287-240.242 306.029-240.242" stroke="#FFFFFF" stroke-width="4.65" stroke-linecap="round" stroke-linejoin="round" fill="none" transform="matrix(1 0 0 1.01076 611.712 1488.31)"/><path d="M256.287-180.804 306.029-180.804" stroke="#FFFFFF" stroke-width="4.65" stroke-linecap="round" stroke-linejoin="round" fill="none" transform="matrix(1 0 0 1.01076 611.712 1488.31)"/><path d="M248.993-240.242C248.993-238.958 247.952-237.917 246.668-237.917 245.384-237.917 244.343-238.958 244.343-240.242 244.343-241.527 245.384-242.567 246.668-242.567 247.952-242.567 248.993-241.527 248.993-240.242Z" stroke="#FFFFFF" stroke-width="4.65" stroke-linecap="round" stroke-linejoin="bevel" transform="matrix(1 0 0 1.01076 611.712 1488.31)"/><path d="M248.993-210.523C248.993-209.239 247.952-208.198 246.668-208.198 245.384-208.198 244.343-209.239 244.343-210.523 244.343-211.808 245.384-212.848 246.668-212.848 247.952-212.848 248.993-211.808 248.993-210.523Z" stroke="#FFFFFF" stroke-width="4.65" stroke-linecap="round" stroke-linejoin="bevel" transform="matrix(1 0 0 1.01076 611.712 1488.31)"/><path d="M248.993-180.804C248.993-179.52 247.952-178.479 246.668-178.479 245.384-178.479 244.343-179.52 244.343-180.804 244.343-182.088 245.384-183.129 246.668-183.129 247.952-183.129 248.993-182.088 248.993-180.804Z" stroke="#FFFFFF" stroke-width="4.65" stroke-linecap="round" stroke-linejoin="bevel" transform="matrix(1 0 0 1.01076 611.712 1488.31)"/><path d="M217.739-210.523 237.049-210.523" stroke="#FFFFFF" stroke-width="4.65" stroke-linecap="round" stroke-linejoin="round" fill="none" transform="matrix(1 0 0 1.01076 611.712 1488.31)"/><path d="M217.739-240.242 237.049-240.242" stroke="#FFFFFF" stroke-width="4.65" stroke-linecap="round" stroke-linejoin="round" fill="none" transform="matrix(1 0 0 1.01076 611.712 1488.31)"/><path d="M217.739-180.804 237.049-180.804" stroke="#FFFFFF" stroke-width="4.65" stroke-linecap="round" stroke-linejoin="round" fill="none" transform="matrix(1 0 0 1.01076 611.712 1488.31)"/><path d="M-1403.22-1019.88C-1406.75-1023.78-1410.27-1027.67-1413.79-1031.57-1419.71-1031.57-1425.63-1031.57-1431.55-1031.57M-1448.07-1019.88C-1444.55-1023.78-1441.03-1027.67-1437.51-1031.57-1431.59-1031.57-1425.67-1031.57-1419.75-1031.57M-1363.9-958.976C-1393.36-958.976-1422.81-958.976-1452.26-958.976-1452.26-979.278-1452.26-999.579-1452.26-1019.88-1422.81-1019.88-1393.36-1019.88-1363.9-1019.88-1363.9-999.579-1363.9-979.278-1363.9-958.976Z" stroke="#FFFFFF" stroke-width="4.65" stroke-linecap="round" stroke-linejoin="round" fill="none" transform="matrix(1 0 0 1.01076 677.608 1707.87)"/><path d="M373.751-1021.78 462.101-1021.78 462.101-968.766 373.751-968.766Z" stroke="#FFFFFF" stroke-width="4.65" stroke-linecap="round" stroke-linejoin="round" fill="none" transform="matrix(1 0 0 1.01076 677.608 1707.87)"/><path d="M462.101-1021.78 373.744-1021.95 417.777-982.783Z" stroke="#FFFFFF" stroke-width="4.65" stroke-linecap="round" stroke-linejoin="round" fill="none" transform="matrix(1 0 0 1.01076 677.608 1707.87)"/><path d="M403.641-995.195 373.744-968.597 462.101-968.768 432.075-995.185 417.784-982.612Z" stroke="#FFFFFF" stroke-width="4.65" stroke-linecap="round" stroke-linejoin="round" fill="none" transform="matrix(1 0 0 1.01076 677.608 1707.87)"/><path d="M-595.439-1175.78-595.439-1242.6-616.84-1242.6-616.84-1164.74-585.803-1164.74-585.803-1253.08-627.516-1253.08-627.516-1175.78" stroke="#FFFFFF" stroke-width="4.65" fill="none" transform="matrix(1 0 0 1.01076 677.608 1707.87)"/><path d="M383.34-421.803C391.509-424.779 400.119-426.301 408.793-426.301 417.466-426.301 426.075-424.779 434.244-421.804" stroke="#FFFFFF" stroke-width="4.65" stroke-linecap="round" stroke-linejoin="round" fill="none" transform="matrix(1 0 0 1.01076 662.49 1698.24)"/><path d="M373.971-438.362C385.053-442.863 396.87-445.175 408.796-445.175 420.719-445.175 432.534-442.864 443.613-438.365" stroke="#FFFFFF" stroke-width="4.65" stroke-linecap="round" stroke-linejoin="round" fill="none" transform="matrix(1 0 0 1.01076 662.49 1698.24)"/><path d="M364.648-454.856C378.605-460.923 393.618-464.049 408.786-464.049 423.959-464.049 438.975-460.921 452.936-454.851" stroke="#FFFFFF" stroke-width="4.65" stroke-linecap="round" stroke-linejoin="round" fill="none" transform="matrix(1 0 0 1.01076 662.49 1698.24)"/><path d="M418.212-400.865C418.212-395.66 413.995-391.441 408.792-391.441 403.589-391.441 399.371-395.66 399.371-400.865 399.371-406.07 403.589-410.289 408.792-410.289 413.995-410.289 418.212-406.07 418.212-400.865Z" stroke="#FFFFFF" stroke-width="4.65" stroke-linecap="round" stroke-linejoin="round" fill="none" transform="matrix(1 0 0 1.01076 662.49 1698.24)"/></g></g></g></g></svg>