<svg width="728" height="203" xmlns="http://www.w3.org/2000/svg" xmlns:xlink="http://www.w3.org/1999/xlink" xml:space="preserve" overflow="hidden"><defs><filter id="fx0" x="-10%" y="-10%" width="120%" height="120%" filterUnits="userSpaceOnUse" primitiveUnits="userSpaceOnUse"><feComponentTransfer color-interpolation-filters="sRGB"><feFuncR type="discrete" tableValues="0 0"/><feFuncG type="discrete" tableValues="0 0"/><feFuncB type="discrete" tableValues="0 0"/><feFuncA type="linear" slope="0.4" intercept="0"/></feComponentTransfer><feGaussianBlur stdDeviation="6.11111 6.11111"/></filter><filter id="fx1" x="-10%" y="-10%" width="120%" height="120%" filterUnits="userSpaceOnUse" primitiveUnits="userSpaceOnUse"><feComponentTransfer color-interpolation-filters="sRGB"><feFuncR type="discrete" tableValues="0 0"/><feFuncG type="discrete" tableValues="0 0"/><feFuncB type="discrete" tableValues="0 0"/><feFuncA type="linear" slope="0.4" intercept="0"/></feComponentTransfer><feGaussianBlur stdDeviation="6.11111 6.11111"/></filter><clipPath id="clip2"><rect x="3185" y="1511" width="728" height="203"/></clipPath><clipPath id="clip3"><rect x="35" y="25" width="520" height="89"/></clipPath></defs><g clip-path="url(#clip2)" transform="translate(-3185 -1511)"><g filter="url(#fx0)" transform="translate(3184 1510)"><g><path d="M22.5 62.3492C22.5 40.2029 40.453 22.2499 62.5992 22.2499L667.401 22.2499C689.547 22.2499 707.5 40.2029 707.5 62.3492L707.5 142.151C707.5 164.297 689.547 182.25 667.401 182.25L62.5992 182.25C40.453 182.25 22.5 164.297 22.5 142.151Z" stroke="#4663AC" stroke-width="5" stroke-miterlimit="8" fill="#4663AC" fill-rule="evenodd"/><path d="M22.5 62.3492C22.5 40.2029 40.453 22.2499 62.5992 22.2499L667.401 22.2499C689.547 22.2499 707.5 40.2029 707.5 62.3492L707.5 142.151C707.5 164.297 689.547 182.25 667.401 182.25L62.5992 182.25C40.453 182.25 22.5 164.297 22.5 142.151Z" stroke="#4663AC" stroke-width="5" stroke-miterlimit="8" fill="#4663AC" fill-rule="evenodd"/></g></g><g clip-path="url(#clip3)" filter="url(#fx1)" transform="translate(3313 1542)"><g><path d="M37.5171-20.0073C37.5171-13.5441 35.6775-8.59375 31.9983-5.15625 28.3191-1.71875 23.0062 0 16.0596 0L4.94141 0 4.94141-39.2627 17.2681-39.2627C23.6776-39.2627 28.6548-37.5708 32.1997-34.187 35.7446-30.8032 37.5171-26.0767 37.5171-20.0073ZM28.8696-19.7925C28.8696-28.2251 25.1457-32.4414 17.6978-32.4414L13.2666-32.4414 13.2666-6.875 16.8384-6.875C24.8592-6.875 28.8696-11.1808 28.8696-19.7925ZM51.4998-15.0659C51.4998-12.0939 51.9877-9.847 52.9635-8.32519 53.9392-6.80338 55.5282-6.04248 57.7303-6.04248 59.9145-6.04248 61.4856-6.79891 62.4434-8.31177 63.4013-9.82462 63.8802-12.076 63.8802-15.0659 63.8802-18.0379 63.3968-20.2669 62.43-21.7529 61.4632-23.2389 59.8787-23.9819 57.6766-23.9819 55.4923-23.9819 53.9168-23.2434 52.95-21.7664 51.9832-20.2893 51.4998-18.0558 51.4998-15.0659ZM72.2591-15.0659C72.2591-10.1782 70.97-6.35579 68.3919-3.59863 65.8138-0.841471 62.2241 0.537109 57.6229 0.537109 54.7404 0.537109 52.1981-0.0939942 49.9959-1.3562 47.7938-2.61841 46.1019-4.43115 44.9202-6.79443 43.7386-9.15771 43.1478-11.9149 43.1478-15.0659 43.1478-19.9715 44.4279-23.785 46.9881-26.5063 49.5483-29.2277 53.147-30.5884 57.784-30.5884 60.6665-30.5884 63.2088-29.9617 65.411-28.7085 67.6131-27.4552 69.305-25.6559 70.4866-23.3105 71.6683-20.9652 72.2591-18.217 72.2591-15.0659ZM103.456 0 101.147-10.5005 98.0851-23.7671 97.8434-23.7671 92.3649 0 83.5563 0 75.0163-30.0244 83.1803-30.0244 86.6447-16.731C87.0386-15.1554 87.5846-11.8701 88.2829-6.875L88.4977-6.875C88.5693-8.23568 88.8826-10.3931 89.4377-13.3472L89.8673-15.6299 93.5734-30.0244 102.597-30.0244 106.115-15.6299C106.33-14.6452 106.594-13.1995 106.907-11.2927 107.22-9.38598 107.395-7.91341 107.431-6.875L107.646-6.875C107.843-8.46842 108.12-10.2812 108.478-12.3132 108.836-14.3453 109.141-15.8179 109.391-16.731L112.99-30.0244 121.02-30.0244 112.372 0ZM153.47 0 145.279 0 145.279-17.5366C145.279-19.703 144.894-21.3277 144.124-22.4109 143.354-23.4941 142.128-24.0356 140.445-24.0356 138.153-24.0356 136.497-23.2703 135.477-21.7395 134.456-20.2087 133.946-17.6709 133.946-14.126L133.946 0 125.755 0 125.755-30.0244 132.013-30.0244 133.114-26.1841 133.57-26.1841C134.483-27.6343 135.741-28.7309 137.343-29.4739 138.946-30.2169 140.767-30.5884 142.808-30.5884 146.3-30.5884 148.949-29.644 150.758-27.7551 152.566-25.8663 153.47-23.1405 153.47-19.5776ZM170.04 0 161.849 0 161.849-41.7871 170.04-41.7871ZM184.989-15.0659C184.989-12.0939 185.477-9.847 186.453-8.32519 187.429-6.80338 189.018-6.04248 191.22-6.04248 193.404-6.04248 194.975-6.79891 195.933-8.31177 196.891-9.82462 197.37-12.076 197.37-15.0659 197.37-18.0379 196.886-20.2669 195.92-21.7529 194.953-23.2389 193.368-23.9819 191.166-23.9819 188.982-23.9819 187.406-23.2434 186.44-21.7664 185.473-20.2893 184.989-18.0558 184.989-15.0659ZM205.749-15.0659C205.749-10.1782 204.46-6.35579 201.882-3.59863 199.303-0.841471 195.714 0.537109 191.112 0.537109 188.23 0.537109 185.688-0.0939942 183.486-1.3562 181.283-2.61841 179.591-4.43115 178.41-6.79443 177.228-9.15771 176.637-11.9149 176.637-15.0659 176.637-19.9715 177.917-23.785 180.478-26.5063 183.038-29.2277 186.637-30.5884 191.274-30.5884 194.156-30.5884 196.698-29.9617 198.901-28.7085 201.103-27.4552 202.795-25.6559 203.976-23.3105 205.158-20.9652 205.749-18.217 205.749-15.0659ZM231.333 0 229.749-4.08203 229.534-4.08203C228.155-2.34538 226.736-1.14136 225.277-0.469971 223.818 0.201416 221.916 0.537109 219.57 0.537109 216.688 0.537109 214.419-0.286458 212.762-1.93359 211.106-3.58073 210.278-5.92611 210.278-8.96973 210.278-12.1566 211.393-14.5064 213.622-16.0193 215.851-17.5321 219.212-18.3691 223.706-18.5303L228.916-18.6914 228.916-20.0073C228.916-23.0509 227.358-24.5728 224.243-24.5728 221.844-24.5728 219.024-23.8477 215.784-22.3975L213.071-27.9297C216.527-29.738 220.358-30.6421 224.565-30.6421 228.594-30.6421 231.682-29.7648 233.831-28.0103 235.979-26.2557 237.053-23.5881 237.053-20.0073L237.053 0ZM228.916-13.9111 225.747-13.8037C223.366-13.7321 221.593-13.3024 220.43-12.5146 219.266-11.7269 218.684-10.5273 218.684-8.91601 218.684-6.60644 220.009-5.45166 222.659-5.45166 224.556-5.45166 226.074-5.99772 227.211-7.08984 228.348-8.18196 228.916-9.63216 228.916-11.4404ZM255.002 0.537109C251.475 0.537109 248.704-0.83252 246.69-3.57178 244.676-6.31103 243.669-10.1066 243.669-14.9585 243.669-19.882 244.694-23.7179 246.744-26.4661 248.794-29.2143 251.618-30.5884 255.216-30.5884 258.994-30.5884 261.877-29.1203 263.864-26.1841L264.132-26.1841C263.721-28.422 263.515-30.4183 263.515-32.1728L263.515-41.7871 271.733-41.7871 271.733 0 265.448 0 263.864-3.89404 263.515-3.89404C261.653-0.939941 258.815 0.537109 255.002 0.537109ZM257.875-5.98877C259.97-5.98877 261.505-6.59749 262.481-7.81494 263.457-9.03239 263.989-11.1003 264.079-14.0186L264.079-14.9048C264.079-18.1274 263.582-20.437 262.588-21.8335 261.595-23.23 259.979-23.9282 257.741-23.9282 255.915-23.9282 254.496-23.1539 253.484-21.6052 252.473-20.0566 251.967-17.8052 251.967-14.8511 251.967-11.897 252.477-9.68139 253.498-8.20434 254.518-6.72729 255.977-5.98877 257.875-5.98877ZM311.523-30.5884C312.633-30.5884 313.555-30.5078 314.29-30.3467L313.672-22.666C313.009-22.845 312.204-22.9346 311.255-22.9346 308.641-22.9346 306.604-22.2632 305.145-20.9204 303.686-19.5776 302.956-17.6978 302.957-15.2808L302.957 0 294.766 0 294.766-30.0244 300.969-30.0244 302.178-24.9756 302.581-24.9756C303.512-26.6585 304.769-28.0147 306.354-29.0442 307.938-30.0736 309.661-30.5884 311.523-30.5884ZM332.408-24.7607C330.671-24.7607 329.311-24.2102 328.326-23.1091 327.341-22.0081 326.777-20.446 326.634-18.4228L338.128-18.4228C338.092-20.446 337.564-22.0081 336.544-23.1091 335.523-24.2102 334.145-24.7607 332.408-24.7607ZM333.563 0.537109C328.729 0.537109 324.951-0.796712 322.23-3.46436 319.508-6.132 318.148-9.90967 318.148-14.7974 318.148-19.8283 319.405-23.7179 321.921-26.4661 324.436-29.2143 327.914-30.5884 332.354-30.5884 336.597-30.5884 339.901-29.3799 342.264-26.9629 344.627-24.5459 345.809-21.2069 345.809-16.9458L345.809-12.9712 326.446-12.9712C326.536-10.6437 327.225-8.8265 328.514-7.51953 329.803-6.21256 331.611-5.55908 333.939-5.55908 335.747-5.55908 337.457-5.74707 339.068-6.12305 340.68-6.49902 342.362-7.09879 344.117-7.92236L344.117-1.58447C342.685-0.868327 341.154-0.335693 339.525 0.0134277 337.895 0.362549 335.908 0.537109 333.563 0.537109ZM373.577-8.91601C373.577-5.83659 372.508-3.49121 370.368-1.87988 368.229-0.268555 365.028 0.537109 360.767 0.537109 358.583 0.537109 356.721 0.389404 355.181 0.0939941 353.642-0.201416 352.201-0.635579 350.858-1.2085L350.858-7.97607C352.38-7.25993 354.094-6.66016 356.001-6.17676 357.907-5.69336 359.586-5.45166 361.036-5.45166 364.008-5.45166 365.494-6.31103 365.494-8.02978 365.494-8.67431 365.297-9.198 364.903-9.60083 364.509-10.0037 363.829-10.4602 362.862-10.9705 361.895-11.4807 360.606-12.076 358.995-12.7563 356.685-13.7231 354.989-14.6183 353.906-15.4419 352.823-16.2655 352.035-17.2099 351.543-18.2751 351.05-19.3404 350.804-20.6519 350.804-22.2095 350.804-24.8771 351.838-26.9405 353.906-28.3997 355.974-29.8588 358.905-30.5884 362.701-30.5884 366.318-30.5884 369.836-29.8006 373.255-28.2251L370.784-22.3169C369.281-22.9614 367.875-23.4896 366.568-23.9014 365.261-24.3131 363.927-24.519 362.567-24.519 360.15-24.519 358.941-23.8656 358.941-22.5586 358.941-21.8245 359.331-21.189 360.109-20.6519 360.888-20.1147 362.594-19.318 365.225-18.2617 367.571-17.3128 369.29-16.4266 370.382-15.603 371.474-14.7795 372.279-13.8306 372.799-12.7563 373.318-11.6821 373.577-10.402 373.577-8.91601ZM401.4 0 400.299-3.84033 399.869-3.84033C398.992-2.44385 397.747-1.36515 396.136-0.604248 394.525 0.156657 392.69 0.537109 390.631 0.537109 387.104 0.537109 384.445-0.407308 382.655-2.29614 380.864-4.18498 379.969-6.90185 379.969-10.4468L379.969-30.0244 388.16-30.0244 388.16-12.4878C388.16-10.3215 388.545-8.6967 389.315-7.61352 390.085-6.53035 391.311-5.98877 392.994-5.98877 395.286-5.98877 396.942-6.75415 397.962-8.28491 398.983-9.81567 399.493-12.3535 399.493-15.8984L399.493-30.0244 407.684-30.0244 407.684 0ZM424.415 0 416.224 0 416.224-41.7871 424.415-41.7871ZM445.487-5.98877C446.92-5.98877 448.638-6.30208 450.644-6.92871L450.644-0.832519C448.603 0.0805663 446.096 0.537109 443.124 0.537109 439.848 0.537109 437.462-0.290934 435.967-1.94702 434.472-3.60311 433.725-6.08724 433.725-9.39941L433.725-23.8745 429.804-23.8745 429.804-27.3389 434.316-30.0781 436.679-36.416 441.916-36.416 441.916-30.0244 450.321-30.0244 450.321-23.8745 441.916-23.8745 441.916-9.39941C441.916-8.23568 442.242-7.3763 442.896-6.82129 443.549-6.26628 444.413-5.98877 445.487-5.98877ZM477.848-8.91601C477.848-5.83659 476.779-3.49121 474.639-1.87988 472.5-0.268555 469.299 0.537109 465.038 0.537109 462.854 0.537109 460.992 0.389404 459.452 0.0939941 457.913-0.201416 456.471-0.635579 455.129-1.2085L455.129-7.97607C456.65-7.25993 458.365-6.66016 460.271-6.17676 462.178-5.69336 463.857-5.45166 465.307-5.45166 468.279-5.45166 469.765-6.31103 469.765-8.02978 469.765-8.67431 469.568-9.198 469.174-9.60083 468.78-10.0037 468.1-10.4602 467.133-10.9705 466.166-11.4807 464.877-12.076 463.266-12.7563 460.956-13.7231 459.26-14.6183 458.177-15.4419 457.093-16.2655 456.306-17.2099 455.813-18.2751 455.321-19.3404 455.075-20.6519 455.075-22.2095 455.075-24.8771 456.109-26.9405 458.177-28.3997 460.245-29.8588 463.176-30.5884 466.972-30.5884 470.588-30.5884 474.106-29.8006 477.526-28.2251L475.055-22.3169C473.551-22.9614 472.146-23.4896 470.839-23.9014 469.532-24.3131 468.198-24.519 466.838-24.519 464.421-24.519 463.212-23.8656 463.212-22.5586 463.212-21.8245 463.601-21.189 464.38-20.6519 465.159-20.1147 466.864-19.318 469.496-18.2617 471.842-17.3128 473.56-16.4266 474.652-15.603 475.745-14.7795 476.55-13.8306 477.069-12.7563 477.589-11.6821 477.848-10.402 477.848-8.91601Z" fill="#FFFFFF" transform="matrix(1 0 0 1 53.0566 89)"/></g></g><path d="M3206.5 1558.6C3206.5 1536.45 3224.45 1518.5 3246.6 1518.5L3851.4 1518.5C3873.55 1518.5 3891.5 1536.45 3891.5 1558.6L3891.5 1638.4C3891.5 1660.55 3873.55 1678.5 3851.4 1678.5L3246.6 1678.5C3224.45 1678.5 3206.5 1660.55 3206.5 1638.4Z" stroke="#4663AC" stroke-width="4.58333" stroke-miterlimit="8" fill="#4663AC" fill-rule="evenodd"/><path d="M3206.5 1558.6C3206.5 1536.45 3224.45 1518.5 3246.6 1518.5L3851.4 1518.5C3873.55 1518.5 3891.5 1536.45 3891.5 1558.6L3891.5 1638.4C3891.5 1660.55 3873.55 1678.5 3851.4 1678.5L3246.6 1678.5C3224.45 1678.5 3206.5 1660.55 3206.5 1638.4Z" stroke="#4663AC" stroke-width="4.58333" stroke-miterlimit="8" fill="#4663AC" fill-rule="evenodd"/><text fill="#FFFFFF" font-family="Noto Sans,Noto Sans_MSFontService,sans-serif" font-weight="700" font-size="55" transform="matrix(1 0 0 1 3366.06 1617)">Download results</text><g><g><g><path d="M3293.44 1619.38 3293.44 1619.38C3293.54 1619.48 3293.65 1619.57 3293.77 1619.65L3293.94 1619.74C3294.07 1619.83 3294.22 1619.89 3294.38 1619.92L3294.56 1619.97 3294.56 1619.97C3294.84 1620.03 3295.13 1620.03 3295.41 1619.97L3295.6 1619.91 3295.82 1619.85C3295.9 1619.81 3295.97 1619.77 3296.04 1619.73L3296.2 1619.64C3296.32 1619.56 3296.43 1619.47 3296.53 1619.36L3316.3 1599.62C3317.26 1598.88 3317.43 1597.49 3316.68 1596.53 3315.94 1595.57 3314.55 1595.4 3313.59 1596.15 3313.45 1596.26 3313.32 1596.39 3313.21 1596.53L3297.2 1612.51 3297.2 1553.2C3297.2 1551.99 3296.22 1551 3295 1551 3293.78 1551 3292.8 1551.99 3292.8 1553.2L3292.8 1612.51 3276.79 1596.53C3275.83 1595.78 3274.45 1595.96 3273.7 1596.92 3273.08 1597.71 3273.08 1598.83 3273.7 1599.62Z" fill="#FFFFFF"/><path d="M3339.8 1615.62C3338.58 1615.62 3337.59 1616.61 3337.59 1617.83L3337.59 1633.98C3337.59 1637.63 3334.63 1640.59 3330.98 1640.59L3259.02 1640.59C3255.37 1640.59 3252.41 1637.63 3252.41 1633.98L3252.41 1617.83C3252.41 1616.61 3251.42 1615.62 3250.2 1615.62 3248.99 1615.62 3248 1616.61 3248 1617.83L3248 1633.98C3248 1640.07 3252.93 1645 3259.02 1645L3330.98 1645C3337.07 1645 3342 1640.07 3342 1633.98L3342 1617.83C3342 1616.61 3341.01 1615.62 3339.8 1615.62Z" fill="#FFFFFF"/></g></g></g></g></svg>