<svg width="1037" height="203" xmlns="http://www.w3.org/2000/svg" xmlns:xlink="http://www.w3.org/1999/xlink" xml:space="preserve" overflow="hidden"><defs><filter id="fx0" x="-10%" y="-10%" width="120%" height="120%" filterUnits="userSpaceOnUse" primitiveUnits="userSpaceOnUse"><feComponentTransfer color-interpolation-filters="sRGB"><feFuncR type="discrete" tableValues="0 0"/><feFuncG type="discrete" tableValues="0 0"/><feFuncB type="discrete" tableValues="0 0"/><feFuncA type="linear" slope="0.4" intercept="0"/></feComponentTransfer><feGaussianBlur stdDeviation="6.11111 6.11111"/></filter><filter id="fx1" x="-10%" y="-10%" width="120%" height="120%" filterUnits="userSpaceOnUse" primitiveUnits="userSpaceOnUse"><feComponentTransfer color-interpolation-filters="sRGB"><feFuncR type="discrete" tableValues="0 0"/><feFuncG type="discrete" tableValues="0 0"/><feFuncB type="discrete" tableValues="0 0"/><feFuncA type="linear" slope="0.4" intercept="0"/></feComponentTransfer><feGaussianBlur stdDeviation="6.11111 6.11111"/></filter><clipPath id="clip2"><rect x="3149" y="1510" width="1037" height="203"/></clipPath><clipPath id="clip3"><rect x="32" y="25" width="815" height="100"/></clipPath></defs><g clip-path="url(#clip2)" transform="translate(-3149 -1510)"><g filter="url(#fx0)" transform="translate(3148 1509)"><g><path d="M22.5 62.3495C22.5 40.2032 40.453 22.2501 62.5992 22.2501L976.401 22.2501C998.547 22.2501 1016.5 40.2032 1016.5 62.3495L1016.5 142.151C1016.5 164.297 998.547 182.25 976.401 182.25L62.5992 182.25C40.453 182.25 22.5 164.297 22.5 142.151Z" stroke="#4663AC" stroke-width="5" stroke-miterlimit="8" fill="#4663AC" fill-rule="evenodd"/><path d="M22.5 62.3495C22.5 40.2032 40.453 22.2501 62.5992 22.2501L976.401 22.2501C998.547 22.2501 1016.5 40.2032 1016.5 62.3495L1016.5 142.151C1016.5 164.297 998.547 182.25 976.401 182.25L62.5992 182.25C40.453 182.25 22.5 164.297 22.5 142.151Z" stroke="#4663AC" stroke-width="5" stroke-miterlimit="8" fill="#4663AC" fill-rule="evenodd"/></g></g><g clip-path="url(#clip3)" filter="url(#fx1)" transform="translate(3292 1541)"><g><path d="M40.5786-19.6851C40.5786-13.186 38.9673-8.19092 35.7446-4.69971 32.522-1.2085 27.9028 0.537109 21.8872 0.537109 15.8716 0.537109 11.2524-1.2085 8.02978-4.69971 4.80713-8.19092 3.1958-13.2039 3.1958-19.7388 3.1958-26.2736 4.8116-31.2642 8.04321-34.7107 11.2748-38.1571 15.9074-39.8804 21.9409-39.8804 27.9744-39.8804 32.5891-38.1437 35.7849-34.6704 38.9807-31.1971 40.5786-26.202 40.5786-19.6851ZM11.9238-19.6851C11.9238-15.2987 12.7563-11.9954 14.4214-9.77539 16.0864-7.55534 18.575-6.44531 21.8872-6.44531 28.5295-6.44531 31.8506-10.8586 31.8506-19.6851 31.8506-28.5295 28.5474-32.9517 21.9409-32.9517 18.6287-32.9517 16.1312-31.8372 14.4482-29.6082 12.7653-27.3791 11.9238-24.0714 11.9238-19.6851ZM64.3278 0.537109C60.8008 0.537109 58.0347-0.743001 56.0295-3.30322L55.5998-3.30322C55.8862-0.796712 56.0295 0.653483 56.0295 1.04736L56.0295 13.2129 47.8385 13.2129 47.8385-30.0244 54.4987-30.0244 55.6535-26.1304 56.0295-26.1304C57.9451-29.1024 60.7829-30.5884 64.5426-30.5884 68.0876-30.5884 70.8626-29.2187 72.8678-26.4795 74.873-23.7402 75.8756-19.9357 75.8756-15.0659 75.8756-11.8612 75.4057-9.07715 74.4657-6.71387 73.5258-4.35059 72.1875-2.55127 70.4508-1.31592 68.7142-0.0805664 66.6732 0.537109 64.3278 0.537109ZM61.9108-24.0356C59.8877-24.0356 58.4106-23.4135 57.4797-22.1692 56.5487-20.9249 56.0653-18.8704 56.0295-16.0059L56.0295-15.1196C56.0295-11.897 56.5084-9.5874 57.4662-8.19092 58.4241-6.79443 59.9414-6.09619 62.0182-6.09619 65.6885-6.09619 67.5236-9.12191 67.5236-15.1733 67.5236-18.1274 67.0715-20.343 66.1674-21.8201 65.2633-23.2971 63.8444-24.0356 61.9108-24.0356ZM95.4354-5.98877C96.8677-5.98877 98.5864-6.30208 100.592-6.92871L100.592-0.832519C98.5506 0.0805663 96.0441 0.537109 93.0721 0.537109 89.7957 0.537109 87.4101-0.290934 85.9151-1.94702 84.4202-3.60311 83.6727-6.08724 83.6727-9.39941L83.6727-23.8745 79.7518-23.8745 79.7518-27.3389 84.2635-30.0781 86.6268-36.416 91.8636-36.416 91.8636-30.0244 100.269-30.0244 100.269-23.8745 91.8636-23.8745 91.8636-9.39941C91.8636-8.23568 92.1903-7.3763 92.8438-6.82129 93.4973-6.26628 94.3612-5.98877 95.4354-5.98877ZM106.5-37.7856C106.5-40.4533 107.986-41.7871 110.958-41.7871 113.93-41.7871 115.416-40.4533 115.416-37.7856 115.416-36.5145 115.044-35.5253 114.301-34.8181 113.558-34.1109 112.444-33.7573 110.958-33.7573 107.986-33.7573 106.5-35.1001 106.5-37.7856ZM115.04 0 106.849 0 106.849-30.0244 115.04-30.0244ZM150.346 0 142.155 0 142.155-17.5366C142.155-19.703 141.792-21.3277 141.067-22.4109 140.342-23.4941 139.201-24.0356 137.643-24.0356 135.548-24.0356 134.027-23.2658 133.078-21.7261 132.129-20.1864 131.654-17.653 131.654-14.126L131.654 0 123.464 0 123.464-30.0244 129.721-30.0244 130.822-26.1841 131.278-26.1841C132.084-27.5627 133.248-28.6414 134.77-29.4202 136.291-30.199 138.037-30.5884 140.007-30.5884 144.5-30.5884 147.544-29.1203 149.137-26.1841L149.862-26.1841C150.668-27.5806 151.854-28.6637 153.421-29.4336 154.987-30.2034 156.755-30.5884 158.725-30.5884 162.126-30.5884 164.7-29.7156 166.446-27.97 168.191-26.2244 169.064-23.4269 169.064-19.5776L169.064 0 160.846 0 160.846-17.5366C160.846-19.703 160.484-21.3277 159.759-22.4109 159.034-23.4941 157.892-24.0356 156.335-24.0356 154.329-24.0356 152.83-23.3195 151.836-21.8872 150.843-20.4549 150.346-18.1812 150.346-15.0659ZM176.969-37.7856C176.969-40.4533 178.455-41.7871 181.427-41.7871 184.399-41.7871 185.885-40.4533 185.885-37.7856 185.885-36.5145 185.513-35.5253 184.77-34.8181 184.027-34.1109 182.913-33.7573 181.427-33.7573 178.455-33.7573 176.969-35.1001 176.969-37.7856ZM185.509 0 177.318 0 177.318-30.0244 185.509-30.0244ZM214.826 0 191.112 0 191.112-4.83398 205.024-23.7671 191.945-23.7671 191.945-30.0244 214.342-30.0244 214.342-24.707 200.807-6.25732 214.826-6.25732ZM233.293-24.7607C231.557-24.7607 230.196-24.2102 229.211-23.1091 228.227-22.0081 227.663-20.446 227.52-18.4228L239.014-18.4228C238.978-20.446 238.45-22.0081 237.429-23.1091 236.409-24.2102 235.03-24.7607 233.293-24.7607ZM234.448 0.537109C229.614 0.537109 225.837-0.796712 223.115-3.46436 220.394-6.132 219.033-9.90967 219.033-14.7974 219.033-19.8283 220.291-23.7179 222.806-26.4661 225.322-29.2143 228.8-30.5884 233.24-30.5884 237.483-30.5884 240.786-29.3799 243.149-26.9629 245.513-24.5459 246.694-21.2069 246.694-16.9458L246.694-12.9712 227.332-12.9712C227.421-10.6437 228.11-8.8265 229.399-7.51953 230.688-6.21256 232.497-5.55908 234.824-5.55908 236.632-5.55908 238.342-5.74707 239.954-6.12305 241.565-6.49902 243.248-7.09879 245.002-7.92236L245.002-1.58447C243.57-0.868327 242.039-0.335693 240.41 0.0134277 238.781 0.362549 236.794 0.537109 234.448 0.537109Z" fill="#FFFFFF" transform="matrix(1 0 0 1 53.0471 89)"/><path d="M37.1143 0 28.8159 0 28.8159-16.9458 13.2666-16.9458 13.2666 0 4.94141 0 4.94141-39.2627 13.2666-39.2627 13.2666-23.8745 28.8159-23.8745 28.8159-39.2627 37.1143-39.2627ZM41.8229-30.0244 50.7926-30.0244 56.4591-13.1323C56.9425-11.6642 57.2738-9.92757 57.4528-7.92236L57.6139-7.92236C57.8109-9.76644 58.1958-11.5031 58.7687-13.1323L64.3278-30.0244 73.1095-30.0244 60.4069 3.84033C59.2432 6.97347 57.5826 9.31885 55.4252 10.8765 53.2678 12.4341 50.7479 13.2129 47.8654 13.2129 46.451 13.2129 45.0635 13.0607 43.7028 12.7563L43.7028 6.25732C44.6875 6.49007 45.7617 6.60644 46.9255 6.60644 48.3756 6.60644 49.6423 6.16333 50.7255 5.2771 51.8087 4.39087 52.6546 3.05257 53.2633 1.26221L53.7467-0.214844ZM87.137 0.537109C83.61 0.537109 80.8394-0.83252 78.8253-3.57178 76.8111-6.31103 75.804-10.1066 75.804-14.9585 75.804-19.882 76.829-23.7179 78.879-26.4661 80.9289-29.2143 83.7533-30.5884 87.3519-30.5884 91.1295-30.5884 94.012-29.1203 95.9993-26.1841L96.2679-26.1841C95.8561-28.422 95.6502-30.4183 95.6502-32.1728L95.6502-41.7871 103.868-41.7871 103.868 0 97.5838 0 95.9993-3.89404 95.6502-3.89404C93.7882-0.939941 90.9505 0.537109 87.137 0.537109ZM90.0106-5.98877C92.1053-5.98877 93.6405-6.59749 94.6163-7.81494 95.592-9.03239 96.1247-11.1003 96.2142-14.0186L96.2142-14.9048C96.2142-18.1274 95.7174-20.437 94.7237-21.8335 93.7301-23.23 92.1143-23.9282 89.8763-23.9282 88.0501-23.9282 86.6313-23.1539 85.6197-21.6052 84.6081-20.0566 84.1024-17.8052 84.1024-14.8511 84.1024-11.897 84.6126-9.68139 85.6331-8.20434 86.6536-6.72729 88.1128-5.98877 90.0106-5.98877ZM129.336-30.5884C130.446-30.5884 131.368-30.5078 132.102-30.3467L131.484-22.666C130.822-22.845 130.016-22.9346 129.067-22.9346 126.453-22.9346 124.417-22.2632 122.958-20.9204 121.499-19.5776 120.769-17.6978 120.769-15.2808L120.769 0 112.578 0 112.578-30.0244 118.782-30.0244 119.99-24.9756 120.393-24.9756C121.324-26.6585 122.582-28.0147 124.166-29.0442 125.751-30.0736 127.474-30.5884 129.336-30.5884ZM144.312-15.0659C144.312-12.0939 144.8-9.847 145.776-8.32519 146.752-6.80338 148.341-6.04248 150.543-6.04248 152.727-6.04248 154.298-6.79891 155.256-8.31177 156.214-9.82462 156.693-12.076 156.693-15.0659 156.693-18.0379 156.209-20.2669 155.243-21.7529 154.276-23.2389 152.691-23.9819 150.489-23.9819 148.305-23.9819 146.729-23.2434 145.763-21.7664 144.796-20.2893 144.312-18.0558 144.312-15.0659ZM165.072-15.0659C165.072-10.1782 163.783-6.35579 161.204-3.59863 158.626-0.841471 155.037 0.537109 150.435 0.537109 147.553 0.537109 145.011-0.0939942 142.808-1.3562 140.606-2.61841 138.914-4.43115 137.733-6.79443 136.551-9.15771 135.96-11.9149 135.96-15.0659 135.96-19.9715 137.24-23.785 139.801-26.5063 142.361-29.2277 145.959-30.5884 150.597-30.5884 153.479-30.5884 156.021-29.9617 158.223-28.7085 160.426-27.4552 162.117-25.6559 163.299-23.3105 164.481-20.9652 165.072-18.217 165.072-15.0659Z" fill="#FFFFFF" transform="matrix(1 0 0 1 316.589 89)"/><path d="M2.84668-12.998 2.84668-19.7119 17.2681-19.7119 17.2681-12.998Z" fill="#FFFFFF" transform="matrix(1 0 0 1 483.88 89)"/><path d="M20.7861 0.537109C17.2591 0.537109 14.493-0.743001 12.4878-3.30322L12.0581-3.30322C12.3446-0.796712 12.4878 0.653483 12.4878 1.04736L12.4878 13.2129 4.29687 13.2129 4.29687-30.0244 10.957-30.0244 12.1118-26.1304 12.4878-26.1304C14.4035-29.1024 17.2412-30.5884 21.001-30.5884 24.5459-30.5884 27.321-29.2187 29.3262-26.4795 31.3314-23.7402 32.334-19.9357 32.334-15.0659 32.334-11.8612 31.864-9.07715 30.9241-6.71387 29.9841-4.35059 28.6458-2.55127 26.9092-1.31592 25.1725-0.0805664 23.1315 0.537109 20.7861 0.537109ZM18.3691-24.0356C16.346-24.0356 14.869-23.4135 13.938-22.1692 13.007-20.9249 12.5236-18.8704 12.4878-16.0059L12.4878-15.1196C12.4878-11.897 12.9667-9.5874 13.9246-8.19092 14.8824-6.79443 16.3997-6.09619 18.4766-6.09619 22.1468-6.09619 23.9819-9.12191 23.9819-15.1733 23.9819-18.1274 23.5299-20.343 22.6257-21.8201 21.7216-23.2971 20.3027-24.0356 18.3691-24.0356Z" fill="#FFFFFF" transform="matrix(1 0 0 1 503.933 89)"/><path d="M23.3643 0 21.7798-4.08203 21.5649-4.08203C20.1864-2.34538 18.7675-1.14136 17.3083-0.469971 15.8492 0.201416 13.9469 0.537109 11.6016 0.537109 8.71907 0.537109 6.44979-0.286458 4.7937-1.93359 3.13761-3.58073 2.30957-5.92611 2.30957-8.96973 2.30957-12.1566 3.42407-14.5064 5.65308-16.0193 7.88208-17.5321 11.2435-18.3691 15.7373-18.5303L20.9473-18.6914 20.9473-20.0073C20.9473-23.0509 19.3896-24.5728 16.2744-24.5728 13.8753-24.5728 11.0555-23.8477 7.81494-22.3975L5.10254-27.9297C8.55794-29.738 12.3893-30.6421 16.5967-30.6421 20.625-30.6421 23.7134-29.7648 25.8618-28.0103 28.0103-26.2557 29.0845-23.5881 29.0845-20.0073L29.0845 0ZM20.9473-13.9111 17.7783-13.8037C15.3971-13.7321 13.6247-13.3024 12.4609-12.5146 11.2972-11.7269 10.7153-10.5273 10.7153-8.91601 10.7153-6.60644 12.0402-5.45166 14.6899-5.45166 16.5877-5.45166 18.1051-5.99772 19.2419-7.08984 20.3788-8.18196 20.9473-9.63216 20.9473-11.4404ZM54.2839-30.5884C55.3939-30.5884 56.3159-30.5078 57.05-30.3467L56.4323-22.666C55.7699-22.845 54.9642-22.9346 54.0153-22.9346 51.4014-22.9346 49.3648-22.2632 47.9057-20.9204 46.4465-19.5776 45.717-17.6978 45.717-15.2808L45.717 0 37.526 0 37.526-30.0244 43.7297-30.0244 44.9381-24.9756 45.341-24.9756C46.272-26.6585 47.5297-28.0147 49.1142-29.0442 50.6986-30.0736 52.4219-30.5884 54.2839-30.5884ZM81.8018 0 80.2173-4.08203 80.0024-4.08203C78.6238-2.34538 77.205-1.14136 75.7458-0.469971 74.2867 0.201416 72.3844 0.537109 70.0391 0.537109 67.1566 0.537109 64.8873-0.286458 63.2312-1.93359 61.5751-3.58073 60.7471-5.92611 60.7471-8.96973 60.7471-12.1566 61.8616-14.5064 64.0906-16.0193 66.3196-17.5321 69.681-18.3691 74.1748-18.5303L79.3848-18.6914 79.3848-20.0073C79.3848-23.0509 77.8271-24.5728 74.7119-24.5728 72.3128-24.5728 69.493-23.8477 66.2524-22.3975L63.54-27.9297C66.9954-29.738 70.8268-30.6421 75.0342-30.6421 79.0625-30.6421 82.1509-29.7648 84.2993-28.0103 86.4477-26.2557 87.522-23.5881 87.522-20.0073L87.522 0ZM79.3848-13.9111 76.2158-13.8037C73.8346-13.7321 72.0622-13.3024 70.8984-12.5146 69.7347-11.7269 69.1528-10.5273 69.1528-8.91601 69.1528-6.60644 70.4777-5.45166 73.1274-5.45166 75.0252-5.45166 76.5426-5.99772 77.6794-7.08984 78.8163-8.18196 79.3848-9.63216 79.3848-11.4404ZM122.846 0 114.655 0 114.655-17.5366C114.655-19.703 114.292-21.3277 113.567-22.4109 112.842-23.4941 111.701-24.0356 110.143-24.0356 108.048-24.0356 106.527-23.2658 105.578-21.7261 104.629-20.1864 104.154-17.653 104.154-14.126L104.154 0 95.9635 0 95.9635-30.0244 102.221-30.0244 103.322-26.1841 103.778-26.1841C104.584-27.5627 105.748-28.6414 107.27-29.4202 108.791-30.199 110.537-30.5884 112.507-30.5884 117-30.5884 120.044-29.1203 121.637-26.1841L122.362-26.1841C123.168-27.5806 124.354-28.6637 125.921-29.4336 127.487-30.2034 129.255-30.5884 131.225-30.5884 134.626-30.5884 137.2-29.7156 138.946-27.97 140.691-26.2244 141.564-23.4269 141.564-19.5776L141.564 0 133.346 0 133.346-17.5366C133.346-19.703 132.984-21.3277 132.259-22.4109 131.534-23.4941 130.392-24.0356 128.835-24.0356 126.829-24.0356 125.33-23.3195 124.336-21.8872 123.343-20.4549 122.846-18.1812 122.846-15.0659ZM162.252-24.7607C160.515-24.7607 159.154-24.2102 158.17-23.1091 157.185-22.0081 156.621-20.446 156.478-18.4228L167.972-18.4228C167.936-20.446 167.408-22.0081 166.388-23.1091 165.367-24.2102 163.988-24.7607 162.252-24.7607ZM163.407 0.537109C158.573 0.537109 154.795-0.796712 152.074-3.46436 149.352-6.132 147.992-9.90967 147.992-14.7974 147.992-19.8283 149.249-23.7179 151.765-26.4661 154.28-29.2143 157.758-30.5884 162.198-30.5884 166.441-30.5884 169.744-29.3799 172.108-26.9629 174.471-24.5459 175.653-21.2069 175.653-16.9458L175.653-12.9712 156.29-12.9712C156.379-10.6437 157.069-8.8265 158.358-7.51953 159.647-6.21256 161.455-5.55908 163.783-5.55908 165.591-5.55908 167.301-5.74707 168.912-6.12305 170.523-6.49902 172.206-7.09879 173.961-7.92236L173.961-1.58447C172.528-0.868327 170.998-0.335693 169.368 0.0134277 167.739 0.362549 165.752 0.537109 163.407 0.537109ZM195.123-5.98877C196.555-5.98877 198.274-6.30208 200.279-6.92871L200.279-0.832519C198.238 0.0805663 195.732 0.537109 192.76 0.537109 189.483 0.537109 187.098-0.290934 185.603-1.94702 184.108-3.60311 183.36-6.08724 183.36-9.39941L183.36-23.8745 179.439-23.8745 179.439-27.3389 183.951-30.0781 186.314-36.416 191.551-36.416 191.551-30.0244 199.957-30.0244 199.957-23.8745 191.551-23.8745 191.551-9.39941C191.551-8.23568 191.878-7.3763 192.531-6.82129 193.185-6.26628 194.049-5.98877 195.123-5.98877ZM218.971-24.7607C217.234-24.7607 215.873-24.2102 214.888-23.1091 213.904-22.0081 213.34-20.446 213.197-18.4228L224.691-18.4228C224.655-20.446 224.127-22.0081 223.106-23.1091 222.086-24.2102 220.707-24.7607 218.971-24.7607ZM220.125 0.537109C215.291 0.537109 211.514-0.796712 208.792-3.46436 206.071-6.132 204.71-9.90967 204.71-14.7974 204.71-19.8283 205.968-23.7179 208.483-26.4661 210.999-29.2143 214.477-30.5884 218.917-30.5884 223.16-30.5884 226.463-29.3799 228.826-26.9629 231.19-24.5459 232.371-21.2069 232.371-16.9458L232.371-12.9712 213.009-12.9712C213.098-10.6437 213.787-8.8265 215.076-7.51953 216.366-6.21256 218.174-5.55908 220.501-5.55908 222.31-5.55908 224.019-5.74707 225.631-6.12305 227.242-6.49902 228.925-7.09879 230.68-7.92236L230.68-1.58447C229.247-0.868327 227.716-0.335693 226.087 0.0134277 224.458 0.362549 222.471 0.537109 220.125 0.537109ZM255.951-30.5884C257.061-30.5884 257.983-30.5078 258.717-30.3467L258.099-22.666C257.436-22.845 256.631-22.9346 255.682-22.9346 253.068-22.9346 251.031-22.2632 249.572-20.9204 248.113-19.5776 247.384-17.6978 247.384-15.2808L247.384 0 239.193 0 239.193-30.0244 245.396-30.0244 246.605-24.9756 247.008-24.9756C247.939-26.6585 249.196-28.0147 250.781-29.0442 252.365-30.0736 254.089-30.5884 255.951-30.5884ZM285.348-8.91601C285.348-5.83659 284.279-3.49121 282.139-1.87988 280-0.268555 276.799 0.537109 272.538 0.537109 270.354 0.537109 268.492 0.389404 266.952 0.0939941 265.413-0.201416 263.971-0.635579 262.629-1.2085L262.629-7.97607C264.15-7.25993 265.865-6.66016 267.771-6.17676 269.678-5.69336 271.357-5.45166 272.807-5.45166 275.779-5.45166 277.265-6.31103 277.265-8.02978 277.265-8.67431 277.068-9.198 276.674-9.60083 276.28-10.0037 275.6-10.4602 274.633-10.9705 273.666-11.4807 272.377-12.076 270.766-12.7563 268.456-13.7231 266.76-14.6183 265.677-15.4419 264.593-16.2655 263.806-17.2099 263.313-18.2751 262.821-19.3404 262.575-20.6519 262.575-22.2095 262.575-24.8771 263.609-26.9405 265.677-28.3997 267.745-29.8588 270.676-30.5884 274.472-30.5884 278.088-30.5884 281.606-29.8006 285.026-28.2251L282.555-22.3169C281.051-22.9614 279.646-23.4896 278.339-23.9014 277.032-24.3131 275.698-24.519 274.338-24.519 271.921-24.519 270.712-23.8656 270.712-22.5586 270.712-21.8245 271.101-21.189 271.88-20.6519 272.659-20.1147 274.364-19.318 276.996-18.2617 279.342-17.3128 281.06-16.4266 282.152-15.603 283.245-14.7795 284.05-13.8306 284.569-12.7563 285.089-11.6821 285.348-10.402 285.348-8.91601Z" fill="#FFFFFF" transform="matrix(1 0 0 1 538.88 89)"/></g></g><path d="M3170.5 1557.6C3170.5 1535.45 3188.45 1517.5 3210.6 1517.5L4124.4 1517.5C4146.55 1517.5 4164.5 1535.45 4164.5 1557.6L4164.5 1637.4C4164.5 1659.55 4146.55 1677.5 4124.4 1677.5L3210.6 1677.5C3188.45 1677.5 3170.5 1659.55 3170.5 1637.4Z" stroke="#4663AC" stroke-width="4.58333" stroke-miterlimit="8" fill="#4663AC" fill-rule="evenodd"/><path d="M3170.5 1557.6C3170.5 1535.45 3188.45 1517.5 3210.6 1517.5L4124.4 1517.5C4146.55 1517.5 4164.5 1535.45 4164.5 1557.6L4164.5 1637.4C4164.5 1659.55 4146.55 1677.5 4124.4 1677.5L3210.6 1677.5C3188.45 1677.5 3170.5 1659.55 3170.5 1637.4Z" stroke="#4663AC" stroke-width="4.58333" stroke-miterlimit="8" fill="#4663AC" fill-rule="evenodd"/><text fill="#FFFFFF" font-family="Noto Sans,Noto Sans_MSFontService,sans-serif" font-weight="700" font-size="55" transform="matrix(1 0 0 1 3345.05 1616)">Optimize </text><text fill="#FFFFFF" font-family="Noto Sans,Noto Sans_MSFontService,sans-serif" font-weight="700" font-size="55" transform="matrix(1 0 0 1 3608.59 1616)">Hydro</text><text fill="#FFFFFF" font-family="Noto Sans,Noto Sans_MSFontService,sans-serif" font-weight="700" font-size="55" transform="matrix(1 0 0 1 3775.88 1616)">-</text><text fill="#FFFFFF" font-family="Noto Sans,Noto Sans_MSFontService,sans-serif" font-weight="700" font-size="55" transform="matrix(1 0 0 1 3795.93 1616)">p</text><text fill="#FFFFFF" font-family="Noto Sans,Noto Sans_MSFontService,sans-serif" font-weight="700" font-size="55" transform="matrix(1 0 0 1 3830.88 1616)">arameters</text><g><g><g><path d="M3272.5 1551.48C3278.58 1551.48 3284.47 1552.67 3290.02 1555.02 3295.38 1557.29 3300.2 1560.53 3304.33 1564.67 3308.47 1568.8 3311.71 1573.62 3313.98 1578.98 3316.33 1584.53 3317.52 1590.42 3317.52 1596.5 3317.52 1602.58 3316.33 1608.47 3313.98 1614.02 3311.71 1619.38 3308.47 1624.2 3304.33 1628.33 3300.2 1632.47 3295.38 1635.71 3290.02 1637.98 3284.47 1640.33 3278.58 1641.52 3272.5 1641.52 3266.42 1641.52 3260.53 1640.33 3254.98 1637.98 3249.62 1635.71 3244.8 1632.47 3240.67 1628.33 3236.53 1624.2 3233.29 1619.38 3231.02 1614.02 3228.67 1608.47 3227.48 1602.58 3227.48 1596.5 3227.48 1590.42 3228.67 1584.53 3231.02 1578.98 3233.29 1573.62 3236.53 1568.8 3240.67 1564.67 3244.8 1560.53 3249.62 1557.29 3254.98 1555.02 3260.53 1552.67 3266.42 1551.48 3272.5 1551.48M3272.5 1547.83C3245.62 1547.83 3223.83 1569.62 3223.83 1596.5 3223.83 1623.38 3245.62 1645.17 3272.5 1645.17 3299.38 1645.17 3321.17 1623.38 3321.17 1596.5 3321.17 1569.62 3299.38 1547.83 3272.5 1547.83L3272.5 1547.83Z" fill="#FFFFFF"/><path d="M3262.22 1618.21C3261.93 1618.21 3261.64 1618.14 3261.38 1618.01 3260.77 1617.69 3260.39 1617.07 3260.39 1616.38L3260.39 1576.62C3260.39 1575.93 3260.77 1575.31 3261.38 1574.99 3261.99 1574.68 3262.72 1574.73 3263.28 1575.13L3291.16 1595.01C3291.64 1595.35 3291.92 1595.91 3291.92 1596.5 3291.92 1597.09 3291.64 1597.65 3291.16 1597.99L3263.28 1617.87C3262.96 1618.09 3262.59 1618.21 3262.22 1618.21ZM3264.04 1580.17 3264.04 1612.83 3286.95 1596.5 3264.04 1580.17Z" fill="#FFFFFF"/></g></g></g></g></svg>