<svg width="734" height="204" xmlns="http://www.w3.org/2000/svg" xmlns:xlink="http://www.w3.org/1999/xlink" xml:space="preserve" overflow="hidden"><defs><filter id="fx0" x="-10%" y="-10%" width="120%" height="120%" filterUnits="userSpaceOnUse" primitiveUnits="userSpaceOnUse"><feComponentTransfer color-interpolation-filters="sRGB"><feFuncR type="discrete" tableValues="0 0"/><feFuncG type="discrete" tableValues="0 0"/><feFuncB type="discrete" tableValues="0 0"/><feFuncA type="linear" slope="0.4" intercept="0"/></feComponentTransfer><feGaussianBlur stdDeviation="6.11111 6.11111"/></filter><filter id="fx1" x="-10%" y="-10%" width="120%" height="120%" filterUnits="userSpaceOnUse" primitiveUnits="userSpaceOnUse"><feComponentTransfer color-interpolation-filters="sRGB"><feFuncR type="discrete" tableValues="0 0"/><feFuncG type="discrete" tableValues="0 0"/><feFuncB type="discrete" tableValues="0 0"/><feFuncA type="linear" slope="0.4" intercept="0"/></feComponentTransfer><feGaussianBlur stdDeviation="6.11111 6.11111"/></filter><clipPath id="clip2"><rect x="3300" y="1043" width="734" height="204"/></clipPath><clipPath id="clip3"><rect x="35" y="22" width="503" height="89"/></clipPath></defs><g clip-path="url(#clip2)" transform="translate(-3300 -1043)"><g filter="url(#fx0)" transform="translate(3299 1042)"><g><path d="M22.5002 62.5999C22.5002 40.3153 40.5655 22.25 62.8501 22.25L673.15 22.25C695.435 22.25 713.5 40.3153 713.5 62.5999L713.5 142.9C713.5 165.185 695.435 183.25 673.15 183.25L62.8501 183.25C40.5655 183.25 22.5002 165.185 22.5002 142.9Z" stroke="#4663AC" stroke-width="5" stroke-miterlimit="8" fill="#4663AC" fill-rule="evenodd"/><path d="M22.5002 62.5999C22.5002 40.3153 40.5655 22.25 62.8501 22.25L673.15 22.25C695.435 22.25 713.5 40.3153 713.5 62.5999L713.5 142.9C713.5 165.185 695.435 183.25 673.15 183.25L62.8501 183.25C40.5655 183.25 22.5002 165.185 22.5002 142.9Z" stroke="#4663AC" stroke-width="5" stroke-miterlimit="8" fill="#4663AC" fill-rule="evenodd"/></g></g><g clip-path="url(#clip3)" filter="url(#fx1)" transform="translate(3449 1075)"><g><path d="M13.2666-21.8335 15.9521-21.8335C18.584-21.8335 20.5265-22.2721 21.7798-23.1494 23.033-24.0267 23.6597-25.4053 23.6597-27.2852 23.6597-29.1471 23.0196-30.472 21.7395-31.2598 20.4594-32.0475 18.4766-32.4414 15.791-32.4414L13.2666-32.4414ZM13.2666-15.0659 13.2666 0 4.94141 0 4.94141-39.2627 16.3818-39.2627C21.7171-39.2627 25.6649-38.2914 28.2251-36.3489 30.7853-34.4063 32.0654-31.4567 32.0654-27.5 32.0654-25.1904 31.4298-23.136 30.1587-21.3367 28.8875-19.5373 27.0882-18.1274 24.7607-17.1069L36.3086 0 27.0703 0 17.6978-15.0659ZM61.6601 0 60.5591-3.84033 60.1294-3.84033C59.2521-2.44385 58.0078-1.36515 56.3965-0.604248 54.7851 0.156657 52.95 0.537109 50.8911 0.537109 47.3641 0.537109 44.7054-0.407308 42.915-2.29614 41.1247-4.18498 40.2295-6.90185 40.2295-10.4468L40.2295-30.0244 48.4204-30.0244 48.4204-12.4878C48.4204-10.3215 48.8053-8.6967 49.5752-7.61352 50.345-6.53035 51.5714-5.98877 53.2544-5.98877 55.5461-5.98877 57.2021-6.75415 58.2226-8.28491 59.2432-9.81567 59.7534-12.3535 59.7534-15.8984L59.7534-30.0244 67.9443-30.0244 67.9443 0ZM104.199 0 96.0083 0 96.0083-17.5366C96.0083-19.703 95.6234-21.3277 94.8535-22.4109 94.0836-23.4941 92.8573-24.0356 91.1743-24.0356 88.8826-24.0356 87.2266-23.2703 86.206-21.7395 85.1855-20.2087 84.6753-17.6709 84.6753-14.126L84.6753 0 76.4844 0 76.4844-30.0244 82.7417-30.0244 83.8428-26.1841 84.2993-26.1841C85.2124-27.6343 86.4701-28.7309 88.0725-29.4739 89.6749-30.2169 91.4966-30.5884 93.5376-30.5884 97.0288-30.5884 99.6785-29.644 101.487-27.7551 103.295-25.8663 104.199-23.1405 104.199-19.5776ZM145.968 0 144.384-4.08203 144.169-4.08203C142.79-2.34538 141.372-1.14136 139.912-0.469971 138.453 0.201416 136.551 0.537109 134.206 0.537109 131.323 0.537109 129.054-0.286458 127.398-1.93359 125.742-3.58073 124.914-5.92611 124.914-8.96973 124.914-12.1566 126.028-14.5064 128.257-16.0193 130.486-17.5321 133.848-18.3691 138.341-18.5303L143.551-18.6914 143.551-20.0073C143.551-23.0509 141.994-24.5728 138.879-24.5728 136.479-24.5728 133.66-23.8477 130.419-22.3975L127.707-27.9297C131.162-29.738 134.993-30.6421 139.201-30.6421 143.229-30.6421 146.318-29.7648 148.466-28.0103 150.614-26.2557 151.689-23.5881 151.689-20.0073L151.689 0ZM143.551-13.9111 140.382-13.8037C138.001-13.7321 136.229-13.3024 135.065-12.5146 133.901-11.7269 133.319-10.5273 133.319-8.91601 133.319-6.60644 134.644-5.45166 137.294-5.45166 139.192-5.45166 140.709-5.99772 141.846-7.08984 142.983-8.18196 143.551-9.63216 143.551-11.4404ZM195.4-8.91601C195.4-5.83659 194.331-3.49121 192.191-1.87988 190.052-0.268555 186.851 0.537109 182.59 0.537109 180.406 0.537109 178.544 0.389404 177.004 0.0939941 175.465-0.201416 174.023-0.635579 172.681-1.2085L172.681-7.97607C174.202-7.25993 175.917-6.66016 177.823-6.17676 179.73-5.69336 181.409-5.45166 182.859-5.45166 185.831-5.45166 187.317-6.31103 187.317-8.02978 187.317-8.67431 187.12-9.198 186.726-9.60083 186.332-10.0037 185.652-10.4602 184.685-10.9705 183.718-11.4807 182.429-12.076 180.818-12.7563 178.508-13.7231 176.812-14.6183 175.729-15.4419 174.646-16.2655 173.858-17.2099 173.365-18.2751 172.873-19.3404 172.627-20.6519 172.627-22.2095 172.627-24.8771 173.661-26.9405 175.729-28.3997 177.797-29.8588 180.728-30.5884 184.524-30.5884 188.14-30.5884 191.659-29.8006 195.078-28.2251L192.607-22.3169C191.103-22.9614 189.698-23.4896 188.391-23.9014 187.084-24.3131 185.75-24.519 184.39-24.519 181.973-24.519 180.764-23.8656 180.764-22.5586 180.764-21.8245 181.154-21.189 181.932-20.6519 182.711-20.1147 184.416-19.318 187.048-18.2617 189.394-17.3128 191.112-16.4266 192.205-15.603 193.297-14.7795 194.102-13.8306 194.622-12.7563 195.141-11.6821 195.4-10.402 195.4-8.91601ZM201.604-37.7856C201.604-40.4533 203.09-41.7871 206.062-41.7871 209.034-41.7871 210.52-40.4533 210.52-37.7856 210.52-36.5145 210.148-35.5253 209.406-34.8181 208.662-34.1109 207.548-33.7573 206.062-33.7573 203.09-33.7573 201.604-35.1001 201.604-37.7856ZM210.144 0 201.953 0 201.953-30.0244 210.144-30.0244ZM245.45 0 237.259 0 237.259-17.5366C237.259-19.703 236.897-21.3277 236.171-22.4109 235.446-23.4941 234.305-24.0356 232.747-24.0356 230.653-24.0356 229.131-23.2658 228.182-21.7261 227.233-20.1864 226.759-17.653 226.759-14.126L226.759 0 218.568 0 218.568-30.0244 224.825-30.0244 225.926-26.1841 226.383-26.1841C227.188-27.5627 228.352-28.6414 229.874-29.4202 231.396-30.199 233.141-30.5884 235.111-30.5884 239.604-30.5884 242.648-29.1203 244.242-26.1841L244.967-26.1841C245.772-27.5806 246.958-28.6637 248.525-29.4336 250.092-30.2034 251.859-30.5884 253.829-30.5884 257.231-30.5884 259.804-29.7156 261.55-27.97 263.295-26.2244 264.168-23.4269 264.168-19.5776L264.168 0 255.951 0 255.951-17.5366C255.95-19.703 255.588-21.3277 254.863-22.4109 254.138-23.4941 252.996-24.0356 251.439-24.0356 249.434-24.0356 247.934-23.3195 246.94-21.8872 245.947-20.4549 245.45-18.1812 245.45-15.0659ZM293.691 0 292.59-3.84033 292.161-3.84033C291.283-2.44385 290.039-1.36515 288.428-0.604248 286.816 0.156657 284.981 0.537109 282.922 0.537109 279.395 0.537109 276.737-0.407308 274.946-2.29614 273.156-4.18498 272.261-6.90185 272.261-10.4468L272.261-30.0244 280.452-30.0244 280.452-12.4878C280.452-10.3215 280.837-8.6967 281.606-7.61352 282.376-6.53035 283.603-5.98877 285.286-5.98877 287.577-5.98877 289.233-6.75415 290.254-8.28491 291.274-9.81567 291.785-12.3535 291.785-15.8984L291.785-30.0244 299.976-30.0244 299.976 0ZM316.707 0 308.516 0 308.516-41.7871 316.707-41.7871ZM344.198 0 342.613-4.08203 342.398-4.08203C341.02-2.34538 339.601-1.14136 338.142-0.469971 336.682 0.201416 334.78 0.537109 332.435 0.537109 329.552 0.537109 327.283-0.286458 325.627-1.93359 323.971-3.58073 323.143-5.92611 323.143-8.96973 323.143-12.1566 324.257-14.5064 326.486-16.0193 328.715-17.5321 332.077-18.3691 336.571-18.5303L341.781-18.6914 341.781-20.0073C341.781-23.0509 340.223-24.5728 337.108-24.5728 334.709-24.5728 331.889-23.8477 328.648-22.3975L325.936-27.9297C329.391-29.738 333.223-30.6421 337.43-30.6421 341.458-30.6421 344.547-29.7648 346.695-28.0103 348.844-26.2557 349.918-23.5881 349.918-20.0073L349.918 0ZM341.781-13.9111 338.612-13.8037C336.23-13.7321 334.458-13.3024 333.294-12.5146 332.13-11.7269 331.549-10.5273 331.549-8.91601 331.549-6.60644 332.874-5.45166 335.523-5.45166 337.421-5.45166 338.938-5.99772 340.075-7.08984 341.212-8.18196 341.781-9.63216 341.781-11.4404ZM371.008-5.98877C372.441-5.98877 374.159-6.30208 376.165-6.92871L376.165-0.832519C374.124 0.0805663 371.617 0.537109 368.645 0.537109 365.369 0.537109 362.983-0.290934 361.488-1.94702 359.993-3.60311 359.246-6.08724 359.246-9.39941L359.246-23.8745 355.325-23.8745 355.325-27.3389 359.836-30.0781 362.2-36.416 367.436-36.416 367.436-30.0244 375.842-30.0244 375.842-23.8745 367.436-23.8745 367.436-9.39941C367.436-8.23568 367.763-7.3763 368.417-6.82129 369.07-6.26628 369.934-5.98877 371.008-5.98877ZM382.073-37.7856C382.073-40.4533 383.559-41.7871 386.531-41.7871 389.503-41.7871 390.989-40.4533 390.989-37.7856 390.989-36.5145 390.617-35.5253 389.874-34.8181 389.131-34.1109 388.017-33.7573 386.531-33.7573 383.559-33.7573 382.073-35.1001 382.073-37.7856ZM390.613 0 382.422 0 382.422-30.0244 390.613-30.0244ZM405.562-15.0659C405.562-12.0939 406.05-9.847 407.026-8.32519 408.002-6.80338 409.591-6.04248 411.793-6.04248 413.977-6.04248 415.548-6.79891 416.506-8.31177 417.464-9.82462 417.943-12.076 417.943-15.0659 417.943-18.0379 417.459-20.2669 416.492-21.7529 415.526-23.2389 413.941-23.9819 411.739-23.9819 409.555-23.9819 407.979-23.2434 407.013-21.7664 406.046-20.2893 405.562-18.0558 405.562-15.0659ZM426.322-15.0659C426.322-10.1782 425.033-6.35579 422.454-3.59863 419.876-0.841471 416.287 0.537109 411.685 0.537109 408.803 0.537109 406.261-0.0939942 404.058-1.3562 401.856-2.61841 400.164-4.43115 398.983-6.79443 397.801-9.15771 397.21-11.9149 397.21-15.0659 397.21-19.9715 398.49-23.785 401.051-26.5063 403.611-29.2277 407.209-30.5884 411.846-30.5884 414.729-30.5884 417.271-29.9617 419.473-28.7085 421.676-27.4552 423.367-25.6559 424.549-23.3105 425.731-20.9652 426.322-18.217 426.322-15.0659ZM460.553 0 452.362 0 452.362-17.5366C452.362-19.703 451.978-21.3277 451.208-22.4109 450.438-23.4941 449.211-24.0356 447.528-24.0356 445.237-24.0356 443.581-23.2703 442.56-21.7395 441.54-20.2087 441.029-17.6709 441.029-14.126L441.029 0 432.839 0 432.839-30.0244 439.096-30.0244 440.197-26.1841 440.653-26.1841C441.567-27.6343 442.824-28.7309 444.427-29.4739 446.029-30.2169 447.851-30.5884 449.892-30.5884 453.383-30.5884 456.033-29.644 457.841-27.7551 459.649-25.8663 460.553-23.1405 460.553-19.5776Z" fill="#FFFFFF" transform="matrix(1 0 0 1 53.3508 88)"/></g></g><path d="M3321.5 1090.85C3321.5 1068.57 3339.57 1050.5 3361.85 1050.5L3972.15 1050.5C3994.44 1050.5 4012.5 1068.57 4012.5 1090.85L4012.5 1171.15C4012.5 1193.43 3994.44 1211.5 3972.15 1211.5L3361.85 1211.5C3339.57 1211.5 3321.5 1193.43 3321.5 1171.15Z" stroke="#4663AC" stroke-width="4.58333" stroke-miterlimit="8" fill="#4663AC" fill-rule="evenodd"/><path d="M3321.5 1090.85C3321.5 1068.57 3339.57 1050.5 3361.85 1050.5L3972.15 1050.5C3994.44 1050.5 4012.5 1068.57 4012.5 1090.85L4012.5 1171.15C4012.5 1193.43 3994.44 1211.5 3972.15 1211.5L3361.85 1211.5C3339.57 1211.5 3321.5 1193.43 3321.5 1171.15Z" stroke="#4663AC" stroke-width="4.58333" stroke-miterlimit="8" fill="#4663AC" fill-rule="evenodd"/><text fill="#FFFFFF" font-family="Noto Sans,Noto Sans_MSFontService,sans-serif" font-weight="700" font-size="55" transform="matrix(1 0 0 1 3502.35 1149)">Run a simulation</text><path d="M3419 1084.68C3425.12 1084.68 3431.05 1085.88 3436.64 1088.24 3442.04 1090.52 3446.88 1093.79 3451.05 1097.95 3455.21 1102.12 3458.48 1106.96 3460.76 1112.36 3463.12 1117.95 3464.32 1123.88 3464.32 1130 3464.32 1136.12 3463.12 1142.05 3460.76 1147.64 3458.48 1153.04 3455.21 1157.88 3451.05 1162.05 3446.88 1166.21 3442.04 1169.48 3436.64 1171.76 3431.05 1174.12 3425.12 1175.32 3419 1175.32 3412.88 1175.32 3406.95 1174.12 3401.36 1171.76 3395.97 1169.48 3391.12 1166.21 3386.95 1162.05 3382.79 1157.88 3379.52 1153.04 3377.24 1147.64 3374.88 1142.05 3373.68 1136.12 3373.68 1130 3373.68 1123.88 3374.88 1117.95 3377.24 1112.36 3379.52 1106.96 3382.79 1102.12 3386.95 1097.95 3391.12 1093.79 3395.97 1090.52 3401.36 1088.24 3406.95 1085.88 3412.88 1084.68 3419 1084.68M3419 1081C3391.94 1081 3370 1102.94 3370 1130 3370 1157.06 3391.94 1179 3419 1179 3446.06 1179 3468 1157.06 3468 1130 3468 1102.94 3446.06 1081 3419 1081L3419 1081Z" fill="#FFFFFF" fill-rule="evenodd"/><path d="M3408.8 1152C3408.52 1152 3408.23 1151.93 3407.97 1151.79 3407.38 1151.48 3407 1150.84 3407 1150.15L3407 1109.85C3407 1109.16 3407.38 1108.52 3407.97 1108.21 3408.57 1107.89 3409.29 1107.94 3409.84 1108.34L3437.25 1128.49C3437.72 1128.84 3438 1129.4 3438 1130 3438 1130.6 3437.72 1131.16 3437.25 1131.51L3409.84 1151.66C3409.53 1151.88 3409.16 1152 3408.8 1152ZM3410.59 1113.45 3410.59 1146.55 3433.11 1130 3410.59 1113.45Z" fill="#FFFFFF" fill-rule="evenodd"/></g></svg>