<svg width="1247" height="203" xmlns="http://www.w3.org/2000/svg" xmlns:xlink="http://www.w3.org/1999/xlink" xml:space="preserve" overflow="hidden"><defs><filter id="fx0" x="-10%" y="-10%" width="120%" height="120%" filterUnits="userSpaceOnUse" primitiveUnits="userSpaceOnUse"><feComponentTransfer color-interpolation-filters="sRGB"><feFuncR type="discrete" tableValues="0 0"/><feFuncG type="discrete" tableValues="0 0"/><feFuncB type="discrete" tableValues="0 0"/><feFuncA type="linear" slope="0.4" intercept="0"/></feComponentTransfer><feGaussianBlur stdDeviation="6.11111 6.11111"/></filter><filter id="fx1" x="-10%" y="-10%" width="120%" height="120%" filterUnits="userSpaceOnUse" primitiveUnits="userSpaceOnUse"><feComponentTransfer color-interpolation-filters="sRGB"><feFuncR type="discrete" tableValues="0 0"/><feFuncG type="discrete" tableValues="0 0"/><feFuncB type="discrete" tableValues="0 0"/><feFuncA type="linear" slope="0.4" intercept="0"/></feComponentTransfer><feGaussianBlur stdDeviation="6.11111 6.11111"/></filter><clipPath id="clip2"><rect x="133" y="1565" width="1247" height="203"/></clipPath><clipPath id="clip3"><rect x="32" y="25" width="1011" height="100"/></clipPath></defs><g clip-path="url(#clip2)" transform="translate(-133 -1565)"><g filter="url(#fx0)" transform="translate(132 1564)"><g><path d="M22.4998 62.3495C22.4998 40.2032 40.4528 22.2501 62.5989 22.2501L1186.4 22.2501C1208.55 22.2501 1226.5 40.2032 1226.5 62.3495L1226.5 142.151C1226.5 164.297 1208.55 182.25 1186.4 182.25L62.5989 182.25C40.4528 182.25 22.4998 164.297 22.4998 142.151Z" stroke="#4663AC" stroke-width="5" stroke-miterlimit="8" fill="#4663AC" fill-rule="evenodd"/><path d="M22.4998 62.3495C22.4998 40.2032 40.4528 22.2501 62.5989 22.2501L1186.4 22.2501C1208.55 22.2501 1226.5 40.2032 1226.5 62.3495L1226.5 142.151C1226.5 164.297 1208.55 182.25 1186.4 182.25L62.5989 182.25C40.4528 182.25 22.4998 164.297 22.4998 142.151Z" stroke="#4663AC" stroke-width="5" stroke-miterlimit="8" fill="#4663AC" fill-rule="evenodd"/></g></g><g clip-path="url(#clip3)" filter="url(#fx1)" transform="translate(290 1596)"><g><path d="M28.1177-10.9033C28.1177-7.3584 26.842-4.56543 24.2908-2.52441 21.7395-0.483398 18.1901 0.537109 13.6426 0.537109 9.45312 0.537109 5.74707-0.250651 2.52441-1.82617L2.52441-9.56055C5.17415-8.37891 7.41658-7.54639 9.25171-7.06299 11.0868-6.57959 12.7653-6.33789 14.2871-6.33789 16.1133-6.33789 17.5142-6.68701 18.49-7.38525 19.4657-8.0835 19.9536-9.12191 19.9536-10.5005 19.9536-11.2703 19.7388-11.9552 19.3091-12.5549 18.8794-13.1547 18.2483-13.7321 17.4158-14.2871 16.5833-14.8421 14.8869-15.7284 12.3267-16.9458 9.92757-18.0737 8.12825-19.1569 6.92871-20.1953 5.72917-21.2337 4.77132-22.4422 4.05518-23.8208 3.33903-25.1994 2.98096-26.8107 2.98096-28.6548 2.98096-32.1281 4.15812-34.8584 6.51245-36.8457 8.86678-38.833 12.1208-39.8267 16.2744-39.8267 18.3154-39.8267 20.2624-39.585 22.1155-39.1016 23.9685-38.6182 25.9066-37.9378 27.9297-37.0605L25.2441-30.5884C23.1494-31.4478 21.4172-32.0475 20.0476-32.3877 18.678-32.7279 17.3307-32.8979 16.0059-32.8979 14.4303-32.8979 13.2218-32.5309 12.3804-31.7969 11.5389-31.0628 11.1182-30.105 11.1182-28.9233 11.1182-28.1893 11.2882-27.5492 11.6284-27.0032 11.9686-26.4571 12.5102-25.929 13.2532-25.4187 13.9962-24.9084 15.7552-23.9909 18.5303-22.666 22.2005-20.9115 24.716-19.1524 26.0767-17.3889 27.4373-15.6254 28.1177-13.4635 28.1177-10.9033ZM47.3104-5.98877C48.7427-5.98877 50.4614-6.30208 52.4666-6.92871L52.4666-0.832519C50.4256 0.0805663 47.9191 0.537109 44.9471 0.537109 41.6707 0.537109 39.2851-0.290934 37.7901-1.94702 36.2952-3.60311 35.5477-6.08724 35.5477-9.39941L35.5477-23.8745 31.6268-23.8745 31.6268-27.3389 36.1385-30.0781 38.5018-36.416 43.7386-36.416 43.7386-30.0244 52.1444-30.0244 52.1444-23.8745 43.7386-23.8745 43.7386-9.39941C43.7386-8.23568 44.0653-7.3763 44.7188-6.82129 45.3723-6.26628 46.2362-5.98877 47.3104-5.98877ZM77.7913 0 76.2069-4.08203 75.992-4.08203C74.6134-2.34538 73.1946-1.14136 71.7354-0.469971 70.2763 0.201416 68.374 0.537109 66.0286 0.537109 63.1462 0.537109 60.8769-0.286458 59.2208-1.93359 57.5647-3.58073 56.7366-5.92611 56.7366-8.96973 56.7366-12.1566 57.8511-14.5064 60.0802-16.0193 62.3092-17.5321 65.6706-18.3691 70.1644-18.5303L75.3743-18.6914 75.3743-20.0073C75.3743-23.0509 73.8167-24.5728 70.7015-24.5728 68.3024-24.5728 65.4826-23.8477 62.242-22.3975L59.5296-27.9297C62.985-29.738 66.8164-30.6421 71.0238-30.6421 75.0521-30.6421 78.1405-29.7648 80.2889-28.0103 82.4373-26.2557 83.5116-23.5881 83.5116-20.0073L83.5116 0ZM75.3743-13.9111 72.2054-13.8037C69.8242-13.7321 68.0518-13.3024 66.888-12.5146 65.7243-11.7269 65.1424-10.5273 65.1424-8.91601 65.1424-6.60644 66.4673-5.45166 69.117-5.45166 71.0148-5.45166 72.5321-5.99772 73.669-7.08984 74.8059-8.18196 75.3743-9.63216 75.3743-11.4404ZM108.711-30.5884C109.821-30.5884 110.743-30.5078 111.477-30.3467L110.859-22.666C110.197-22.845 109.391-22.9346 108.442-22.9346 105.828-22.9346 103.792-22.2632 102.333-20.9204 100.874-19.5776 100.144-17.6978 100.144-15.2808L100.144 0 91.9531 0 91.9531-30.0244 98.1567-30.0244 99.3652-24.9756 99.7681-24.9756C100.699-26.6585 101.957-28.0147 103.541-29.0442 105.126-30.0736 106.849-30.5884 108.711-30.5884ZM129.81-5.98877C131.243-5.98877 132.961-6.30208 134.967-6.92871L134.967-0.832519C132.926 0.0805663 130.419 0.537109 127.447 0.537109 124.171 0.537109 121.785-0.290934 120.29-1.94702 118.795-3.60311 118.048-6.08724 118.048-9.39941L118.048-23.8745 114.127-23.8745 114.127-27.3389 118.639-30.0781 121.002-36.416 126.239-36.416 126.239-30.0244 134.644-30.0244 134.644-23.8745 126.239-23.8745 126.239-9.39941C126.239-8.23568 126.565-7.3763 127.219-6.82129 127.872-6.26628 128.736-5.98877 129.81-5.98877ZM162.073-15.0659C162.073-12.0939 162.561-9.847 163.536-8.32519 164.512-6.80338 166.101-6.04248 168.303-6.04248 170.487-6.04248 172.059-6.79891 173.016-8.31177 173.974-9.82462 174.453-12.076 174.453-15.0659 174.453-18.0379 173.97-20.2669 173.003-21.7529 172.036-23.2389 170.452-23.9819 168.25-23.9819 166.065-23.9819 164.49-23.2434 163.523-21.7664 162.556-20.2893 162.073-18.0558 162.073-15.0659ZM182.832-15.0659C182.832-10.1782 181.543-6.35579 178.965-3.59863 176.387-0.841471 172.797 0.537109 168.196 0.537109 165.313 0.537109 162.771-0.0939942 160.569-1.3562 158.367-2.61841 156.675-4.43115 155.493-6.79443 154.312-9.15771 153.721-11.9149 153.721-15.0659 153.721-19.9715 155.001-23.785 157.561-26.5063 160.121-29.2277 163.72-30.5884 168.357-30.5884 171.239-30.5884 173.782-29.9617 175.984-28.7085 178.186-27.4552 179.878-25.6559 181.06-23.3105 182.241-20.9652 182.832-18.217 182.832-15.0659ZM205.838 0.537109C202.311 0.537109 199.545-0.743001 197.54-3.30322L197.11-3.30322C197.397-0.796712 197.54 0.653483 197.54 1.04736L197.54 13.2129 189.349 13.2129 189.349-30.0244 196.009-30.0244 197.164-26.1304 197.54-26.1304C199.456-29.1024 202.293-30.5884 206.053-30.5884 209.598-30.5884 212.373-29.2187 214.378-26.4795 216.383-23.7402 217.386-19.9357 217.386-15.0659 217.386-11.8612 216.916-9.07715 215.976-6.71387 215.036-4.35059 213.698-2.55127 211.961-1.31592 210.225-0.0805664 208.184 0.537109 205.838 0.537109ZM203.421-24.0356C201.398-24.0356 199.921-23.4135 198.99-22.1692 198.059-20.9249 197.576-18.8704 197.54-16.0059L197.54-15.1196C197.54-11.897 198.019-9.5874 198.977-8.19092 199.934-6.79443 201.452-6.09619 203.529-6.09619 207.199-6.09619 209.034-9.12191 209.034-15.1733 209.034-18.1274 208.582-20.343 207.678-21.8201 206.774-23.2971 205.355-24.0356 203.421-24.0356ZM236.946-5.98877C238.378-5.98877 240.097-6.30208 242.102-6.92871L242.102-0.832519C240.061 0.0805663 237.555 0.537109 234.583 0.537109 231.306 0.537109 228.92-0.290934 227.426-1.94702 225.931-3.60311 225.183-6.08724 225.183-9.39941L225.183-23.8745 221.262-23.8745 221.262-27.3389 225.774-30.0781 228.137-36.416 233.374-36.416 233.374-30.0244 241.78-30.0244 241.78-23.8745 233.374-23.8745 233.374-9.39941C233.374-8.23568 233.701-7.3763 234.354-6.82129 235.008-6.26628 235.872-5.98877 236.946-5.98877ZM248.01-37.7856C248.01-40.4533 249.496-41.7871 252.468-41.7871 255.44-41.7871 256.926-40.4533 256.926-37.7856 256.926-36.5145 256.555-35.5253 255.812-34.8181 255.069-34.1109 253.954-33.7573 252.468-33.7573 249.496-33.7573 248.01-35.1001 248.01-37.7856ZM256.55 0 248.359 0 248.359-30.0244 256.55-30.0244ZM291.856 0 283.665 0 283.665-17.5366C283.665-19.703 283.303-21.3277 282.578-22.4109 281.853-23.4941 280.711-24.0356 279.154-24.0356 277.059-24.0356 275.537-23.2658 274.588-21.7261 273.639-20.1864 273.165-17.653 273.165-14.126L273.165 0 264.974 0 264.974-30.0244 271.231-30.0244 272.332-26.1841 272.789-26.1841C273.595-27.5627 274.758-28.6414 276.28-29.4202 277.802-30.199 279.548-30.5884 281.517-30.5884 286.011-30.5884 289.054-29.1203 290.648-26.1841L291.373-26.1841C292.179-27.5806 293.365-28.6637 294.931-29.4336 296.498-30.2034 298.266-30.5884 300.235-30.5884 303.637-30.5884 306.211-29.7156 307.956-27.97 309.702-26.2244 310.575-23.4269 310.575-19.5776L310.575 0 302.357 0 302.357-17.5366C302.357-19.703 301.994-21.3277 301.269-22.4109 300.544-23.4941 299.403-24.0356 297.845-24.0356 295.84-24.0356 294.34-23.3195 293.347-21.8872 292.353-20.4549 291.856-18.1812 291.856-15.0659ZM318.479-37.7856C318.479-40.4533 319.965-41.7871 322.937-41.7871 325.909-41.7871 327.395-40.4533 327.395-37.7856 327.395-36.5145 327.023-35.5253 326.281-34.8181 325.538-34.1109 324.423-33.7573 322.937-33.7573 319.965-33.7573 318.479-35.1001 318.479-37.7856ZM327.019 0 318.828 0 318.828-30.0244 327.019-30.0244ZM356.336 0 332.623 0 332.623-4.83398 346.534-23.7671 333.455-23.7671 333.455-30.0244 355.853-30.0244 355.853-24.707 342.318-6.25732 356.336-6.25732ZM362.021-37.7856C362.021-40.4533 363.507-41.7871 366.479-41.7871 369.451-41.7871 370.937-40.4533 370.937-37.7856 370.937-36.5145 370.565-35.5253 369.822-34.8181 369.079-34.1109 367.965-33.7573 366.479-33.7573 363.507-33.7573 362.021-35.1001 362.021-37.7856ZM370.561 0 362.37 0 362.37-30.0244 370.561-30.0244ZM406.699 0 398.508 0 398.508-17.5366C398.508-19.703 398.123-21.3277 397.354-22.4109 396.584-23.4941 395.357-24.0356 393.674-24.0356 391.383-24.0356 389.727-23.2703 388.706-21.7395 387.686-20.2087 387.175-17.6709 387.175-14.126L387.175 0 378.984 0 378.984-30.0244 385.242-30.0244 386.343-26.1841 386.799-26.1841C387.712-27.6343 388.97-28.7309 390.573-29.4739 392.175-30.2169 393.997-30.5884 396.038-30.5884 399.529-30.5884 402.179-29.644 403.987-27.7551 405.795-25.8663 406.699-23.1405 406.699-19.5776ZM427.512-5.88135C429.714-5.88135 431.29-6.51245 432.239-7.77466 433.188-9.03686 433.662-11.0824 433.662-13.9111L433.662-14.9048C433.662-18.1095 433.165-20.4146 432.172-21.8201 431.178-23.2255 429.58-23.9282 427.378-23.9282 423.529-23.9282 421.604-20.9025 421.604-14.8511 421.604-11.8433 422.083-9.59635 423.041-8.11035 423.999-6.62435 425.489-5.88135 427.512-5.88135ZM441.316 0.0537109C441.316 4.36849 440.058 7.64038 437.543 9.86938 435.027 12.0984 431.281 13.2129 426.304 13.2129 421.917 13.2129 418.175 12.6221 415.078 11.4404L415.078 4.88769C418.713 6.42741 422.616 7.19726 426.787 7.19727 430.994 7.19726 433.098 4.9235 433.098 0.375977L433.098-0.214844 433.34-3.89404 433.098-3.89404C431.182-0.939941 428.345 0.537109 424.585 0.537109 420.986 0.537109 418.198-0.850423 416.22-3.62549 414.241-6.40055 413.252-10.1782 413.252-14.9585 413.252-19.882 414.277-23.7179 416.327-26.4661 418.377-29.2143 421.201-30.5884 424.8-30.5884 428.488-30.5884 431.388-29.1203 433.501-26.1841L433.716-26.1841 434.387-30.0244 441.316-30.0244ZM497.166 0 488.868 0 488.868-16.9458 473.319-16.9458 473.319 0 464.993 0 464.993-39.2627 473.319-39.2627 473.319-23.8745 488.868-23.8745 488.868-39.2627 497.166-39.2627ZM501.875-30.0244 510.845-30.0244 516.511-13.1323C516.995-11.6642 517.326-9.92757 517.505-7.92236L517.666-7.92236C517.863-9.76644 518.248-11.5031 518.821-13.1323L524.38-30.0244 533.162-30.0244 520.459 3.84033C519.295 6.97347 517.635 9.31885 515.477 10.8765 513.32 12.4341 510.8 13.2129 507.917 13.2129 506.503 13.2129 505.116 13.0607 503.755 12.7563L503.755 6.25732C504.74 6.49007 505.814 6.60644 506.978 6.60644 508.428 6.60644 509.694 6.16333 510.778 5.2771 511.861 4.39087 512.707 3.05257 513.315 1.26221L513.799-0.214844ZM547.189 0.537109C543.662 0.537109 540.891-0.83252 538.877-3.57178 536.863-6.31103 535.856-10.1066 535.856-14.9585 535.856-19.882 536.881-23.7179 538.931-26.4661 540.981-29.2143 543.805-30.5884 547.404-30.5884 551.182-30.5884 554.064-29.1203 556.051-26.1841L556.32-26.1841C555.908-28.422 555.702-30.4183 555.702-32.1728L555.702-41.7871 563.92-41.7871 563.92 0 557.636 0 556.051-3.89404 555.702-3.89404C553.84-0.939941 551.003 0.537109 547.189 0.537109ZM550.063-5.98877C552.157-5.98877 553.693-6.59749 554.668-7.81494 555.644-9.03239 556.177-11.1003 556.266-14.0186L556.266-14.9048C556.266-18.1274 555.769-20.437 554.776-21.8335 553.782-23.23 552.166-23.9282 549.928-23.9282 548.102-23.9282 546.683-23.1539 545.672-21.6052 544.66-20.0566 544.154-17.8052 544.154-14.8511 544.154-11.897 544.665-9.68139 545.685-8.20434 546.706-6.72729 548.165-5.98877 550.063-5.98877ZM589.388-30.5884C590.498-30.5884 591.42-30.5078 592.154-30.3467L591.536-22.666C590.874-22.845 590.068-22.9346 589.12-22.9346 586.506-22.9346 584.469-22.2632 583.01-20.9204 581.551-19.5776 580.821-17.6978 580.821-15.2808L580.821 0 572.63 0 572.63-30.0244 578.834-30.0244 580.042-24.9756 580.445-24.9756C581.376-26.6585 582.634-28.0147 584.218-29.0442 585.803-30.0736 587.526-30.5884 589.388-30.5884ZM604.364-15.0659C604.364-12.0939 604.852-9.847 605.828-8.32519 606.804-6.80338 608.393-6.04248 610.595-6.04248 612.779-6.04248 614.35-6.79891 615.308-8.31177 616.266-9.82462 616.745-12.076 616.745-15.0659 616.745-18.0379 616.261-20.2669 615.295-21.7529 614.328-23.2389 612.743-23.9819 610.541-23.9819 608.357-23.9819 606.781-23.2434 605.815-21.7664 604.848-20.2893 604.364-18.0558 604.364-15.0659ZM625.124-15.0659C625.124-10.1782 623.835-6.35579 621.257-3.59863 618.678-0.841471 615.089 0.537109 610.487 0.537109 607.605 0.537109 605.063-0.0939942 602.861-1.3562 600.658-2.61841 598.966-4.43115 597.785-6.79443 596.603-9.15771 596.012-11.9149 596.012-15.0659 596.012-19.9715 597.292-23.785 599.853-26.5063 602.413-29.2277 606.012-30.5884 610.649-30.5884 613.531-30.5884 616.073-29.9617 618.276-28.7085 620.478-27.4552 622.17-25.6559 623.351-23.3105 624.533-20.9652 625.124-18.217 625.124-15.0659Z" fill="#FFFFFF" transform="matrix(1 0 0 1 52.7996 89)"/><path d="M2.84668-12.998 2.84668-19.7119 17.2681-19.7119 17.2681-12.998Z" fill="#FFFFFF" transform="matrix(1 0 0 1 680.143 89)"/><path d="M20.7861 0.537109C17.2591 0.537109 14.493-0.743001 12.4878-3.30322L12.0581-3.30322C12.3446-0.796712 12.4878 0.653483 12.4878 1.04736L12.4878 13.2129 4.29687 13.2129 4.29687-30.0244 10.957-30.0244 12.1118-26.1304 12.4878-26.1304C14.4035-29.1024 17.2412-30.5884 21.001-30.5884 24.5459-30.5884 27.321-29.2187 29.3262-26.4795 31.3314-23.7402 32.334-19.9357 32.334-15.0659 32.334-11.8612 31.864-9.07715 30.9241-6.71387 29.9841-4.35059 28.6458-2.55127 26.9092-1.31592 25.1725-0.0805664 23.1315 0.537109 20.7861 0.537109ZM18.3691-24.0356C16.346-24.0356 14.869-23.4135 13.938-22.1692 13.007-20.9249 12.5236-18.8704 12.4878-16.0059L12.4878-15.1196C12.4878-11.897 12.9667-9.5874 13.9246-8.19092 14.8824-6.79443 16.3997-6.09619 18.4766-6.09619 22.1468-6.09619 23.9819-9.12191 23.9819-15.1733 23.9819-18.1274 23.5299-20.343 22.6257-21.8201 21.7216-23.2971 20.3027-24.0356 18.3691-24.0356ZM58.3122 0 56.7277-4.08203 56.5129-4.08203C55.1343-2.34538 53.7154-1.14136 52.2563-0.469971 50.7971 0.201416 48.8949 0.537109 46.5495 0.537109 43.667 0.537109 41.3977-0.286458 39.7416-1.93359 38.0855-3.58073 37.2575-5.92611 37.2575-8.96973 37.2575-12.1566 38.372-14.5064 40.601-16.0193 42.83-17.5321 46.1914-18.3691 50.6852-18.5303L55.8952-18.6914 55.8952-20.0073C55.8952-23.0509 54.3376-24.5728 51.2223-24.5728 48.8232-24.5728 46.0034-23.8477 42.7629-22.3975L40.0505-27.9297C43.5059-29.738 47.3372-30.6421 51.5446-30.6421 55.5729-30.6421 58.6613-29.7648 60.8097-28.0103 62.9582-26.2557 64.0324-23.5881 64.0324-20.0073L64.0324 0ZM55.8952-13.9111 52.7262-13.8037C50.345-13.7321 48.5726-13.3024 47.4089-12.5146 46.2451-11.7269 45.6632-10.5273 45.6632-8.91601 45.6632-6.60644 46.9881-5.45166 49.6379-5.45166 51.5356-5.45166 53.053-5.99772 54.1899-7.08984 55.3267-8.18196 55.8952-9.63216 55.8952-11.4404ZM89.2318-30.5884C90.3418-30.5884 91.2638-30.5078 91.9979-30.3467L91.3802-22.666C90.7178-22.845 89.9121-22.9346 88.9632-22.9346 86.3493-22.9346 84.3127-22.2632 82.8536-20.9204 81.3944-19.5776 80.6649-17.6978 80.6649-15.2808L80.6649 0 72.474 0 72.474-30.0244 78.6776-30.0244 79.8861-24.9756 80.2889-24.9756C81.2199-26.6585 82.4776-28.0147 84.0621-29.0442 85.6466-30.0736 87.3698-30.5884 89.2318-30.5884ZM116.75 0 115.165-4.08203 114.95-4.08203C113.572-2.34538 112.153-1.14136 110.694-0.469971 109.235 0.201416 107.332 0.537109 104.987 0.537109 102.104 0.537109 99.8352-0.286458 98.1791-1.93359 96.523-3.58073 95.695-5.92611 95.695-8.96973 95.695-12.1566 96.8095-14.5064 99.0385-16.0193 101.267-17.5321 104.629-18.3691 109.123-18.5303L114.333-18.6914 114.333-20.0073C114.333-23.0509 112.775-24.5728 109.66-24.5728 107.261-24.5728 104.441-23.8477 101.2-22.3975L98.4879-27.9297C101.943-29.738 105.775-30.6421 109.982-30.6421 114.01-30.6421 117.099-29.7648 119.247-28.0103 121.396-26.2557 122.47-23.5881 122.47-20.0073L122.47 0ZM114.333-13.9111 111.164-13.8037C108.783-13.7321 107.01-13.3024 105.846-12.5146 104.683-11.7269 104.101-10.5273 104.101-8.91601 104.101-6.60644 105.426-5.45166 108.075-5.45166 109.973-5.45166 111.49-5.99772 112.627-7.08984 113.764-8.18196 114.333-9.63216 114.333-11.4404ZM157.794 0 149.603 0 149.603-17.5366C149.603-19.703 149.24-21.3277 148.515-22.4109 147.79-23.4941 146.649-24.0356 145.091-24.0356 142.996-24.0356 141.475-23.2658 140.526-21.7261 139.577-20.1864 139.102-17.653 139.102-14.126L139.102 0 130.911 0 130.911-30.0244 137.169-30.0244 138.27-26.1841 138.726-26.1841C139.532-27.5627 140.696-28.6414 142.218-29.4202 143.739-30.199 145.485-30.5884 147.454-30.5884 151.948-30.5884 154.992-29.1203 156.585-26.1841L157.31-26.1841C158.116-27.5806 159.302-28.6637 160.869-29.4336 162.435-30.2034 164.203-30.5884 166.173-30.5884 169.574-30.5884 172.148-29.7156 173.894-27.97 175.639-26.2244 176.512-23.4269 176.512-19.5776L176.512 0 168.294 0 168.294-17.5366C168.294-19.703 167.932-21.3277 167.207-22.4109 166.482-23.4941 165.34-24.0356 163.783-24.0356 161.777-24.0356 160.278-23.3195 159.284-21.8872 158.291-20.4549 157.794-18.1812 157.794-15.0659ZM197.2-24.7607C195.463-24.7607 194.102-24.2102 193.118-23.1091 192.133-22.0081 191.569-20.446 191.426-18.4228L202.92-18.4228C202.884-20.446 202.356-22.0081 201.335-23.1091 200.315-24.2102 198.936-24.7607 197.2-24.7607ZM198.354 0.537109C193.52 0.537109 189.743-0.796712 187.021-3.46436 184.3-6.132 182.939-9.90967 182.939-14.7974 182.939-19.8283 184.197-23.7179 186.713-26.4661 189.228-29.2143 192.706-30.5884 197.146-30.5884 201.389-30.5884 204.692-29.3799 207.056-26.9629 209.419-24.5459 210.601-21.2069 210.601-16.9458L210.601-12.9712 191.238-12.9712C191.327-10.6437 192.017-8.8265 193.306-7.51953 194.595-6.21256 196.403-5.55908 198.73-5.55908 200.539-5.55908 202.249-5.74707 203.86-6.12305 205.471-6.49902 207.154-7.09879 208.909-7.92236L208.909-1.58447C207.476-0.868327 205.946-0.335693 204.316 0.0134277 202.687 0.362549 200.7 0.537109 198.354 0.537109ZM230.071-5.98877C231.503-5.98877 233.222-6.30208 235.227-6.92871L235.227-0.832519C233.186 0.0805663 230.68 0.537109 227.708 0.537109 224.431 0.537109 222.045-0.290934 220.551-1.94702 219.056-3.60311 218.308-6.08724 218.308-9.39941L218.308-23.8745 214.387-23.8745 214.387-27.3389 218.899-30.0781 221.262-36.416 226.499-36.416 226.499-30.0244 234.905-30.0244 234.905-23.8745 226.499-23.8745 226.499-9.39941C226.499-8.23568 226.826-7.3763 227.479-6.82129 228.133-6.26628 228.997-5.98877 230.071-5.98877ZM253.918-24.7607C252.182-24.7607 250.821-24.2102 249.836-23.1091 248.852-22.0081 248.288-20.446 248.145-18.4228L259.639-18.4228C259.603-20.446 259.075-22.0081 258.054-23.1091 257.034-24.2102 255.655-24.7607 253.918-24.7607ZM255.073 0.537109C250.239 0.537109 246.462-0.796712 243.74-3.46436 241.019-6.132 239.658-9.90967 239.658-14.7974 239.658-19.8283 240.916-23.7179 243.431-26.4661 245.947-29.2143 249.425-30.5884 253.865-30.5884 258.108-30.5884 261.411-29.3799 263.774-26.9629 266.138-24.5459 267.319-21.2069 267.319-16.9458L267.319-12.9712 247.957-12.9712C248.046-10.6437 248.735-8.8265 250.024-7.51953 251.313-6.21256 253.122-5.55908 255.449-5.55908 257.257-5.55908 258.967-5.74707 260.579-6.12305 262.19-6.49902 263.873-7.09879 265.627-7.92236L265.627-1.58447C264.195-0.868327 262.664-0.335693 261.035 0.0134277 259.406 0.362549 257.419 0.537109 255.073 0.537109ZM290.898-30.5884C292.008-30.5884 292.93-30.5078 293.665-30.3467L293.047-22.666C292.384-22.845 291.579-22.9346 290.63-22.9346 288.016-22.9346 285.979-22.2632 284.52-20.9204 283.061-19.5776 282.331-17.6978 282.332-15.2808L282.332 0 274.141 0 274.141-30.0244 280.344-30.0244 281.553-24.9756 281.956-24.9756C282.887-26.6585 284.144-28.0147 285.729-29.0442 287.313-30.0736 289.036-30.5884 290.898-30.5884ZM320.296-8.91601C320.296-5.83659 319.226-3.49121 317.087-1.87988 314.947-0.268555 311.747 0.537109 307.486 0.537109 305.302 0.537109 303.44 0.389404 301.9 0.0939941 300.36-0.201416 298.919-0.635579 297.576-1.2085L297.576-7.97607C299.098-7.25993 300.813-6.66016 302.719-6.17676 304.626-5.69336 306.305-5.45166 307.755-5.45166 310.727-5.45166 312.213-6.31103 312.213-8.02978 312.213-8.67431 312.016-9.198 311.622-9.60083 311.228-10.0037 310.548-10.4602 309.581-10.9705 308.614-11.4807 307.325-12.076 305.714-12.7563 303.404-13.7231 301.708-14.6183 300.625-15.4419 299.541-16.2655 298.754-17.2099 298.261-18.2751 297.769-19.3404 297.523-20.6519 297.523-22.2095 297.523-24.8771 298.557-26.9405 300.625-28.3997 302.692-29.8588 305.624-30.5884 309.42-30.5884 313.036-30.5884 316.554-29.8006 319.974-28.2251L317.503-22.3169C315.999-22.9614 314.594-23.4896 313.287-23.9014 311.98-24.3131 310.646-24.519 309.285-24.519 306.868-24.519 305.66-23.8656 305.66-22.5586 305.66-21.8245 306.049-21.189 306.828-20.6519 307.607-20.1147 309.312-19.318 311.944-18.2617 314.29-17.3128 316.008-16.4266 317.1-15.603 318.193-14.7795 318.998-13.8306 319.517-12.7563 320.037-11.6821 320.296-10.402 320.296-8.91601Z" fill="#FFFFFF" transform="matrix(1 0 0 1 700.195 89)"/></g></g><path d="M154.5 1612.6C154.5 1590.45 172.453 1572.5 194.599 1572.5L1318.4 1572.5C1340.55 1572.5 1358.5 1590.45 1358.5 1612.6L1358.5 1692.4C1358.5 1714.55 1340.55 1732.5 1318.4 1732.5L194.599 1732.5C172.453 1732.5 154.5 1714.55 154.5 1692.4Z" stroke="#4663AC" stroke-width="4.58333" stroke-miterlimit="8" fill="#4663AC" fill-rule="evenodd"/><path d="M154.5 1612.6C154.5 1590.45 172.453 1572.5 194.599 1572.5L1318.4 1572.5C1340.55 1572.5 1358.5 1590.45 1358.5 1612.6L1358.5 1692.4C1358.5 1714.55 1340.55 1732.5 1318.4 1732.5L194.599 1732.5C172.453 1732.5 154.5 1714.55 154.5 1692.4Z" stroke="#4663AC" stroke-width="4.58333" stroke-miterlimit="8" fill="#4663AC" fill-rule="evenodd"/><text fill="#FFFFFF" font-family="Noto Sans,Noto Sans_MSFontService,sans-serif" font-weight="700" font-size="55" transform="matrix(1 0 0 1 342.8 1671)">Start optimizing Hydro</text><text fill="#FFFFFF" font-family="Noto Sans,Noto Sans_MSFontService,sans-serif" font-weight="700" font-size="55" transform="matrix(1 0 0 1 970.143 1671)">-</text><text fill="#FFFFFF" font-family="Noto Sans,Noto Sans_MSFontService,sans-serif" font-weight="700" font-size="55" transform="matrix(1 0 0 1 990.195 1671)">parameters</text><g><g><g><path d="M251.5 1606.48C257.579 1606.48 263.474 1607.67 269.022 1610.02 274.382 1612.29 279.197 1615.53 283.332 1619.67 287.468 1623.8 290.714 1628.62 292.982 1633.98 295.328 1639.53 296.518 1645.42 296.518 1651.5 296.518 1657.58 295.328 1663.47 292.981 1669.02 290.714 1674.38 287.468 1679.2 283.332 1683.33 279.197 1687.47 274.382 1690.71 269.022 1692.98 263.474 1695.33 257.579 1696.52 251.5 1696.52 245.421 1696.52 239.526 1695.33 233.978 1692.98 228.618 1690.71 223.803 1687.47 219.668 1683.33 215.532 1679.2 212.286 1674.38 210.019 1669.02 207.672 1663.47 206.482 1657.58 206.482 1651.5 206.482 1645.42 207.672 1639.53 210.019 1633.98 212.286 1628.62 215.532 1623.8 219.668 1619.67 223.803 1615.53 228.618 1612.29 233.978 1610.02 239.526 1607.67 245.421 1606.48 251.5 1606.48M251.5 1602.83C224.618 1602.83 202.826 1624.62 202.826 1651.5 202.826 1678.38 224.618 1700.17 251.5 1700.17 278.382 1700.17 300.174 1678.38 300.174 1651.5 300.174 1624.62 278.382 1602.83 251.5 1602.83L251.5 1602.83Z" fill="#FFFFFF"/><path d="M241.216 1673.21C240.931 1673.21 240.643 1673.14 240.379 1673.01 239.771 1672.69 239.389 1672.07 239.389 1671.38L239.389 1631.62C239.389 1630.93 239.771 1630.31 240.379 1629.99 240.988 1629.68 241.721 1629.73 242.278 1630.13L270.157 1650.01C270.638 1650.35 270.924 1650.91 270.924 1651.5 270.924 1652.09 270.638 1652.65 270.157 1652.99L242.278 1672.87C241.962 1673.09 241.59 1673.21 241.216 1673.21ZM243.045 1635.17 243.045 1667.83 265.947 1651.5 243.045 1635.17Z" fill="#FFFFFF"/></g></g></g></g></svg>