<svg width="338" height="158" xmlns="http://www.w3.org/2000/svg" xmlns:xlink="http://www.w3.org/1999/xlink" xml:space="preserve" overflow="hidden"><defs><filter id="fx0" x="-10%" y="-10%" width="120%" height="120%" filterUnits="userSpaceOnUse" primitiveUnits="userSpaceOnUse"><feComponentTransfer color-interpolation-filters="sRGB"><feFuncR type="discrete" tableValues="0 0"/><feFuncG type="discrete" tableValues="0 0"/><feFuncB type="discrete" tableValues="0 0"/><feFuncA type="linear" slope="0.4" intercept="0"/></feComponentTransfer><feGaussianBlur stdDeviation="6.11111 6.11111"/></filter><filter id="fx1" x="-10%" y="-10%" width="120%" height="120%" filterUnits="userSpaceOnUse" primitiveUnits="userSpaceOnUse"><feComponentTransfer color-interpolation-filters="sRGB"><feFuncR type="discrete" tableValues="0 0"/><feFuncG type="discrete" tableValues="0 0"/><feFuncB type="discrete" tableValues="0 0"/><feFuncA type="linear" slope="0.4" intercept="0"/></feComponentTransfer><feGaussianBlur stdDeviation="6.11111 6.11111"/></filter><clipPath id="clip2"><rect x="599" y="967" width="338" height="158"/></clipPath><clipPath id="clip3"><rect x="32" y="25" width="237" height="89"/></clipPath></defs><g clip-path="url(#clip2)" transform="translate(-599 -967)"><g filter="url(#fx0)" transform="translate(598 966)"><g><path d="M22.4999 48.3145C22.4999 33.9195 34.1694 22.2501 48.5644 22.2501L291.435 22.2501C305.83 22.2501 317.5 33.9195 317.5 48.3145L317.5 100.185C317.5 114.58 305.83 126.25 291.435 126.25L48.5644 126.25C34.1694 126.25 22.4999 114.58 22.4999 100.185Z" stroke="#4663AC" stroke-width="5" stroke-miterlimit="8" fill="#4663AC" fill-rule="evenodd"/><path d="M22.4999 48.3145C22.4999 33.9195 34.1694 22.2501 48.5644 22.2501L291.435 22.2501C305.83 22.2501 317.5 33.9195 317.5 48.3145L317.5 100.185C317.5 114.58 305.83 126.25 291.435 126.25L48.5644 126.25C34.1694 126.25 22.4999 114.58 22.4999 100.185Z" stroke="#4663AC" stroke-width="5" stroke-miterlimit="8" fill="#4663AC" fill-rule="evenodd"/></g></g><g clip-path="url(#clip3)" filter="url(#fx1)" transform="translate(626 970)"><g><path d="M28.1177-10.9033C28.1177-7.3584 26.842-4.56543 24.2908-2.52441 21.7395-0.483398 18.1901 0.537109 13.6426 0.537109 9.45312 0.537109 5.74707-0.250651 2.52441-1.82617L2.52441-9.56055C5.17415-8.37891 7.41658-7.54639 9.25171-7.06299 11.0868-6.57959 12.7653-6.33789 14.2871-6.33789 16.1133-6.33789 17.5142-6.68701 18.49-7.38525 19.4657-8.0835 19.9536-9.12191 19.9536-10.5005 19.9536-11.2703 19.7388-11.9552 19.3091-12.5549 18.8794-13.1547 18.2483-13.7321 17.4158-14.2871 16.5833-14.8421 14.8869-15.7284 12.3267-16.9458 9.92757-18.0737 8.12825-19.1569 6.92871-20.1953 5.72917-21.2337 4.77132-22.4422 4.05518-23.8208 3.33903-25.1994 2.98096-26.8107 2.98096-28.6548 2.98096-32.1281 4.15812-34.8584 6.51245-36.8457 8.86678-38.833 12.1208-39.8267 16.2744-39.8267 18.3154-39.8267 20.2624-39.585 22.1155-39.1016 23.9685-38.6182 25.9066-37.9378 27.9297-37.0605L25.2441-30.5884C23.1494-31.4478 21.4172-32.0475 20.0476-32.3877 18.678-32.7279 17.3307-32.8979 16.0059-32.8979 14.4303-32.8979 13.2218-32.5309 12.3804-31.7969 11.5389-31.0628 11.1182-30.105 11.1182-28.9233 11.1182-28.1893 11.2882-27.5492 11.6284-27.0032 11.9686-26.4571 12.5102-25.929 13.2532-25.4187 13.9962-24.9084 15.7552-23.9909 18.5303-22.666 22.2005-20.9115 24.716-19.1524 26.0767-17.3889 27.4373-15.6254 28.1177-13.4635 28.1177-10.9033ZM55.931 0 54.8299-3.84033 54.4002-3.84033C53.5229-2.44385 52.2786-1.36515 50.6673-0.604248 49.056 0.156657 47.2209 0.537109 45.1619 0.537109 41.6349 0.537109 38.9762-0.407308 37.1859-2.29614 35.3955-4.18498 34.5003-6.90185 34.5003-10.4468L34.5003-30.0244 42.6912-30.0244 42.6912-12.4878C42.6912-10.3215 43.0762-8.6967 43.846-7.61352 44.6159-6.53035 45.8423-5.98877 47.5252-5.98877 49.8169-5.98877 51.473-6.75415 52.4935-8.28491 53.514-9.81567 54.0242-12.3535 54.0242-15.8984L54.0242-30.0244 62.2152-30.0244 62.2152 0ZM87.4593-30.5884C91.0042-30.5884 93.7793-29.2053 95.7845-26.4392 97.7897-23.6731 98.7923-19.882 98.7923-15.0659 98.7923-10.1066 97.7584-6.26628 95.6905-3.54492 93.6226-0.823568 90.8073 0.537109 87.2445 0.537109 83.7174 0.537109 80.9513-0.743001 78.9461-3.30322L78.3822-3.30322 77.0125 0 70.7552 0 70.7552-41.7871 78.9461-41.7871 78.9461-32.0654C78.9461-30.8301 78.8387-28.8517 78.6239-26.1304L78.9461-26.1304C80.8618-29.1024 83.6995-30.5884 87.4593-30.5884ZM84.8275-24.0356C82.8044-24.0356 81.3273-23.4135 80.3963-22.1692 79.4653-20.9249 78.9819-18.8704 78.9461-16.0059L78.9461-15.1196C78.9461-11.897 79.425-9.5874 80.3829-8.19092 81.3407-6.79443 82.8581-6.09619 84.9349-6.09619 86.6178-6.09619 87.9561-6.87052 88.9498-8.41919 89.9434-9.96785 90.4403-12.2192 90.4403-15.1733 90.4403-18.1274 89.939-20.343 88.9364-21.8201 87.9337-23.2971 86.5641-24.0356 84.8275-24.0356ZM132.585 0 124.395 0 124.395-17.5366C124.395-19.703 124.032-21.3277 123.307-22.4109 122.582-23.4941 121.44-24.0356 119.883-24.0356 117.788-24.0356 116.266-23.2658 115.317-21.7261 114.368-20.1864 113.894-17.653 113.894-14.126L113.894 0 105.703 0 105.703-30.0244 111.96-30.0244 113.062-26.1841 113.518-26.1841C114.324-27.5627 115.487-28.6414 117.009-29.4202 118.531-30.199 120.277-30.5884 122.246-30.5884 126.74-30.5884 129.784-29.1203 131.377-26.1841L132.102-26.1841C132.908-27.5806 134.094-28.6637 135.66-29.4336 137.227-30.2034 138.995-30.5884 140.964-30.5884 144.366-30.5884 146.94-29.7156 148.685-27.97 150.431-26.2244 151.304-23.4269 151.304-19.5776L151.304 0 143.086 0 143.086-17.5366C143.086-19.703 142.723-21.3277 141.998-22.4109 141.273-23.4941 140.132-24.0356 138.574-24.0356 136.569-24.0356 135.07-23.3195 134.076-21.8872 133.082-20.4549 132.585-18.1812 132.585-15.0659ZM159.208-37.7856C159.208-40.4533 160.694-41.7871 163.666-41.7871 166.638-41.7871 168.124-40.4533 168.124-37.7856 168.124-36.5145 167.753-35.5253 167.01-34.8181 166.267-34.1109 165.152-33.7573 163.666-33.7573 160.694-33.7573 159.208-35.1001 159.208-37.7856ZM167.748 0 159.557 0 159.557-30.0244 167.748-30.0244Z" fill="#FFFFFF" transform="matrix(1 0 0 1 52.7658 89)"/><path d="M16.9458-5.98877C18.3781-5.98877 20.0968-6.30208 22.102-6.92871L22.102-0.832519C20.061 0.0805663 17.5545 0.537109 14.5825 0.537109 11.3062 0.537109 8.92049-0.290934 7.42554-1.94702 5.93058-3.60311 5.1831-6.08724 5.1831-9.39941L5.1831-23.8745 1.26221-23.8745 1.26221-27.3389 5.77393-30.0781 8.13721-36.416 13.374-36.416 13.374-30.0244 21.7798-30.0244 21.7798-23.8745 13.374-23.8745 13.374-9.39941C13.374-8.23568 13.7008-7.3763 14.3542-6.82129 15.0077-6.26628 15.8716-5.98877 16.9458-5.98877Z" fill="#FFFFFF" transform="matrix(1 0 0 1 224.641 89)"/></g></g><path d="M620.5 1000.56C620.5 986.169 632.169 974.5 646.564 974.5L889.435 974.5C903.83 974.5 915.5 986.169 915.5 1000.56L915.5 1052.44C915.5 1066.83 903.83 1078.5 889.435 1078.5L646.564 1078.5C632.169 1078.5 620.5 1066.83 620.5 1052.44Z" stroke="#4663AC" stroke-width="4.58333" stroke-miterlimit="8" fill="#4663AC" fill-rule="evenodd"/><path d="M620.5 1000.56C620.5 986.169 632.169 974.5 646.564 974.5L889.435 974.5C903.83 974.5 915.5 986.169 915.5 1000.56L915.5 1052.44C915.5 1066.83 903.83 1078.5 889.435 1078.5L646.564 1078.5C632.169 1078.5 620.5 1066.83 620.5 1052.44Z" stroke="#4663AC" stroke-width="4.58333" stroke-miterlimit="8" fill="#4663AC" fill-rule="evenodd"/><text fill="#FFFFFF" font-family="Noto Sans,Noto Sans_MSFontService,sans-serif" font-weight="700" font-size="55" transform="matrix(1 0 0 1 678.766 1045)">Submi</text><text fill="#FFFFFF" font-family="Noto Sans,Noto Sans_MSFontService,sans-serif" font-weight="700" font-size="55" transform="matrix(1 0 0 1 850.641 1045)">t</text></g></svg>