<svg width="540" height="203" xmlns="http://www.w3.org/2000/svg" xmlns:xlink="http://www.w3.org/1999/xlink" xml:space="preserve" overflow="hidden"><defs><filter id="fx0" x="-10%" y="-10%" width="120%" height="120%" filterUnits="userSpaceOnUse" primitiveUnits="userSpaceOnUse"><feComponentTransfer color-interpolation-filters="sRGB"><feFuncR type="discrete" tableValues="0 0"/><feFuncG type="discrete" tableValues="0 0"/><feFuncB type="discrete" tableValues="0 0"/><feFuncA type="linear" slope="0.4" intercept="0"/></feComponentTransfer><feGaussianBlur stdDeviation="6.11111 6.11111"/></filter><filter id="fx1" x="-10%" y="-10%" width="120%" height="120%" filterUnits="userSpaceOnUse" primitiveUnits="userSpaceOnUse"><feComponentTransfer color-interpolation-filters="sRGB"><feFuncR type="discrete" tableValues="0 0"/><feFuncG type="discrete" tableValues="0 0"/><feFuncB type="discrete" tableValues="0 0"/><feFuncA type="linear" slope="0.4" intercept="0"/></feComponentTransfer><feGaussianBlur stdDeviation="6.11111 6.11111"/></filter><clipPath id="clip2"><rect x="397" y="678" width="540" height="203"/></clipPath><clipPath id="clip3"><rect x="35" y="22" width="337" height="103"/></clipPath></defs><g clip-path="url(#clip2)" transform="translate(-397 -678)"><g filter="url(#fx0)" transform="translate(396 677)"><g><path d="M22.4998 62.3492C22.4998 40.203 40.4529 22.2499 62.599 22.2499L479.401 22.2499C501.547 22.2499 519.5 40.203 519.5 62.3492L519.5 142.151C519.5 164.297 501.547 182.25 479.401 182.25L62.599 182.25C40.4529 182.25 22.4998 164.297 22.4998 142.151Z" stroke="#4663AC" stroke-width="5" stroke-miterlimit="8" fill="#4663AC" fill-rule="evenodd"/><path d="M22.4998 62.3492C22.4998 40.203 40.4529 22.2499 62.599 22.2499L479.401 22.2499C501.547 22.2499 519.5 40.203 519.5 62.3492L519.5 142.151C519.5 164.297 501.547 182.25 479.401 182.25L62.599 182.25C40.4529 182.25 22.4998 164.297 22.4998 142.151Z" stroke="#4663AC" stroke-width="5" stroke-miterlimit="8" fill="#4663AC" fill-rule="evenodd"/></g></g><g clip-path="url(#clip3)" filter="url(#fx1)" transform="translate(520 709)"><g><path d="M36.8994-39.2627 36.8994-13.8574C36.8994-10.957 36.2504-8.41471 34.9524-6.23047 33.6544-4.04622 31.779-2.37223 29.3262-1.2085 26.8734-0.0447592 23.973 0.537109 20.625 0.537109 15.5762 0.537109 11.6553-0.756429 8.8623-3.34351 6.06933-5.93058 4.67285-9.47103 4.67285-13.9648L4.67285-39.2627 12.9712-39.2627 12.9712-15.227C12.9712-12.2013 13.5799-9.98128 14.7974-8.56689 16.0148-7.15251 18.029-6.44531 20.8398-6.44531 23.5612-6.44531 25.5351-7.15698 26.7615-8.58032 27.9879-10.0037 28.6011-12.2371 28.6011-15.2808L28.6011-39.2627ZM62.609 0.537109C59.082 0.537109 56.3159-0.743001 54.3107-3.30322L53.881-3.30322C54.1675-0.796712 54.3107 0.653483 54.3107 1.04736L54.3107 13.2129 46.1198 13.2129 46.1198-30.0244 52.7799-30.0244 53.9347-26.1304 54.3107-26.1304C56.2264-29.1024 59.0641-30.5884 62.8239-30.5884 66.3688-30.5884 69.1439-29.2187 71.1491-26.4795 73.1543-23.7402 74.1569-19.9357 74.1569-15.0659 74.1569-11.8612 73.6869-9.07715 72.747-6.71387 71.807-4.35059 70.4688-2.55127 68.7321-1.31592 66.9954-0.0805664 64.9544 0.537109 62.609 0.537109ZM60.1921-24.0356C58.1689-24.0356 56.6919-23.4135 55.7609-22.1692 54.8299-20.9249 54.3465-18.8704 54.3107-16.0059L54.3107-15.1196C54.3107-11.897 54.7896-9.5874 55.7475-8.19092 56.7053-6.79443 58.2227-6.09619 60.2995-6.09619 63.9697-6.09619 65.8048-9.12191 65.8048-15.1733 65.8048-18.1274 65.3528-20.343 64.4486-21.8201 63.5445-23.2971 62.1256-24.0356 60.1921-24.0356ZM89.2586 0 81.0677 0 81.0677-41.7871 89.2586-41.7871ZM104.208-15.0659C104.208-12.0939 104.696-9.847 105.672-8.32519 106.648-6.80338 108.236-6.04248 110.439-6.04248 112.623-6.04248 114.194-6.79891 115.152-8.31177 116.11-9.82462 116.589-12.076 116.589-15.0659 116.589-18.0379 116.105-20.2669 115.138-21.7529 114.172-23.2389 112.587-23.9819 110.385-23.9819 108.201-23.9819 106.625-23.2434 105.658-21.7664 104.692-20.2893 104.208-18.0558 104.208-15.0659ZM124.967-15.0659C124.967-10.1782 123.678-6.35579 121.1-3.59863 118.522-0.841471 114.932 0.537109 110.331 0.537109 107.449 0.537109 104.906-0.0939942 102.704-1.3562 100.502-2.61841 98.8102-4.43115 97.6286-6.79443 96.4469-9.15771 95.8561-11.9149 95.8561-15.0659 95.8561-19.9715 97.1362-23.785 99.6964-26.5063 102.257-29.2277 105.855-30.5884 110.492-30.5884 113.375-30.5884 115.917-29.9617 118.119-28.7085 120.321-27.4552 122.013-25.6559 123.195-23.3105 124.377-20.9652 124.967-18.217 124.967-15.0659ZM150.552 0 148.967-4.08203 148.752-4.08203C147.374-2.34538 145.955-1.14136 144.496-0.469971 143.037 0.201416 141.134 0.537109 138.789 0.537109 135.907 0.537109 133.637-0.286458 131.981-1.93359 130.325-3.58073 129.497-5.92611 129.497-8.96973 129.497-12.1566 130.612-14.5064 132.841-16.0193 135.07-17.5321 138.431-18.3691 142.925-18.5303L148.135-18.6914 148.135-20.0073C148.135-23.0509 146.577-24.5728 143.462-24.5728 141.063-24.5728 138.243-23.8477 135.002-22.3975L132.29-27.9297C135.745-29.738 139.577-30.6421 143.784-30.6421 147.812-30.6421 150.901-29.7648 153.049-28.0103 155.198-26.2557 156.272-23.5881 156.272-20.0073L156.272 0ZM148.135-13.9111 144.966-13.8037C142.585-13.7321 140.812-13.3024 139.648-12.5146 138.485-11.7269 137.903-10.5273 137.903-8.91601 137.903-6.60644 139.228-5.45166 141.877-5.45166 143.775-5.45166 145.293-5.99772 146.429-7.08984 147.566-8.18196 148.135-9.63216 148.135-11.4404ZM174.22 0.537109C170.693 0.537109 167.923-0.83252 165.909-3.57178 163.894-6.31103 162.887-10.1066 162.887-14.9585 162.887-19.882 163.912-23.7179 165.962-26.4661 168.012-29.2143 170.837-30.5884 174.435-30.5884 178.213-30.5884 181.095-29.1203 183.083-26.1841L183.351-26.1841C182.939-28.422 182.734-30.4183 182.734-32.1728L182.734-41.7871 190.951-41.7871 190.951 0 184.667 0 183.083-3.89404 182.734-3.89404C180.872-0.939941 178.034 0.537109 174.22 0.537109ZM177.094-5.98877C179.189-5.98877 180.724-6.59749 181.7-7.81494 182.675-9.03239 183.208-11.1003 183.298-14.0186L183.298-14.9048C183.298-18.1274 182.801-20.437 181.807-21.8335 180.813-23.23 179.198-23.9282 176.96-23.9282 175.133-23.9282 173.715-23.1539 172.703-21.6052 171.691-20.0566 171.186-17.8052 171.186-14.8511 171.186-11.897 171.696-9.68139 172.716-8.20434 173.737-6.72729 175.196-5.98877 177.094-5.98877ZM230.581-23.8745 223.491-23.8745 223.491 0 215.3 0 215.3-23.8745 210.789-23.8745 210.789-27.8223 215.3-30.0244 215.3-32.2266C215.3-35.6462 216.142-38.1437 217.825-39.7192 219.508-41.2948 222.202-42.0825 225.908-42.0825 228.737-42.0825 231.252-41.6618 233.455-40.8203L231.36-34.8047C229.713-35.3239 228.191-35.5835 226.794-35.5835 225.631-35.5835 224.789-35.2388 224.27-34.5496 223.751-33.8603 223.491-32.9785 223.491-31.9043L223.491-30.0244 230.581-30.0244ZM234.833-37.7856C234.833-40.4533 236.319-41.7871 239.291-41.7871 242.263-41.7871 243.749-40.4533 243.749-37.7856 243.749-36.5145 243.378-35.5253 242.635-34.8181 241.892-34.1109 240.777-33.7573 239.291-33.7573 236.319-33.7573 234.833-35.1001 234.833-37.7856ZM243.373 0 235.182 0 235.182-30.0244 243.373-30.0244ZM259.988 0 251.797 0 251.797-41.7871 259.988-41.7871ZM280.846-24.7607C279.109-24.7607 277.748-24.2102 276.763-23.1091 275.779-22.0081 275.215-20.446 275.072-18.4228L286.566-18.4228C286.53-20.446 286.002-22.0081 284.981-23.1091 283.961-24.2102 282.582-24.7607 280.846-24.7607ZM282 0.537109C277.166 0.537109 273.389-0.796712 270.667-3.46436 267.946-6.132 266.585-9.90967 266.585-14.7974 266.585-19.8283 267.843-23.7179 270.358-26.4661 272.874-29.2143 276.352-30.5884 280.792-30.5884 285.035-30.5884 288.338-29.3799 290.701-26.9629 293.065-24.5459 294.246-21.2069 294.246-16.9458L294.246-12.9712 274.884-12.9712C274.973-10.6437 275.662-8.8265 276.951-7.51953 278.241-6.21256 280.049-5.55908 282.376-5.55908 284.185-5.55908 285.894-5.74707 287.506-6.12305 289.117-6.49902 290.8-7.09879 292.555-7.92236L292.555-1.58447C291.122-0.868327 289.591-0.335693 287.962 0.0134277 286.333 0.362549 284.346 0.537109 282 0.537109Z" fill="#FFFFFF" transform="matrix(1 0 0 1 53.2719 88)"/></g></g><path d="M418.5 725.599C418.5 703.453 436.453 685.5 458.599 685.5L875.401 685.5C897.547 685.5 915.5 703.453 915.5 725.599L915.5 805.401C915.5 827.547 897.547 845.5 875.401 845.5L458.599 845.5C436.453 845.5 418.5 827.547 418.5 805.401Z" stroke="#4663AC" stroke-width="4.58333" stroke-miterlimit="8" fill="#4663AC" fill-rule="evenodd"/><path d="M418.5 725.599C418.5 703.453 436.453 685.5 458.599 685.5L875.401 685.5C897.547 685.5 915.5 703.453 915.5 725.599L915.5 805.401C915.5 827.547 897.547 845.5 875.401 845.5L458.599 845.5C436.453 845.5 418.5 827.547 418.5 805.401Z" stroke="#4663AC" stroke-width="4.58333" stroke-miterlimit="8" fill="#4663AC" fill-rule="evenodd"/><text fill="#FFFFFF" font-family="Noto Sans,Noto Sans_MSFontService,sans-serif" font-weight="700" font-size="55" transform="matrix(1 0 0 1 573.272 784)">Upload file</text><g><g><g><path d="M26.9483 23.9112C27.5293 23.905 28.0838 23.6669 28.4886 23.25L44.3204 7.44001 44.3204 66.1173C44.3204 67.3212 45.2962 68.297 46.5001 68.297 47.7039 68.297 48.6798 67.3212 48.6798 66.1173L48.6798 7.44001 64.5116 23.25C65.4617 23.9893 66.8312 23.8184 67.5704 22.8684 68.1831 22.0811 68.1831 20.9784 67.5704 20.1912L48.0404 0.639376C47.9385 0.536467 47.8265 0.443978 47.7062 0.363282L47.5391 0.276094C47.4708 0.235968 47.4005 0.199586 47.3284 0.16711 47.2547 0.13883 47.1795 0.114575 47.1031 0.0944533L46.9288 0.0435938C46.6458-0.0131642 46.3543-0.0131642 46.0714 0.0435938L45.8898 0.101719C45.8134 0.121742 45.7382 0.145999 45.6645 0.174375 45.5924 0.206852 45.5221 0.243234 45.4538 0.28336L45.294 0.363282C45.1737 0.443978 45.0617 0.536467 44.9598 0.639376L25.4297 20.1912C24.5791 21.043 24.5799 22.4231 25.4316 23.2737 25.8399 23.6815 26.3931 23.9107 26.97 23.9112Z" fill="#FFFFFF" transform="matrix(1 0 0 1.01075 460 718)"/><path d="M90.8205 63.9376C89.6166 63.9376 88.6408 64.9135 88.6408 66.1173L88.6408 82.1017C88.6408 85.7135 85.7135 88.6408 82.1017 88.6408L10.8985 88.6408C7.287 88.6408 4.35938 85.7135 4.35938 82.1017L4.35938 66.1173C4.35938 64.9135 3.3835 63.9376 2.17969 63.9376 0.975884 63.9376 0 64.9135 0 66.1173L0 82.1017C1.29064e-15 88.1206 4.87941 93.0002 10.8985 93.0002L82.1017 93.0002C88.1206 93.0002 93.0002 88.1206 93.0002 82.1017L93.0002 66.1173C93.0002 64.9135 92.0244 63.9376 90.8205 63.9376Z" fill="#FFFFFF" transform="matrix(1 0 0 1.01075 460 718)"/></g></g></g></g></svg>