<svg width="1037" height="203" xmlns="http://www.w3.org/2000/svg" xmlns:xlink="http://www.w3.org/1999/xlink" xml:space="preserve" overflow="hidden"><defs><filter id="fx0" x="-10%" y="-10%" width="120%" height="120%" filterUnits="userSpaceOnUse" primitiveUnits="userSpaceOnUse"><feComponentTransfer color-interpolation-filters="sRGB"><feFuncR type="discrete" tableValues="0 0"/><feFuncG type="discrete" tableValues="0 0"/><feFuncB type="discrete" tableValues="0 0"/><feFuncA type="linear" slope="0.4" intercept="0"/></feComponentTransfer><feGaussianBlur stdDeviation="6.11111 6.11111"/></filter><filter id="fx1" x="-10%" y="-10%" width="120%" height="120%" filterUnits="userSpaceOnUse" primitiveUnits="userSpaceOnUse"><feComponentTransfer color-interpolation-filters="sRGB"><feFuncR type="discrete" tableValues="0 0"/><feFuncG type="discrete" tableValues="0 0"/><feFuncB type="discrete" tableValues="0 0"/><feFuncA type="linear" slope="0.4" intercept="0"/></feComponentTransfer><feGaussianBlur stdDeviation="6.11111 6.11111"/></filter><clipPath id="clip2"><rect x="3149" y="1510" width="1037" height="203"/></clipPath><clipPath id="clip3"><rect x="32" y="25" width="808" height="100"/></clipPath></defs><g clip-path="url(#clip2)" transform="translate(-3149 -1510)"><g filter="url(#fx0)" transform="translate(3148 1509)"><g><path d="M22.5 62.3495C22.5 40.2032 40.453 22.2501 62.5992 22.2501L976.401 22.2501C998.547 22.2501 1016.5 40.2032 1016.5 62.3495L1016.5 142.151C1016.5 164.297 998.547 182.25 976.401 182.25L62.5992 182.25C40.453 182.25 22.5 164.297 22.5 142.151Z" stroke="#4663AC" stroke-width="5" stroke-miterlimit="8" fill="#4663AC" fill-rule="evenodd"/><path d="M22.5 62.3495C22.5 40.2032 40.453 22.2501 62.5992 22.2501L976.401 22.2501C998.547 22.2501 1016.5 40.2032 1016.5 62.3495L1016.5 142.151C1016.5 164.297 998.547 182.25 976.401 182.25L62.5992 182.25C40.453 182.25 22.5 164.297 22.5 142.151Z" stroke="#4663AC" stroke-width="5" stroke-miterlimit="8" fill="#4663AC" fill-rule="evenodd"/></g></g><g clip-path="url(#clip3)" filter="url(#fx1)" transform="translate(3298 1541)"><g><path d="M40.5786-19.6851C40.5786-13.186 38.9673-8.19092 35.7446-4.69971 32.522-1.2085 27.9028 0.537109 21.8872 0.537109 15.8716 0.537109 11.2524-1.2085 8.02978-4.69971 4.80713-8.19092 3.1958-13.2039 3.1958-19.7388 3.1958-26.2736 4.8116-31.2642 8.04321-34.7107 11.2748-38.1571 15.9074-39.8804 21.9409-39.8804 27.9744-39.8804 32.5891-38.1437 35.7849-34.6704 38.9807-31.1971 40.5786-26.202 40.5786-19.6851ZM11.9238-19.6851C11.9238-15.2987 12.7563-11.9954 14.4214-9.77539 16.0864-7.55534 18.575-6.44531 21.8872-6.44531 28.5295-6.44531 31.8506-10.8586 31.8506-19.6851 31.8506-28.5295 28.5474-32.9517 21.9409-32.9517 18.6287-32.9517 16.1312-31.8372 14.4482-29.6082 12.7653-27.3791 11.9238-24.0714 11.9238-19.6851ZM64.3278 0.537109C60.8008 0.537109 58.0347-0.743001 56.0295-3.30322L55.5998-3.30322C55.8862-0.796712 56.0295 0.653483 56.0295 1.04736L56.0295 13.2129 47.8385 13.2129 47.8385-30.0244 54.4987-30.0244 55.6535-26.1304 56.0295-26.1304C57.9451-29.1024 60.7829-30.5884 64.5426-30.5884 68.0876-30.5884 70.8626-29.2187 72.8678-26.4795 74.873-23.7402 75.8756-19.9357 75.8756-15.0659 75.8756-11.8612 75.4057-9.07715 74.4657-6.71387 73.5258-4.35059 72.1875-2.55127 70.4508-1.31592 68.7142-0.0805664 66.6732 0.537109 64.3278 0.537109ZM61.9108-24.0356C59.8877-24.0356 58.4106-23.4135 57.4797-22.1692 56.5487-20.9249 56.0653-18.8704 56.0295-16.0059L56.0295-15.1196C56.0295-11.897 56.5084-9.5874 57.4662-8.19092 58.4241-6.79443 59.9414-6.09619 62.0182-6.09619 65.6885-6.09619 67.5236-9.12191 67.5236-15.1733 67.5236-18.1274 67.0715-20.343 66.1674-21.8201 65.2633-23.2971 63.8444-24.0356 61.9108-24.0356ZM95.4354-5.98877C96.8677-5.98877 98.5864-6.30208 100.592-6.92871L100.592-0.832519C98.5506 0.0805663 96.0441 0.537109 93.0721 0.537109 89.7957 0.537109 87.4101-0.290934 85.9151-1.94702 84.4202-3.60311 83.6727-6.08724 83.6727-9.39941L83.6727-23.8745 79.7518-23.8745 79.7518-27.3389 84.2635-30.0781 86.6268-36.416 91.8636-36.416 91.8636-30.0244 100.269-30.0244 100.269-23.8745 91.8636-23.8745 91.8636-9.39941C91.8636-8.23568 92.1903-7.3763 92.8438-6.82129 93.4973-6.26628 94.3612-5.98877 95.4354-5.98877ZM106.5-37.7856C106.5-40.4533 107.986-41.7871 110.958-41.7871 113.93-41.7871 115.416-40.4533 115.416-37.7856 115.416-36.5145 115.044-35.5253 114.301-34.8181 113.558-34.1109 112.444-33.7573 110.958-33.7573 107.986-33.7573 106.5-35.1001 106.5-37.7856ZM115.04 0 106.849 0 106.849-30.0244 115.04-30.0244ZM150.346 0 142.155 0 142.155-17.5366C142.155-19.703 141.792-21.3277 141.067-22.4109 140.342-23.4941 139.201-24.0356 137.643-24.0356 135.548-24.0356 134.027-23.2658 133.078-21.7261 132.129-20.1864 131.654-17.653 131.654-14.126L131.654 0 123.464 0 123.464-30.0244 129.721-30.0244 130.822-26.1841 131.278-26.1841C132.084-27.5627 133.248-28.6414 134.77-29.4202 136.291-30.199 138.037-30.5884 140.007-30.5884 144.5-30.5884 147.544-29.1203 149.137-26.1841L149.862-26.1841C150.668-27.5806 151.854-28.6637 153.421-29.4336 154.987-30.2034 156.755-30.5884 158.725-30.5884 162.126-30.5884 164.7-29.7156 166.446-27.97 168.191-26.2244 169.064-23.4269 169.064-19.5776L169.064 0 160.846 0 160.846-17.5366C160.846-19.703 160.484-21.3277 159.759-22.4109 159.034-23.4941 157.892-24.0356 156.335-24.0356 154.329-24.0356 152.83-23.3195 151.836-21.8872 150.843-20.4549 150.346-18.1812 150.346-15.0659ZM176.969-37.7856C176.969-40.4533 178.455-41.7871 181.427-41.7871 184.399-41.7871 185.885-40.4533 185.885-37.7856 185.885-36.5145 185.513-35.5253 184.77-34.8181 184.027-34.1109 182.913-33.7573 181.427-33.7573 178.455-33.7573 176.969-35.1001 176.969-37.7856ZM185.509 0 177.318 0 177.318-30.0244 185.509-30.0244ZM214.826 0 191.112 0 191.112-4.83398 205.024-23.7671 191.945-23.7671 191.945-30.0244 214.342-30.0244 214.342-24.707 200.807-6.25732 214.826-6.25732ZM233.293-24.7607C231.557-24.7607 230.196-24.2102 229.211-23.1091 228.227-22.0081 227.663-20.446 227.52-18.4228L239.014-18.4228C238.978-20.446 238.45-22.0081 237.429-23.1091 236.409-24.2102 235.03-24.7607 233.293-24.7607ZM234.448 0.537109C229.614 0.537109 225.837-0.796712 223.115-3.46436 220.394-6.132 219.033-9.90967 219.033-14.7974 219.033-19.8283 220.291-23.7179 222.806-26.4661 225.322-29.2143 228.8-30.5884 233.24-30.5884 237.483-30.5884 240.786-29.3799 243.149-26.9629 245.513-24.5459 246.694-21.2069 246.694-16.9458L246.694-12.9712 227.332-12.9712C227.421-10.6437 228.11-8.8265 229.399-7.51953 230.688-6.21256 232.497-5.55908 234.824-5.55908 236.632-5.55908 238.342-5.74707 239.954-6.12305 241.565-6.49902 243.248-7.09879 245.002-7.92236L245.002-1.58447C243.57-0.868327 242.039-0.335693 240.41 0.0134277 238.781 0.362549 236.794 0.537109 234.448 0.537109Z" fill="#FFFFFF" transform="matrix(1 0 0 1 52.7764 89)"/><path d="M37.1143 0 28.8159 0 28.8159-16.9458 13.2666-16.9458 13.2666 0 4.94141 0 4.94141-39.2627 13.2666-39.2627 13.2666-23.8745 28.8159-23.8745 28.8159-39.2627 37.1143-39.2627ZM41.8229-30.0244 50.7926-30.0244 56.4591-13.1323C56.9425-11.6642 57.2738-9.92757 57.4528-7.92236L57.6139-7.92236C57.8109-9.76644 58.1958-11.5031 58.7687-13.1323L64.3278-30.0244 73.1095-30.0244 60.4069 3.84033C59.2432 6.97347 57.5826 9.31885 55.4252 10.8765 53.2678 12.4341 50.7479 13.2129 47.8654 13.2129 46.451 13.2129 45.0635 13.0607 43.7028 12.7563L43.7028 6.25732C44.6875 6.49007 45.7617 6.60644 46.9255 6.60644 48.3756 6.60644 49.6423 6.16333 50.7255 5.2771 51.8087 4.39087 52.6546 3.05257 53.2633 1.26221L53.7467-0.214844ZM87.137 0.537109C83.61 0.537109 80.8394-0.83252 78.8253-3.57178 76.8111-6.31103 75.804-10.1066 75.804-14.9585 75.804-19.882 76.829-23.7179 78.879-26.4661 80.9289-29.2143 83.7533-30.5884 87.3519-30.5884 91.1295-30.5884 94.012-29.1203 95.9993-26.1841L96.2679-26.1841C95.8561-28.422 95.6502-30.4183 95.6502-32.1728L95.6502-41.7871 103.868-41.7871 103.868 0 97.5838 0 95.9993-3.89404 95.6502-3.89404C93.7882-0.939941 90.9505 0.537109 87.137 0.537109ZM90.0106-5.98877C92.1053-5.98877 93.6405-6.59749 94.6163-7.81494 95.592-9.03239 96.1247-11.1003 96.2142-14.0186L96.2142-14.9048C96.2142-18.1274 95.7174-20.437 94.7237-21.8335 93.7301-23.23 92.1143-23.9282 89.8763-23.9282 88.0501-23.9282 86.6313-23.1539 85.6197-21.6052 84.6081-20.0566 84.1024-17.8052 84.1024-14.8511 84.1024-11.897 84.6126-9.68139 85.6331-8.20434 86.6536-6.72729 88.1128-5.98877 90.0106-5.98877ZM129.336-30.5884C130.446-30.5884 131.368-30.5078 132.102-30.3467L131.484-22.666C130.822-22.845 130.016-22.9346 129.067-22.9346 126.453-22.9346 124.417-22.2632 122.958-20.9204 121.499-19.5776 120.769-17.6978 120.769-15.2808L120.769 0 112.578 0 112.578-30.0244 118.782-30.0244 119.99-24.9756 120.393-24.9756C121.324-26.6585 122.582-28.0147 124.166-29.0442 125.751-30.0736 127.474-30.5884 129.336-30.5884ZM144.312-15.0659C144.312-12.0939 144.8-9.847 145.776-8.32519 146.752-6.80338 148.341-6.04248 150.543-6.04248 152.727-6.04248 154.298-6.79891 155.256-8.31177 156.214-9.82462 156.693-12.076 156.693-15.0659 156.693-18.0379 156.209-20.2669 155.243-21.7529 154.276-23.2389 152.691-23.9819 150.489-23.9819 148.305-23.9819 146.729-23.2434 145.763-21.7664 144.796-20.2893 144.312-18.0558 144.312-15.0659ZM165.072-15.0659C165.072-10.1782 163.783-6.35579 161.204-3.59863 158.626-0.841471 155.037 0.537109 150.435 0.537109 147.553 0.537109 145.011-0.0939942 142.808-1.3562 140.606-2.61841 138.914-4.43115 137.733-6.79443 136.551-9.15771 135.96-11.9149 135.96-15.0659 135.96-19.9715 137.24-23.785 139.801-26.5063 142.361-29.2277 145.959-30.5884 150.597-30.5884 153.479-30.5884 156.021-29.9617 158.223-28.7085 160.426-27.4552 162.117-25.6559 163.299-23.3105 164.481-20.9652 165.072-18.217 165.072-15.0659Z" fill="#FFFFFF" transform="matrix(1 0 0 1 316.318 89)"/><path d="M20.7861 0.537109C17.2591 0.537109 14.493-0.743001 12.4878-3.30322L12.0581-3.30322C12.3446-0.796712 12.4878 0.653483 12.4878 1.04736L12.4878 13.2129 4.29687 13.2129 4.29687-30.0244 10.957-30.0244 12.1118-26.1304 12.4878-26.1304C14.4035-29.1024 17.2412-30.5884 21.001-30.5884 24.5459-30.5884 27.321-29.2187 29.3262-26.4795 31.3314-23.7402 32.334-19.9357 32.334-15.0659 32.334-11.8612 31.864-9.07715 30.9241-6.71387 29.9841-4.35059 28.6458-2.55127 26.9092-1.31592 25.1725-0.0805664 23.1315 0.537109 20.7861 0.537109ZM18.3691-24.0356C16.346-24.0356 14.869-23.4135 13.938-22.1692 13.007-20.9249 12.5236-18.8704 12.4878-16.0059L12.4878-15.1196C12.4878-11.897 12.9667-9.5874 13.9246-8.19092 14.8824-6.79443 16.3997-6.09619 18.4766-6.09619 22.1468-6.09619 23.9819-9.12191 23.9819-15.1733 23.9819-18.1274 23.5299-20.343 22.6257-21.8201 21.7216-23.2971 20.3027-24.0356 18.3691-24.0356ZM58.3122 0 56.7277-4.08203 56.5129-4.08203C55.1343-2.34538 53.7154-1.14136 52.2563-0.469971 50.7971 0.201416 48.8949 0.537109 46.5495 0.537109 43.667 0.537109 41.3977-0.286458 39.7416-1.93359 38.0855-3.58073 37.2575-5.92611 37.2575-8.96973 37.2575-12.1566 38.372-14.5064 40.601-16.0193 42.83-17.5321 46.1914-18.3691 50.6852-18.5303L55.8952-18.6914 55.8952-20.0073C55.8952-23.0509 54.3376-24.5728 51.2223-24.5728 48.8232-24.5728 46.0034-23.8477 42.7629-22.3975L40.0505-27.9297C43.5059-29.738 47.3372-30.6421 51.5446-30.6421 55.5729-30.6421 58.6613-29.7648 60.8097-28.0103 62.9582-26.2557 64.0324-23.5881 64.0324-20.0073L64.0324 0ZM55.8952-13.9111 52.7262-13.8037C50.345-13.7321 48.5726-13.3024 47.4089-12.5146 46.2451-11.7269 45.6632-10.5273 45.6632-8.91601 45.6632-6.60644 46.9881-5.45166 49.6379-5.45166 51.5356-5.45166 53.053-5.99772 54.1899-7.08984 55.3267-8.18196 55.8952-9.63216 55.8952-11.4404ZM89.2318-30.5884C90.3418-30.5884 91.2638-30.5078 91.9979-30.3467L91.3802-22.666C90.7178-22.845 89.9121-22.9346 88.9632-22.9346 86.3493-22.9346 84.3127-22.2632 82.8536-20.9204 81.3944-19.5776 80.6649-17.6978 80.6649-15.2808L80.6649 0 72.474 0 72.474-30.0244 78.6776-30.0244 79.8861-24.9756 80.2889-24.9756C81.2199-26.6585 82.4776-28.0147 84.0621-29.0442 85.6466-30.0736 87.3698-30.5884 89.2318-30.5884ZM116.75 0 115.165-4.08203 114.95-4.08203C113.572-2.34538 112.153-1.14136 110.694-0.469971 109.235 0.201416 107.332 0.537109 104.987 0.537109 102.104 0.537109 99.8352-0.286458 98.1791-1.93359 96.523-3.58073 95.695-5.92611 95.695-8.96973 95.695-12.1566 96.8095-14.5064 99.0385-16.0193 101.267-17.5321 104.629-18.3691 109.123-18.5303L114.333-18.6914 114.333-20.0073C114.333-23.0509 112.775-24.5728 109.66-24.5728 107.261-24.5728 104.441-23.8477 101.2-22.3975L98.4879-27.9297C101.943-29.738 105.775-30.6421 109.982-30.6421 114.01-30.6421 117.099-29.7648 119.247-28.0103 121.396-26.2557 122.47-23.5881 122.47-20.0073L122.47 0ZM114.333-13.9111 111.164-13.8037C108.783-13.7321 107.01-13.3024 105.846-12.5146 104.683-11.7269 104.101-10.5273 104.101-8.91601 104.101-6.60644 105.426-5.45166 108.075-5.45166 109.973-5.45166 111.49-5.99772 112.627-7.08984 113.764-8.18196 114.333-9.63216 114.333-11.4404ZM157.794 0 149.603 0 149.603-17.5366C149.603-19.703 149.24-21.3277 148.515-22.4109 147.79-23.4941 146.649-24.0356 145.091-24.0356 142.996-24.0356 141.475-23.2658 140.526-21.7261 139.577-20.1864 139.102-17.653 139.102-14.126L139.102 0 130.911 0 130.911-30.0244 137.169-30.0244 138.27-26.1841 138.726-26.1841C139.532-27.5627 140.696-28.6414 142.218-29.4202 143.739-30.199 145.485-30.5884 147.454-30.5884 151.948-30.5884 154.992-29.1203 156.585-26.1841L157.31-26.1841C158.116-27.5806 159.302-28.6637 160.869-29.4336 162.435-30.2034 164.203-30.5884 166.173-30.5884 169.574-30.5884 172.148-29.7156 173.894-27.97 175.639-26.2244 176.512-23.4269 176.512-19.5776L176.512 0 168.294 0 168.294-17.5366C168.294-19.703 167.932-21.3277 167.207-22.4109 166.482-23.4941 165.34-24.0356 163.783-24.0356 161.777-24.0356 160.278-23.3195 159.284-21.8872 158.291-20.4549 157.794-18.1812 157.794-15.0659ZM197.2-24.7607C195.463-24.7607 194.102-24.2102 193.118-23.1091 192.133-22.0081 191.569-20.446 191.426-18.4228L202.92-18.4228C202.884-20.446 202.356-22.0081 201.335-23.1091 200.315-24.2102 198.936-24.7607 197.2-24.7607ZM198.354 0.537109C193.52 0.537109 189.743-0.796712 187.021-3.46436 184.3-6.132 182.939-9.90967 182.939-14.7974 182.939-19.8283 184.197-23.7179 186.713-26.4661 189.228-29.2143 192.706-30.5884 197.146-30.5884 201.389-30.5884 204.692-29.3799 207.056-26.9629 209.419-24.5459 210.601-21.2069 210.601-16.9458L210.601-12.9712 191.238-12.9712C191.327-10.6437 192.017-8.8265 193.306-7.51953 194.595-6.21256 196.403-5.55908 198.73-5.55908 200.539-5.55908 202.249-5.74707 203.86-6.12305 205.471-6.49902 207.154-7.09879 208.909-7.92236L208.909-1.58447C207.476-0.868327 205.946-0.335693 204.316 0.0134277 202.687 0.362549 200.7 0.537109 198.354 0.537109ZM230.071-5.98877C231.503-5.98877 233.222-6.30208 235.227-6.92871L235.227-0.832519C233.186 0.0805663 230.68 0.537109 227.708 0.537109 224.431 0.537109 222.045-0.290934 220.551-1.94702 219.056-3.60311 218.308-6.08724 218.308-9.39941L218.308-23.8745 214.387-23.8745 214.387-27.3389 218.899-30.0781 221.262-36.416 226.499-36.416 226.499-30.0244 234.905-30.0244 234.905-23.8745 226.499-23.8745 226.499-9.39941C226.499-8.23568 226.826-7.3763 227.479-6.82129 228.133-6.26628 228.997-5.98877 230.071-5.98877ZM253.918-24.7607C252.182-24.7607 250.821-24.2102 249.836-23.1091 248.852-22.0081 248.288-20.446 248.145-18.4228L259.639-18.4228C259.603-20.446 259.075-22.0081 258.054-23.1091 257.034-24.2102 255.655-24.7607 253.918-24.7607ZM255.073 0.537109C250.239 0.537109 246.462-0.796712 243.74-3.46436 241.019-6.132 239.658-9.90967 239.658-14.7974 239.658-19.8283 240.916-23.7179 243.431-26.4661 245.947-29.2143 249.425-30.5884 253.865-30.5884 258.108-30.5884 261.411-29.3799 263.774-26.9629 266.138-24.5459 267.319-21.2069 267.319-16.9458L267.319-12.9712 247.957-12.9712C248.046-10.6437 248.735-8.8265 250.024-7.51953 251.313-6.21256 253.122-5.55908 255.449-5.55908 257.257-5.55908 258.967-5.74707 260.579-6.12305 262.19-6.49902 263.873-7.09879 265.627-7.92236L265.627-1.58447C264.195-0.868327 262.664-0.335693 261.035 0.0134277 259.406 0.362549 257.419 0.537109 255.073 0.537109ZM290.898-30.5884C292.008-30.5884 292.93-30.5078 293.665-30.3467L293.047-22.666C292.384-22.845 291.579-22.9346 290.63-22.9346 288.016-22.9346 285.979-22.2632 284.52-20.9204 283.061-19.5776 282.331-17.6978 282.332-15.2808L282.332 0 274.141 0 274.141-30.0244 280.344-30.0244 281.553-24.9756 281.956-24.9756C282.887-26.6585 284.144-28.0147 285.729-29.0442 287.313-30.0736 289.036-30.5884 290.898-30.5884ZM320.296-8.91601C320.296-5.83659 319.226-3.49121 317.087-1.87988 314.947-0.268555 311.747 0.537109 307.486 0.537109 305.302 0.537109 303.44 0.389404 301.9 0.0939941 300.36-0.201416 298.919-0.635579 297.576-1.2085L297.576-7.97607C299.098-7.25993 300.813-6.66016 302.719-6.17676 304.626-5.69336 306.305-5.45166 307.755-5.45166 310.727-5.45166 312.213-6.31103 312.213-8.02978 312.213-8.67431 312.016-9.198 311.622-9.60083 311.228-10.0037 310.548-10.4602 309.581-10.9705 308.614-11.4807 307.325-12.076 305.714-12.7563 303.404-13.7231 301.708-14.6183 300.625-15.4419 299.541-16.2655 298.754-17.2099 298.261-18.2751 297.769-19.3404 297.523-20.6519 297.523-22.2095 297.523-24.8771 298.557-26.9405 300.625-28.3997 302.692-29.8588 305.624-30.5884 309.42-30.5884 313.036-30.5884 316.554-29.8006 319.974-28.2251L317.503-22.3169C315.999-22.9614 314.594-23.4896 313.287-23.9014 311.98-24.3131 310.646-24.519 309.285-24.519 306.868-24.519 305.66-23.8656 305.66-22.5586 305.66-21.8245 306.049-21.189 306.828-20.6519 307.607-20.1147 309.312-19.318 311.944-18.2617 314.29-17.3128 316.008-16.4266 317.1-15.603 318.193-14.7795 318.998-13.8306 319.517-12.7563 320.037-11.6821 320.296-10.402 320.296-8.91601Z" fill="#FFFFFF" transform="matrix(1 0 0 1 497.933 89)"/></g></g><path d="M3170.5 1557.6C3170.5 1535.45 3188.45 1517.5 3210.6 1517.5L4124.4 1517.5C4146.55 1517.5 4164.5 1535.45 4164.5 1557.6L4164.5 1637.4C4164.5 1659.55 4146.55 1677.5 4124.4 1677.5L3210.6 1677.5C3188.45 1677.5 3170.5 1659.55 3170.5 1637.4Z" stroke="#4663AC" stroke-width="4.58333" stroke-miterlimit="8" fill="#4663AC" fill-rule="evenodd"/><path d="M3170.5 1557.6C3170.5 1535.45 3188.45 1517.5 3210.6 1517.5L4124.4 1517.5C4146.55 1517.5 4164.5 1535.45 4164.5 1557.6L4164.5 1637.4C4164.5 1659.55 4146.55 1677.5 4124.4 1677.5L3210.6 1677.5C3188.45 1677.5 3170.5 1659.55 3170.5 1637.4Z" stroke="#4663AC" stroke-width="4.58333" stroke-miterlimit="8" fill="#4663AC" fill-rule="evenodd"/><text fill="#FFFFFF" font-family="Noto Sans,Noto Sans_MSFontService,sans-serif" font-weight="700" font-size="55" transform="matrix(1 0 0 1 3350.78 1616)">Optimize </text><text fill="#FFFFFF" font-family="Noto Sans,Noto Sans_MSFontService,sans-serif" font-weight="700" font-size="55" transform="matrix(1 0 0 1 3614.32 1616)">Hydro</text><text fill="#FFFFFF" font-family="Noto Sans,Noto Sans_MSFontService,sans-serif" font-weight="700" font-size="55" transform="matrix(1 0 0 1 3795.93 1616)">parameters</text></g></svg>